<svg xmlns="http://www.w3.org/2000/svg" width="76" height="76" viewBox="0 0 76 76" fill="none"><circle cx="37.8" cy="37.8" r="37.8" fill="#D3E8FF"></circle><path d="M32.9098 49.4015C30.7906 49.4015 28.9614 48.8996 27.4222 47.8958C25.9053 46.8697 24.7342 45.4532 23.9089 43.6463C23.1058 41.8171 22.7043 39.698 22.7043 37.2888C22.7043 34.8796 23.1058 32.7716 23.9089 30.9648C24.7342 29.1356 25.9053 27.7191 27.4222 26.7153C28.9614 25.6891 30.7906 25.1761 32.9098 25.1761C35.0289 25.1761 36.847 25.6891 38.3638 26.7153C39.8807 27.7191 41.0407 29.1356 41.8437 30.9648C42.6691 32.7716 43.0818 34.8796 43.0818 37.2888C43.0818 39.698 42.6691 41.8171 41.8437 43.6463C41.0407 45.4532 39.8807 46.8697 38.3638 47.8958C36.847 48.8996 35.0289 49.4015 32.9098 49.4015ZM32.9098 46.2228C34.1813 46.2228 35.3078 45.8659 36.2893 45.152C37.2931 44.4382 38.0738 43.4121 38.6315 42.0737C39.1892 40.7352 39.468 39.1403 39.468 37.2888C39.468 35.4373 39.1892 33.8424 38.6315 32.5039C38.0738 31.1655 37.2931 30.1394 36.2893 29.4256C35.3078 28.7117 34.1813 28.3548 32.9098 28.3548C31.616 28.3548 30.4783 28.7117 29.4968 29.4256C28.5153 30.1394 27.7457 31.1655 27.188 32.5039C26.6303 33.8424 26.3515 35.4373 26.3515 37.2888C26.3515 39.1403 26.6303 40.7352 27.188 42.0737C27.7457 43.4121 28.5153 44.4382 29.4968 45.152C30.4783 45.8659 31.616 46.2228 32.9098 46.2228ZM47.7712 49V29.5929L43.9902 30.4628V27.8529L49.1766 25.5776H51.4519V49H47.7712Z" fill="#0D253C"></path></svg>