<svg xmlns="http://www.w3.org/2000/svg" width="76" height="76" viewBox="0 0 76 76" fill="none"><circle cx="37.8" cy="37.8" r="37.8" fill="#D3E8FF"></circle><path d="M28.8906 49.4015C26.7714 49.4015 24.9422 48.8996 23.403 47.8958C21.8862 46.8697 20.715 45.4532 19.8897 43.6463C19.0866 41.8171 18.6851 39.698 18.6851 37.2888C18.6851 34.8796 19.0866 32.7716 19.8897 30.9648C20.715 29.1356 21.8862 27.7191 23.403 26.7153C24.9422 25.6891 26.7714 25.1761 28.8906 25.1761C31.0097 25.1761 32.8278 25.6891 34.3446 26.7153C35.8615 27.7191 37.0215 29.1356 37.8245 30.9648C38.6499 32.7716 39.0626 34.8796 39.0626 37.2888C39.0626 39.698 38.6499 41.8171 37.8245 43.6463C37.0215 45.4532 35.8615 46.8697 34.3446 47.8958C32.8278 48.8996 31.0097 49.4015 28.8906 49.4015ZM28.8906 46.2228C30.1621 46.2228 31.2886 45.8659 32.2701 45.152C33.2739 44.4382 34.0547 43.4121 34.6123 42.0737C35.17 40.7352 35.4488 39.1403 35.4488 37.2888C35.4488 35.4373 35.17 33.8424 34.6123 32.5039C34.0547 31.1655 33.2739 30.1394 32.2701 29.4256C31.2886 28.7117 30.1621 28.3548 28.8906 28.3548C27.5968 28.3548 26.4591 28.7117 25.4776 29.4256C24.4961 30.1394 23.7265 31.1655 23.1688 32.5039C22.6111 33.8424 22.3323 35.4373 22.3323 37.2888C22.3323 39.1403 22.6111 40.7352 23.1688 42.0737C23.7265 43.4121 24.4961 44.4382 25.4776 45.152C26.4591 45.8659 27.5968 46.2228 28.8906 46.2228ZM40.613 49V46.457C42.1299 45.2524 43.5798 44.0367 44.9629 42.8098C46.3459 41.5829 47.5728 40.3783 48.6435 39.1961C49.7366 37.9915 50.5954 36.8204 51.22 35.6827C51.8446 34.5227 52.1569 33.4074 52.1569 32.3366C52.1569 31.6228 52.0342 30.9536 51.7888 30.329C51.5435 29.6821 51.1419 29.169 50.5843 28.7898C50.0266 28.3883 49.2793 28.1875 48.3424 28.1875C46.9371 28.1875 45.8775 28.6337 45.1636 29.526C44.4721 30.4182 44.1375 31.489 44.1598 32.7382H40.7134C40.7357 31.0874 41.0815 29.7044 41.7507 28.5891C42.4422 27.4737 43.3568 26.626 44.4944 26.0461C45.6544 25.4661 46.9594 25.1761 48.4093 25.1761C50.6177 25.1761 52.38 25.8007 53.6961 27.0499C55.0345 28.2768 55.7037 29.9944 55.7037 32.2028C55.7037 33.5189 55.3803 34.8239 54.7334 36.1177C54.1088 37.4115 53.2834 38.6607 52.2573 39.8653C51.2535 41.0475 50.1716 42.1629 49.0116 43.2113C47.8516 44.2598 46.7474 45.2078 45.699 46.0555H56.4064V49H40.613Z" fill="#0D253C"></path></svg>