<svg xmlns="http://www.w3.org/2000/svg" width="76" height="76" viewBox="0 0 76 76" fill="none"><circle cx="37.8" cy="37.8" r="37.8" fill="#D3E8FF"></circle><path d="M27.9331 49.4015C25.8139 49.4015 23.9848 48.8996 22.4456 47.8958C20.9287 46.8697 19.7576 45.4532 18.9322 43.6463C18.1292 41.8171 17.7276 39.698 17.7276 37.2888C17.7276 34.8796 18.1292 32.7716 18.9322 30.9648C19.7576 29.1356 20.9287 27.7191 22.4456 26.7153C23.9848 25.6891 25.8139 25.1761 27.9331 25.1761C30.0523 25.1761 31.8703 25.6891 33.3872 26.7153C34.9041 27.7191 36.064 29.1356 36.8671 30.9648C37.6924 32.7716 38.1051 34.8796 38.1051 37.2888C38.1051 39.698 37.6924 41.8171 36.8671 43.6463C36.064 45.4532 34.9041 46.8697 33.3872 47.8958C31.8703 48.8996 30.0523 49.4015 27.9331 49.4015ZM27.9331 46.2228C29.2046 46.2228 30.3311 45.8659 31.3126 45.152C32.3164 44.4382 33.0972 43.4121 33.6549 42.0737C34.2125 40.7352 34.4914 39.1403 34.4914 37.2888C34.4914 35.4373 34.2125 33.8424 33.6549 32.5039C33.0972 31.1655 32.3164 30.1394 31.3126 29.4256C30.3311 28.7117 29.2046 28.3548 27.9331 28.3548C26.6393 28.3548 25.5016 28.7117 24.5201 29.4256C23.5386 30.1394 22.769 31.1655 22.2113 32.5039C21.6537 33.8424 21.3748 35.4373 21.3748 37.2888C21.3748 39.1403 21.6537 40.7352 22.2113 42.0737C22.769 43.4121 23.5386 44.4382 24.5201 45.152C25.5016 45.8659 26.6393 46.2228 27.9331 46.2228ZM47.8806 49.4015C46.3637 49.4015 44.9806 49.1338 43.7315 48.5985C42.5046 48.0408 41.5231 47.2043 40.7869 46.0889C40.0508 44.9736 39.6604 43.5794 39.6158 41.9064H43.1292C43.1738 43.1556 43.5976 44.2151 44.4007 45.0851C45.226 45.9328 46.386 46.3566 47.8806 46.3566C49.3082 46.3566 50.4013 45.9662 51.1597 45.1855C51.9181 44.3824 52.2974 43.3898 52.2974 42.2075C52.2974 40.7799 51.7843 39.7203 50.7582 39.0288C49.7544 38.3372 48.5163 37.9915 47.044 37.9915H45.3041V35.0469H47.0775C48.3936 35.0469 49.4532 34.7346 50.2563 34.11C51.0816 33.4855 51.4943 32.6043 51.4943 31.4667C51.4943 30.5075 51.1709 29.7267 50.5239 29.1244C49.8994 28.5221 49.0071 28.221 47.8471 28.221C46.6425 28.221 45.6945 28.5779 45.003 29.2917C44.3114 29.9832 43.9322 30.8532 43.8653 31.9017H40.3519C40.3966 30.5409 40.7312 29.3586 41.3558 28.3548C42.0027 27.351 42.8838 26.5703 43.9991 26.0126C45.1145 25.4549 46.3971 25.1761 47.8471 25.1761C49.4086 25.1761 50.7136 25.4549 51.762 26.0126C52.8327 26.548 53.6358 27.2841 54.1711 28.221C54.7288 29.1356 55.0077 30.1394 55.0077 31.2324C55.0077 32.4816 54.6619 33.5747 53.9704 34.5116C53.2789 35.4485 52.3531 36.0731 51.1932 36.3854C52.5316 36.6754 53.6358 37.3334 54.5058 38.3595C55.3757 39.3634 55.8107 40.6683 55.8107 42.2744C55.8107 43.5682 55.5096 44.7617 54.9073 45.8547C54.305 46.9254 53.4127 47.7843 52.2304 48.4312C51.0482 49.0781 49.5982 49.4015 47.8806 49.4015Z" fill="#0D253C"></path></svg>