<svg xmlns="http://www.w3.org/2000/svg" width="76" height="76" viewBox="0 0 76 76" fill="none"><circle cx="37.8" cy="37.8" r="37.8" fill="#D3E8FF"></circle><path d="M27.9103 49.4015C25.7911 49.4015 23.9619 48.8996 22.4227 47.8958C20.9059 46.8697 19.7347 45.4532 18.9094 43.6463C18.1063 41.8171 17.7048 39.698 17.7048 37.2888C17.7048 34.8796 18.1063 32.7716 18.9094 30.9648C19.7347 29.1356 20.9059 27.7191 22.4227 26.7153C23.9619 25.6891 25.7911 25.1761 27.9103 25.1761C30.0294 25.1761 31.8475 25.6891 33.3644 26.7153C34.8812 27.7191 36.0412 29.1356 36.8443 30.9648C37.6696 32.7716 38.0823 34.8796 38.0823 37.2888C38.0823 39.698 37.6696 41.8171 36.8443 43.6463C36.0412 45.4532 34.8812 46.8697 33.3644 47.8958C31.8475 48.8996 30.0294 49.4015 27.9103 49.4015ZM27.9103 46.2228C29.1818 46.2228 30.3083 45.8659 31.2898 45.152C32.2936 44.4382 33.0744 43.4121 33.632 42.0737C34.1897 40.7352 34.4686 39.1403 34.4686 37.2888C34.4686 35.4373 34.1897 33.8424 33.632 32.5039C33.0744 31.1655 32.2936 30.1394 31.2898 29.4256C30.3083 28.7117 29.1818 28.3548 27.9103 28.3548C26.6165 28.3548 25.4788 28.7117 24.4973 29.4256C23.5158 30.1394 22.7462 31.1655 22.1885 32.5039C21.6308 33.8424 21.352 35.4373 21.352 37.2888C21.352 39.1403 21.6308 40.7352 22.1885 42.0737C22.7462 43.4121 23.5158 44.4382 24.4973 45.152C25.4788 45.8659 26.6165 46.2228 27.9103 46.2228ZM51.0365 49V44.3155H39.2918V41.5048L50.4677 25.5776H54.5499V41.2371H57.829V44.3155H54.5499V49H51.0365ZM43.1398 41.2371H51.2373V29.4925L43.1398 41.2371Z" fill="#0D253C"></path></svg>