<svg xmlns="http://www.w3.org/2000/svg" width="101" height="101" viewBox="0 0 101 101" fill="none"><circle cx="50.2" cy="50.2" r="50.2" fill="#6782A7"></circle><g clip-path="url(#clip0_453_265)"><path d="M62.2065 63.1797C61.644 63.1797 61.1875 63.6362 61.1875 64.1987C61.1875 64.7612 61.644 65.2177 62.2065 65.2177C62.769 65.2177 63.2255 64.7612 63.2255 64.1987C63.2255 63.6362 62.769 63.1797 62.2065 63.1797Z" fill="white"></path><path d="M64.7183 59.8842L59.8749 58.2701L58.1361 54.7925C59.7025 53.1981 60.7901 51.0885 61.1569 48.8882L61.3737 47.5884H63.2283C64.9139 47.5884 66.2853 46.217 66.2853 44.5313V38.1115C66.2853 29.6832 59.4283 22.8262 51 22.8262C42.5501 22.8262 35.7147 29.6635 35.7147 38.1115V44.5313C35.7147 45.8597 36.5667 46.9925 37.7527 47.4131V48.6074C37.7527 50.2931 39.1241 51.6645 40.8098 51.6645H41.7047C42.1464 52.6241 42.7182 53.5129 43.414 54.3113C43.5583 54.4772 43.7088 54.638 43.863 54.7944L42.1251 58.2701L37.2816 59.8843C31.65 61.7622 27.5625 67.6907 27.5625 73.9811C27.5625 74.5439 28.0187 75.0001 28.5815 75.0001H73.4185C73.9812 75.0001 74.4375 74.5439 74.4375 73.9811C74.4375 67.6907 70.3501 61.7622 64.7183 59.8842ZM64.2473 44.5313C64.2473 45.0932 63.7901 45.5504 63.2283 45.5504H61.673C61.9321 43.5439 62.1047 41.4087 62.1741 39.3058C62.1761 39.2465 62.1778 39.1888 62.1796 39.1305H64.2473V44.5313ZM38.7717 45.5504C38.2099 45.5504 37.7527 45.0932 37.7527 44.5313V39.1305H39.8211C39.8245 39.2368 39.8281 39.3436 39.832 39.4511C39.8321 39.4548 39.8323 39.4583 39.8324 39.462C39.8324 39.4623 39.8324 39.4626 39.8324 39.4629C39.9038 41.5083 40.0742 43.588 40.3273 45.5503H38.7717V45.5504ZM40.8098 49.6264C40.2479 49.6264 39.7908 49.1693 39.7908 48.6074V47.5884H40.6262L40.843 48.8886C40.8844 49.1357 40.9352 49.3819 40.994 49.6264H40.8098ZM39.7925 37.0925H37.7914C38.3076 30.2629 44.0072 24.8642 51 24.8642C57.9618 24.8642 63.6864 30.2622 64.2085 37.0925H62.2076C62.1342 31.4647 57.5514 26.9023 51.9121 26.9023H50.0881C44.4489 26.9023 39.8658 31.4647 39.7925 37.0925ZM50.088 28.9403H51.912C56.4782 28.9403 60.1738 32.6751 60.1712 37.2362C60.1712 37.5568 60.1686 37.8361 60.1632 38.0901C60.1632 38.0934 60.1631 38.0967 60.1631 38.1001L58.8886 37.918C55.4259 37.4236 52.1565 35.7888 49.6825 33.3149C49.4913 33.1238 49.2322 33.0164 48.962 33.0164C46.2253 33.0164 43.6056 34.2633 41.8738 36.3698C42.3006 32.2204 45.8084 28.9403 50.088 28.9403ZM43.1067 49.6264C42.5965 47.9295 42.0128 42.9363 41.8838 39.7365L43.2553 37.9078C44.5149 36.2289 46.4746 35.1857 48.5592 35.0659C51.3021 37.6763 54.8506 39.4001 58.6004 39.9354L60.1006 40.1498C60.0003 42.2781 59.7954 44.4137 59.5018 46.3779C59.5017 46.3785 59.5016 46.3792 59.5015 46.3799C59.4082 47.0114 59.3346 47.4178 59.1467 48.5529C58.607 51.7898 56.1917 54.717 53.0033 55.5141C51.6911 55.8418 50.3087 55.8417 48.9972 55.5141C47.0064 55.0165 45.1809 53.6389 44.0028 51.6645H46.0802C46.5008 52.8505 47.6335 53.7025 48.962 53.7025H51C52.689 53.7025 54.0571 52.3346 54.0571 50.6455C54.0571 48.9598 52.6857 47.5884 51 47.5884H48.962C47.6039 47.5884 46.488 48.4656 46.0784 49.6264H43.1067ZM48.8763 57.5764C49.5752 57.7237 50.2878 57.799 51 57.799C51.5575 57.799 52.1151 57.7523 52.6664 57.6618L50.8658 59.5661L48.8763 57.5764ZM49.4648 61.0475L46.2327 64.4655C45.3429 62.7623 44.5783 60.9898 43.9512 59.1751L45.165 56.7476L49.4648 61.0475ZM56.6623 56.4023L58.0486 59.175C57.4204 60.9927 56.6557 62.7659 55.7668 64.4671L52.3074 61.0077L56.6623 56.4023ZM47.9429 50.6455C47.9429 50.0829 48.3993 49.6264 48.962 49.6264H51C51.5619 49.6264 52.019 50.0836 52.019 50.6455C52.019 51.2082 51.5626 51.6645 51 51.6645H48.962C48.4001 51.6645 47.9429 51.2074 47.9429 50.6455ZM29.6413 72.962C30.0451 67.9139 33.4048 63.3255 37.9262 61.8177L42.2156 60.3882C43.0015 62.5613 43.9751 64.6734 45.1161 66.6797C45.118 66.6831 45.1198 66.6866 45.1218 66.69L45.1219 66.6902C45.9555 68.1564 46.8939 69.5893 47.9111 70.9496L49.1647 72.962H29.6413ZM51 72.0537L49.618 69.835C49.6025 69.8101 49.586 69.786 49.5685 69.7625C48.7433 68.6618 47.9735 67.5106 47.2724 66.3323L50.9066 62.4891L54.7358 66.3184C54.0301 67.5053 53.2576 68.6613 52.4317 69.7623C52.3818 69.8289 52.4526 69.724 51 72.0537ZM52.8353 72.962L54.0888 70.9497C55.1105 69.5842 56.0556 68.1398 56.8976 66.6563C56.9027 66.6474 56.9075 66.6382 56.9126 66.6292C56.9132 66.6281 56.9138 66.6271 56.9144 66.626C58.0409 64.6389 59.0043 62.5451 59.7844 60.3882L64.0737 61.8177C68.5952 63.3255 71.9549 67.9139 72.3587 72.962H52.8353Z" fill="white"></path><path d="M69.3025 68.8371C68.6215 67.474 67.624 66.263 66.4177 65.335C65.9716 64.9917 65.3319 65.0752 64.9888 65.5213C64.6456 65.9674 64.729 66.6072 65.175 66.9504C66.1384 67.6915 66.9351 68.6589 67.4792 69.7479C67.7312 70.2522 68.3436 70.4552 68.8462 70.2041C69.3496 69.9526 69.5539 69.3406 69.3025 68.8371Z" fill="white"></path></g><defs><clipPath id="clip0_453_265"><rect width="48" height="52.1739" fill="white" transform="translate(27 22.8262)"></rect></clipPath></defs></svg>