<svg xmlns="http://www.w3.org/2000/svg" width="101" height="101" viewBox="0 0 101 101" fill="none"><circle cx="50.2" cy="50.2" r="50.2" fill="#6782A7"></circle><path d="M42 26H68.9531V63.9141H42V26Z" fill="#6782A7" stroke="white" stroke-width="2.69531" stroke-miterlimit="10" stroke-linecap="round" stroke-linejoin="round"></path><path d="M37 31H63.9531V68.9141H37V31Z" fill="#6782A7" stroke="white" stroke-width="2.69531" stroke-miterlimit="10" stroke-linecap="round" stroke-linejoin="round"></path><path d="M58.9531 37H32V74.9141H58.9531V37Z" fill="#6782A7"></path><path d="M37.387 45.1761H45.473H37.387Z" fill="#6782A7"></path><path d="M37.387 50.5667H53.5589H37.387Z" fill="#6782A7"></path><path d="M37.387 55.9574H53.5589H37.387Z" fill="#6782A7"></path><path d="M37.387 61.348H53.5589H37.387Z" fill="#6782A7"></path><path d="M48.1683 66.7386H53.5589H48.1683Z" fill="#6782A7"></path><path d="M37.387 45.1761H45.473M37.387 50.5667H53.5589M37.387 55.9574H53.5589M37.387 61.348H53.5589M48.1683 66.7386H53.5589M58.9531 37H32V74.9141H58.9531V37Z" stroke="white" stroke-width="2.69531" stroke-miterlimit="10" stroke-linecap="round" stroke-linejoin="round"></path></svg>