<svg xmlns="http://www.w3.org/2000/svg" width="101" height="101" viewBox="0 0 101 101" fill="none"><circle cx="50.2" cy="50.2" r="50.2" fill="#6782A7"></circle><g clip-path="url(#clip0_411_591)"><mask id="mask0_411_591" style="mask-type:luminance" maskUnits="userSpaceOnUse" x="31" y="32" width="38" height="37"><path d="M31.9922 32H68.9922V69H31.9922V32Z" fill="white"></path></mask><g mask="url(#mask0_411_591)"><path d="M50.5338 53.3034C50.5338 56.4431 47.9886 58.9883 44.8489 58.9883C41.7093 58.9883 39.1641 56.4431 39.1641 53.3034C39.1641 50.1637 41.7093 47.6185 44.8489 47.6185C47.9886 47.6185 50.5338 50.1637 50.5338 53.3034Z" stroke="white" stroke-width="2.4" stroke-miterlimit="10" stroke-linecap="round" stroke-linejoin="round"></path><path d="M36.2422 67.5544C36.2422 62.8234 40.0775 58.988 44.8086 58.988C49.5397 58.988 53.3751 62.8234 53.3751 67.5544H36.2422Z" stroke="white" stroke-width="2.4" stroke-miterlimit="10" stroke-linecap="round" stroke-linejoin="round"></path><path d="M39.1615 53.3424H36.3281C34.7317 53.3424 33.4375 52.0483 33.4375 50.4518V36.3359C33.4375 34.7394 34.7317 33.4453 36.3281 33.4453H64.6562C66.2527 33.4453 67.5469 34.7394 67.5469 36.3359V50.4518C67.5469 52.0483 66.2527 53.3424 64.6562 53.3424H61.862L56.1771 59.0273V53.3424H50.5313" stroke="white" stroke-width="2.4" stroke-miterlimit="10" stroke-linecap="round" stroke-linejoin="round"></path><path d="M39.125 39.1301H61.8646" stroke="white" stroke-width="2.4" stroke-miterlimit="10" stroke-linecap="round" stroke-linejoin="round"></path><path d="M61.862 44.8149H50.4922" stroke="white" stroke-width="2.4" stroke-miterlimit="10" stroke-linecap="round" stroke-linejoin="round"></path></g></g><defs><clipPath id="clip0_411_591"><rect width="37" height="37" fill="white" transform="translate(32 32)"></rect></clipPath></defs></svg>