<svg xmlns="http://www.w3.org/2000/svg" width="101" height="101" viewBox="0 0 101 101" fill="none"><circle cx="50.2" cy="50.2" r="50.2" fill="#6782A7"></circle><mask id="mask0_411_507" style="mask-type:luminance" maskUnits="userSpaceOnUse" x="27" y="26" width="48" height="48"><path d="M27 26.6642H74.3358V74H27V26.6642Z" fill="white"></path></mask><g mask="url(#mask0_411_507)"><path d="M71.1002 34.9852V30.8248C71.1002 29.2931 69.8584 28.0512 68.3266 28.0512H49.8361C48.3043 28.0512 47.0625 29.2931 47.0625 30.8248V44.6927C47.0625 46.2245 48.3043 47.4663 49.8361 47.4663H68.3266C69.8584 47.4663 71.1002 46.2245 71.1002 44.6927V40.5324" stroke="white" stroke-width="2.40235" stroke-miterlimit="10" stroke-linecap="round" stroke-linejoin="round"></path><path d="M72.947 34.9846H68.3244C66.7926 34.9846 65.5508 36.2264 65.5508 37.7582C65.5508 39.2899 66.7926 40.5317 68.3244 40.5317H72.947V34.9846Z" stroke="white" stroke-width="2.40235" stroke-miterlimit="10" stroke-linecap="round" stroke-linejoin="round"></path><path d="M52.4244 60.1317V55.9713C52.4244 54.4395 51.1826 53.1977 49.6509 53.1977H31.1603C29.6285 53.1977 28.3867 54.4395 28.3867 55.9713V69.8392C28.3867 71.371 29.6285 72.6128 31.1603 72.6128H49.6509C51.1826 72.6128 52.4244 71.371 52.4244 69.8392V65.6788" stroke="white" stroke-width="2.40235" stroke-miterlimit="10" stroke-linecap="round" stroke-linejoin="round"></path><path d="M54.2712 60.132H49.6486C48.1168 60.132 46.875 61.3739 46.875 62.9056C46.875 64.4374 48.1168 65.6792 49.6486 65.6792H54.2712V60.132Z" stroke="white" stroke-width="2.40235" stroke-miterlimit="10" stroke-linecap="round" stroke-linejoin="round"></path><path d="M59.9141 62.9053H65.4612V53.66" stroke="white" stroke-width="2.40235" stroke-miterlimit="10" stroke-linecap="round" stroke-linejoin="round"></path><path d="M41.4222 37.7581H35.875V47.0034" stroke="white" stroke-width="2.40235" stroke-miterlimit="10" stroke-linecap="round" stroke-linejoin="round"></path></g></svg>