<svg xmlns="http://www.w3.org/2000/svg" width="101" height="101" viewBox="0 0 101 101" fill="none"><circle cx="50.2" cy="50.2" r="50.2" fill="#6782A7"></circle><path d="M76.13 53.4592C75.9078 53.2444 75.6117 53.123 75.3027 53.12H74.5499V47.4612C74.5477 46.4534 74.1458 45.4875 73.4323 44.7756C72.7189 44.0637 71.7522 43.6639 70.7443 43.6639H59.1042C58.9309 40.11 57.6849 36.692 55.5302 33.8604L55.4558 33.7611C53.8299 31.6283 51.7389 29.8944 49.3419 28.6916C46.9449 27.4888 44.305 26.8487 41.6233 26.8201H41.0607C38.3746 26.8469 35.7302 27.4878 33.3298 28.6937C30.9295 29.8997 28.8367 31.6386 27.2117 33.7777L27.1538 33.8521C24.8022 36.9285 23.5288 40.6935 23.5302 44.5657C23.5271 44.5793 23.5271 44.5934 23.5302 44.607C23.5264 44.6234 23.5264 44.6404 23.5302 44.6567C23.5288 48.5225 24.7992 52.2814 27.1456 55.3537C27.1789 55.4072 27.2177 55.4571 27.2614 55.5026C28.7936 57.4812 30.7242 59.1159 32.9284 60.3009V69.1861C32.9295 69.6888 33.0297 70.1862 33.2233 70.6501C33.4169 71.1139 33.7001 71.535 34.0566 71.8893C34.4132 72.2436 34.8361 72.524 35.3012 72.7146C35.7663 72.9052 36.2644 73.0022 36.7671 73H70.7691C71.7792 72.9978 72.7471 72.595 73.4606 71.88C74.174 71.165 74.5747 70.1962 74.5747 69.1861V64.2223H75.3275C75.6384 64.2137 75.9334 64.0829 76.1486 63.8584C76.3638 63.6339 76.482 63.3337 76.4775 63.0227V54.303C76.4774 53.9869 76.3525 53.6837 76.13 53.4592ZM74.1031 55.486V61.8397H68.7174C68.1811 61.8398 67.6663 61.629 67.2841 61.2529C66.9018 60.8769 66.6827 60.3656 66.674 59.8294V57.5212C66.6762 56.9807 66.8924 56.463 67.2754 56.0816C67.6584 55.7002 68.1769 55.486 68.7174 55.486H74.1031ZM28.4941 53.211C27.0068 50.9959 26.1307 48.4274 25.9542 45.7653H31.4061C31.4617 47.7151 31.7083 49.6547 32.1424 51.5564C30.8941 52.034 29.6758 52.5865 28.4941 53.211ZM28.4941 36.0445C29.6914 36.5788 30.9177 37.0456 32.1673 37.4426C31.686 39.4166 31.4088 41.4347 31.34 43.4654H25.9542C26.1441 40.7944 27.0343 38.2205 28.5354 36.0031L28.4941 36.0445ZM54.1404 36.0031C55.6378 38.2168 56.5305 40.7836 56.7298 43.4488H51.2696C51.1926 41.4189 50.9155 39.4016 50.4423 37.4261C51.7009 37.0221 52.9356 36.547 54.1404 36.0031ZM42.5582 59.8294V52.2596C44.2881 52.3417 46.0033 52.6193 47.6709 53.0869C46.463 56.6029 44.6181 59.1179 42.5582 59.8294ZM42.5582 49.9018V45.7653H48.9284C48.8674 47.4549 48.6542 49.1356 48.2914 50.787C46.4185 50.2828 44.4959 49.9859 42.5582 49.9018ZM48.9284 43.4157H42.5582V38.8159C44.4591 38.7393 46.3483 38.4817 48.2004 38.0465C48.603 39.8125 48.833 41.6135 48.887 43.424L48.9284 43.4157ZM42.5582 36.4333V29.393C44.585 30.0714 46.372 32.4457 47.522 35.7549C45.8911 36.1299 44.2298 36.3569 42.5582 36.4333ZM40.1507 29.393V36.4333C38.479 36.3579 36.8176 36.1309 35.1869 35.7549C36.3451 32.4457 38.1238 30.0465 40.1507 29.393ZM40.1507 38.8159V43.424H33.7805C33.8481 41.6121 34.0919 39.8112 34.5085 38.0465C36.3605 38.4817 38.2498 38.7393 40.1507 38.8159ZM33.7805 45.7653H40.1507V49.9018C38.2148 49.9937 36.2948 50.2989 34.4258 50.8118C34.0627 49.1519 33.8468 47.4631 33.7805 45.7653ZM40.1507 52.2265V59.8294C38.0494 59.1179 36.2045 56.6029 35.0463 53.0951C36.7106 52.6241 38.4231 52.3438 40.1507 52.2596V52.2265ZM49.888 53.8149C50.8146 54.1706 51.7412 54.5677 52.6761 55.031C51.2049 56.6396 49.4085 57.9171 47.4061 58.7787C48.4793 57.2709 49.3162 55.6082 49.888 53.848V53.8149ZM54.1404 53.211C52.9701 52.5862 51.7628 52.0337 50.5251 51.5564C50.958 49.6543 51.2073 47.715 51.2696 45.7653H56.705C56.5227 48.4301 55.6378 50.9991 54.1404 53.211ZM52.6181 34.0838C51.675 34.4809 50.7402 34.8201 49.797 35.1179C49.2402 33.438 48.4342 31.8511 47.4061 30.4106C49.3829 31.2539 51.1591 32.5057 52.6181 34.0838ZM35.2448 30.4106C34.2167 31.8511 33.4108 33.438 32.8539 35.1179C31.9108 34.8201 30.976 34.4809 30.0411 34.0838C31.5035 32.5059 33.2823 31.2542 35.2614 30.4106H35.2448ZM29.9997 55.0641C30.9263 54.6008 31.8612 54.2368 32.7877 53.848C33.3493 55.6226 34.1869 57.2977 35.2696 58.8118L34.6492 58.5305C32.8936 57.6803 31.3157 56.504 29.9997 55.0641ZM72.1921 69.1861C72.1921 69.5665 72.0416 69.9314 71.7734 70.2011C71.5052 70.4708 71.1412 70.6235 70.7608 70.6256H36.7671C36.3867 70.6235 36.0227 70.4708 35.7545 70.2011C35.4863 69.9314 35.3358 69.5665 35.3358 69.1861V61.3681C37.257 62.0595 39.2837 62.4122 41.3255 62.4105H41.4248C44.1218 62.4074 46.7822 61.786 49.2016 60.5942C51.621 59.4024 53.735 57.672 55.3813 55.5357L55.4558 55.4447L55.5633 55.2958C57.6135 52.6139 58.8433 49.3957 59.1042 46.03H70.7691C71.148 46.0322 71.5108 46.1836 71.7787 46.4516C72.0467 46.7195 72.1982 47.0823 72.2003 47.4612V53.12H68.7174C67.5494 53.12 66.429 53.5834 65.6023 54.4085C64.7756 55.2337 64.3101 56.3532 64.3079 57.5212V59.8294C64.3079 60.9988 64.7725 62.1204 65.5994 62.9474C66.4264 63.7743 67.5479 64.2389 68.7174 64.2389H72.1673L72.1921 69.1861Z" fill="white"></path><path d="M69.6936 59.8294H69.9749C70.2887 59.8294 70.5896 59.7047 70.8114 59.4829C71.0333 59.261 71.1579 58.9601 71.1579 58.6463C71.1579 58.3326 71.0333 58.0317 70.8114 57.8098C70.5896 57.5879 70.2887 57.4633 69.9749 57.4633H69.6936C69.3799 57.4633 69.079 57.5879 68.8571 57.8098C68.6352 58.0317 68.5106 58.3326 68.5106 58.6463C68.5106 58.9601 68.6352 59.261 68.8571 59.4829C69.079 59.7047 69.3799 59.8294 69.6936 59.8294Z" fill="white"></path></svg>