<svg width="382" height="672" viewBox="0 0 382 672" fill="none" xmlns="http://www.w3.org/2000/svg">
<rect x="314.105" y="-0.000854492" width="632.844" height="397.787" rx="21.6975" transform="rotate(83.8794 314.105 -0.000854492)" fill="#223B58"/>
<g clip-path="url(#clip0_364_2390)">
<path fill-rule="evenodd" clip-rule="evenodd" d="M274.589 532.063L277.169 556.122L320.064 551.522L317.484 527.464L274.589 532.063Z" fill="#FF5F00"/>
<path fill-rule="evenodd" clip-rule="evenodd" d="M296.204 531.28C304.906 530.347 313.097 533.623 318.777 539.482C321.929 534.413 323.476 528.279 322.788 521.865C321.16 506.68 307.626 495.681 292.559 497.297C277.493 498.912 266.599 512.531 268.227 527.715C268.915 534.129 271.727 539.797 275.882 544.082C280.192 537.151 287.501 532.214 296.204 531.28Z" fill="#EB001B"/>
<path fill-rule="evenodd" clip-rule="evenodd" d="M285.102 587.211L286.161 587.098L286.131 586.819L285.369 586.577L286.063 586.178L286.033 585.899L284.974 586.013L284.995 586.209L285.794 586.123L285.137 586.498L285.159 586.702L285.882 586.929L285.081 587.015L285.102 587.211ZM284.913 585.446L285.791 585.352L285.83 585.709L286.009 585.69L285.911 584.781L285.732 584.8L285.771 585.157L284.892 585.251L284.913 585.446ZM302.099 586.257C287.033 587.872 273.499 576.873 271.871 561.689C271.183 555.275 272.729 549.14 275.881 544.071C281.562 549.931 289.753 553.206 298.455 552.273C307.157 551.34 314.467 546.402 318.777 539.471C322.931 543.756 325.744 549.424 326.432 555.838C328.06 571.022 317.166 584.641 302.099 586.257Z" fill="#F79E1B"/>
</g>
<path d="M252.47 65.5232C252.307 63.9986 252.49 62.6551 253.02 61.4926C253.564 60.3286 254.387 59.3893 255.489 58.6747C256.605 57.9585 257.933 57.518 259.472 57.3529C261.011 57.1879 262.402 57.337 263.644 57.8002C264.887 58.2634 265.897 59.0061 266.676 60.0282C267.455 61.0504 267.926 62.3237 268.09 63.8483C268.284 65.6605 267.99 67.1904 267.207 68.4382C266.44 69.6988 265.26 70.5601 263.665 71.022L263.339 67.9801C264.139 67.7052 264.736 67.2339 265.13 66.5661C265.54 65.9111 265.69 65.0802 265.582 64.0735C265.433 62.6784 264.841 61.6362 263.807 60.9469C262.773 60.2577 261.429 60.0017 259.775 60.1791C258.121 60.3565 256.862 60.8916 255.997 61.7844C255.147 62.6757 254.797 63.8189 254.947 65.214C255.055 66.2208 255.357 67.0031 255.853 67.5609C256.365 68.1315 257.02 68.4687 257.816 68.5723L258.142 71.6143C256.558 71.4932 255.265 70.8972 254.263 69.8263C253.262 68.7697 252.665 67.3354 252.47 65.5232ZM253.695 74.4983L264.395 73.3508L264.659 75.8102L262.68 76.2843C263.412 76.5986 264.015 77.0649 264.489 77.6833C264.978 78.3146 265.272 79.0833 265.369 79.9894L262.456 80.3017L262.373 79.525C262.308 78.9209 262.157 78.3916 261.919 77.9371C261.681 77.4825 261.318 77.1432 260.828 76.9193C260.34 76.7098 259.686 76.649 258.866 76.7369L253.991 77.2597L253.695 74.4983ZM254.89 88.0894C254.774 87.0107 254.902 86.0296 255.273 85.146C255.644 84.2625 256.221 83.5387 257.004 82.9746C257.787 82.4105 258.725 82.0699 259.818 81.9527C260.926 81.8339 261.936 81.9584 262.848 82.3261C263.762 82.7082 264.5 83.2837 265.063 84.0526C265.641 84.8343 265.99 85.7861 266.111 86.908C266.223 87.9579 266.093 88.9103 265.719 89.765C265.345 90.6198 264.779 91.3133 264.022 91.8455C263.28 92.3906 262.42 92.7156 261.442 92.8204C261.284 92.8374 261.118 92.848 260.944 92.8521C260.771 92.8706 260.59 92.8827 260.402 92.8883L259.53 84.755C258.702 84.902 258.078 85.2598 257.659 85.8285C257.242 86.4115 257.073 87.077 257.153 87.8249C257.213 88.3858 257.386 88.8401 257.67 89.1879C257.971 89.5484 258.332 89.8006 258.755 89.9444L259.056 92.749C258.358 92.6201 257.704 92.3485 257.092 91.934C256.496 91.5324 256.003 91.0033 255.612 90.3469C255.223 89.7048 254.983 88.9523 254.89 88.0894ZM263.867 87.1486C263.795 86.4726 263.536 85.8965 263.093 85.4204C262.663 84.9427 262.052 84.6736 261.26 84.6131L261.832 89.9418C262.532 89.8231 263.065 89.5041 263.431 88.9847C263.797 88.4654 263.943 87.8533 263.867 87.1486ZM256.243 100.703C256.135 99.6959 256.283 98.7707 256.687 97.9273C257.091 97.0838 257.693 96.3864 258.492 95.8352C259.291 95.284 260.23 94.9505 261.309 94.8348C262.388 94.7192 263.369 94.8467 264.252 95.2175C265.15 95.5868 265.879 96.1415 266.438 96.8816C267.012 97.6202 267.353 98.4929 267.461 99.4997C267.547 100.305 267.472 101.026 267.235 101.662C266.997 102.299 266.626 102.833 266.119 103.266L272.419 102.59L272.715 105.352L257.182 107.018L256.918 104.558L258.417 104.092C257.906 103.798 257.439 103.382 257.018 102.845C256.598 102.323 256.34 101.609 256.243 100.703ZM258.721 101.026C258.817 101.918 259.19 102.612 259.84 103.11C260.505 103.621 261.306 103.826 262.241 103.726C263.175 103.625 263.907 103.256 264.435 102.617C264.979 101.992 265.203 101.233 265.107 100.341C265.013 99.4639 264.64 98.7692 263.989 98.2572C263.338 97.7451 262.545 97.5392 261.61 97.6394C260.675 97.7397 259.936 98.1098 259.394 98.7499C258.851 99.39 258.627 100.149 258.721 101.026ZM270.005 109.993C269.951 109.489 270.057 109.056 270.324 108.693C270.592 108.344 270.956 108.145 271.416 108.096C271.876 108.046 272.267 108.164 272.589 108.45C272.926 108.748 273.122 109.149 273.176 109.653C273.23 110.156 273.123 110.582 272.855 110.931C272.603 111.292 272.246 111.498 271.786 111.547C271.326 111.597 270.927 111.472 270.59 111.174C270.254 110.89 270.059 110.496 270.005 109.993ZM257.495 109.937L268.195 108.79L268.492 111.551L257.791 112.699L257.495 109.937ZM258.611 120.349C258.491 119.227 258.668 118.299 259.142 117.564C259.616 116.83 260.551 116.388 261.946 116.238L266.606 115.738L266.409 113.905L268.717 113.657L268.914 115.491L271.818 115.507L272.079 117.945L269.21 118.252L269.52 121.143L267.212 121.391L266.902 118.5L262.22 119.002C261.702 119.057 261.354 119.204 261.176 119.441C261.014 119.691 260.962 120.09 261.021 120.636L261.164 121.974L258.813 122.226L258.611 120.349ZM260.106 136.734C259.943 135.209 260.126 133.866 260.656 132.703C261.201 131.539 262.024 130.6 263.125 129.885C264.241 129.169 265.569 128.728 267.108 128.563C268.647 128.398 270.038 128.547 271.28 129.011C272.523 129.474 273.534 130.217 274.312 131.239C275.091 132.261 275.562 133.534 275.726 135.059C275.92 136.871 275.626 138.401 274.843 139.649C274.076 140.909 272.896 141.771 271.301 142.232L270.975 139.191C271.775 138.916 272.372 138.444 272.766 137.777C273.176 137.122 273.327 136.291 273.219 135.284C273.069 133.889 272.477 132.847 271.443 132.157C270.409 131.468 269.065 131.212 267.411 131.39C265.757 131.567 264.498 132.102 263.633 132.995C262.783 133.886 262.433 135.029 262.583 136.424C262.691 137.431 262.993 138.213 263.489 138.771C264.001 139.342 264.656 139.679 265.452 139.783L265.779 142.825C264.194 142.704 262.901 142.108 261.899 141.037C260.898 139.98 260.301 138.546 260.106 136.734ZM261.467 149.426C261.369 148.505 261.432 147.735 261.656 147.114C261.895 146.492 262.243 146.011 262.701 145.671C263.16 145.331 263.683 145.129 264.273 145.066C265.266 144.959 266.113 145.261 266.814 145.972C267.516 146.682 267.95 147.814 268.117 149.367L268.408 152.086L268.667 152.058C269.401 151.979 269.918 151.713 270.218 151.259C270.519 150.804 270.636 150.268 270.569 149.65C270.509 149.089 270.32 148.614 270.002 148.227C269.698 147.837 269.282 147.62 268.754 147.575L268.465 144.878C269.249 144.867 269.953 145.053 270.576 145.437C271.201 145.836 271.702 146.379 272.082 147.065C272.475 147.751 272.72 148.539 272.815 149.431C272.979 150.955 272.726 152.197 272.058 153.156C271.39 154.115 270.358 154.67 268.963 154.819L262.383 155.525L262.131 153.173L263.829 152.729C263.22 152.475 262.698 152.08 262.262 151.544C261.828 151.024 261.563 150.317 261.467 149.426ZM263.692 149.82C263.777 150.611 264.101 151.194 264.665 151.57C265.231 151.961 265.901 152.173 266.675 152.206L266.423 149.854C266.345 149.121 266.152 148.611 265.844 148.323C265.552 148.035 265.211 147.911 264.823 147.953C264.406 147.998 264.099 148.191 263.903 148.532C263.707 148.873 263.636 149.302 263.692 149.82ZM262.666 158.16L273.366 157.013L273.63 159.472L271.652 159.946C272.384 160.26 272.986 160.727 273.46 161.345C273.95 161.976 274.243 162.745 274.34 163.651L271.428 163.963L271.344 163.187C271.28 162.583 271.128 162.053 270.89 161.599C270.653 161.144 270.289 160.805 269.799 160.581C269.311 160.372 268.657 160.311 267.838 160.399L262.962 160.921L262.666 158.16ZM263.831 171.471C263.723 170.464 263.871 169.539 264.276 168.695C264.68 167.852 265.282 167.154 266.081 166.603C266.88 166.052 267.819 165.719 268.898 165.603C269.976 165.487 270.957 165.615 271.841 165.986C272.739 166.355 273.468 166.909 274.027 167.65C274.601 168.388 274.942 169.261 275.05 170.268C275.136 171.073 275.061 171.794 274.823 172.43C274.586 173.067 274.214 173.601 273.708 174.034L280.007 173.358L280.304 176.12L264.77 177.786L264.507 175.326L266.006 174.86C265.494 174.566 265.028 174.15 264.607 173.613C264.187 173.091 263.929 172.377 263.831 171.471ZM266.31 171.794C266.406 172.686 266.778 173.38 267.428 173.878C268.094 174.389 268.894 174.594 269.829 174.494C270.764 174.393 271.495 174.024 272.023 173.385C272.567 172.76 272.792 172.001 272.696 171.109C272.602 170.232 272.229 169.537 271.578 169.025C270.926 168.513 270.133 168.307 269.198 168.407C268.264 168.508 267.525 168.878 266.983 169.518C266.44 170.158 266.216 170.917 266.31 171.794Z" fill="white"/>
<path d="M-24.8675 88.3455L-9.76584 86.7261L-9.46972 89.4875L-19.3445 97.7258L-8.7086 96.5853L-8.41248 99.3468L-23.5142 100.966L-23.8103 98.2047L-13.9571 89.9687L-24.5714 91.1069L-24.8675 88.3455ZM-10.6857 103.992C-10.7397 103.489 -10.6334 103.055 -10.3669 102.692C-10.0988 102.343 -9.73459 102.144 -9.27434 102.095C-8.8141 102.046 -8.42319 102.164 -8.10161 102.449C-7.7641 102.748 -7.56836 103.149 -7.51438 103.652C-7.4604 104.155 -7.56746 104.581 -7.83556 104.93C-8.08774 105.292 -8.44395 105.497 -8.90419 105.547C-9.36444 105.596 -9.76331 105.472 -10.1008 105.173C-10.4368 104.889 -10.6318 104.495 -10.6857 103.992ZM-23.1956 103.937L-12.495 102.789L-12.1989 105.551L-22.8995 106.698L-23.1956 103.937ZM-22.2871 114.851C-22.4043 113.758 -22.2703 112.769 -21.8852 111.884C-21.5 110.999 -20.9094 110.266 -20.1132 109.686C-19.3155 109.12 -18.3702 108.779 -17.2771 108.662C-16.184 108.545 -15.1878 108.678 -14.2883 109.061C-13.3873 109.459 -12.6547 110.05 -12.0907 110.833C-11.5266 111.617 -11.1859 112.555 -11.0687 113.648C-10.9222 115.014 -11.1584 116.203 -11.7773 117.215C-12.3818 118.226 -13.2958 118.928 -14.5193 119.321L-14.8316 116.408C-14.3293 116.209 -13.9574 115.878 -13.716 115.416C-13.4587 114.966 -13.3609 114.454 -13.4226 113.878C-13.5043 113.116 -13.8614 112.5 -14.4937 112.029C-15.1261 111.559 -15.9529 111.378 -16.974 111.488C-17.9952 111.597 -18.7649 111.949 -19.2831 112.543C-19.8014 113.137 -20.0196 113.815 -19.9379 114.577C-19.8762 115.152 -19.6792 115.633 -19.3468 116.019C-19.0129 116.42 -18.5721 116.664 -18.0245 116.751L-17.7122 119.663C-18.9481 119.534 -19.9829 119.041 -20.8167 118.185C-21.6505 117.329 -22.1406 116.217 -22.2871 114.851ZM-21.2032 122.517L-5.67009 120.851L-5.37397 123.612L-14.5428 124.596L-9.79934 127.928L-9.4477 131.207L-14.793 127.35L-20.072 133.066L-20.4421 129.614L-15.5352 124.702L-20.9071 125.278L-21.2032 122.517ZM-19.1657 143.959C-19.323 142.492 -19.0396 141.269 -18.3154 140.289C-17.5753 139.323 -16.443 138.757 -14.9184 138.594L-14.6223 141.355C-15.3255 141.445 -15.8687 141.671 -16.2519 142.032C-16.635 142.393 -16.7888 142.926 -16.7132 143.631C-16.6423 144.293 -16.3965 144.753 -15.9757 145.014C-15.5406 145.273 -14.9995 145.367 -14.3523 145.298L-3.60852 144.146L-3.3124 146.907L-14.0562 148.06C-15.5376 148.218 -16.7257 147.924 -17.6206 147.176C-18.4995 146.441 -19.0146 145.369 -19.1657 143.959ZM-17.9344 155.442C-18.0779 154.104 -17.7718 153.024 -17.0163 152.201C-16.2592 151.392 -15.0753 150.901 -13.4644 150.729L-7.42375 150.081L-7.12995 152.821L-12.9117 153.441C-13.8322 153.54 -14.5169 153.802 -14.9658 154.228C-15.4147 154.655 -15.596 155.271 -15.5096 156.076C-15.4279 156.838 -15.0875 157.435 -14.4885 157.865C-13.888 158.31 -13.0988 158.48 -12.1208 158.375L-6.59786 157.783L-6.30174 160.544L-17.0023 161.692L-17.2638 159.254L-15.4747 158.844C-16.143 158.581 -16.6981 158.153 -17.1399 157.56C-17.5801 156.982 -17.845 156.276 -17.9344 155.442ZM-16.6984 164.527L-1.16522 162.861L-0.869102 165.622L-16.4022 167.288L-16.6984 164.527ZM-3.57825 170.273C-3.63223 169.769 -3.52594 169.336 -3.25938 168.973C-2.99128 168.624 -2.62711 168.425 -2.16687 168.375C-1.70663 168.326 -1.31571 168.444 -0.994132 168.73C-0.656627 169.028 -0.460884 169.429 -0.406904 169.932C-0.352924 170.436 -0.459985 170.862 -0.728088 171.211C-0.980266 171.572 -1.33648 171.778 -1.79672 171.827C-2.25696 171.877 -2.65583 171.752 -2.99334 171.454C-3.3293 171.17 -3.52427 170.776 -3.57825 170.273ZM-16.0881 170.217L-5.3875 169.07L-5.09138 171.831L-15.792 172.979L-16.0881 170.217ZM-15.3462 179.578C-15.4449 178.658 -15.3821 177.887 -15.1576 177.267C-14.9188 176.644 -14.5704 176.163 -14.1122 175.823C-13.654 175.483 -13.1301 175.282 -12.5404 175.218C-11.548 175.112 -10.701 175.414 -9.99924 176.124C-9.2975 176.835 -8.86335 177.966 -8.69679 179.52L-8.40529 182.238L-8.14641 182.21C-7.4129 182.132 -6.89592 181.865 -6.59546 181.411C-6.29501 180.957 -6.17794 180.421 -6.24426 179.802C-6.30441 179.241 -6.49348 178.767 -6.81147 178.379C-7.11508 177.99 -7.53117 177.773 -8.05974 177.727L-8.34892 175.031C-7.56455 175.019 -6.86081 175.206 -6.2377 175.59C-5.61304 175.988 -5.11114 176.531 -4.73199 177.218C-4.33846 177.903 -4.09389 178.691 -3.99827 179.583C-3.83478 181.108 -4.08714 182.35 -4.75534 183.309C-5.42353 184.268 -6.45518 184.822 -7.85029 184.972L-14.4303 185.677L-14.6825 183.326L-12.9843 182.882C-13.5936 182.627 -14.116 182.232 -14.5516 181.697C-14.9857 181.176 -15.2506 180.47 -15.3462 179.578ZM-13.1217 179.972C-13.0369 180.763 -12.7125 181.347 -12.1484 181.723C-11.5828 182.113 -10.9128 182.325 -10.1381 182.358L-10.3903 180.007C-10.469 179.273 -10.6619 178.763 -10.9691 178.476C-11.2619 178.187 -11.6025 178.064 -11.9908 178.105C-12.4079 178.15 -12.7145 178.343 -12.9107 178.684C-13.1069 179.025 -13.1773 179.455 -13.1217 179.972ZM-14.1477 188.312L-3.44711 187.165L-3.18569 189.603L-4.97476 190.013C-4.30645 190.276 -3.75217 190.696 -3.3119 191.275C-2.8701 191.868 -2.60369 192.588 -2.5127 193.437C-2.37081 194.76 -2.67763 195.833 -3.43316 196.656C-4.18869 197.479 -5.37188 197.977 -6.98272 198.15L-13.0234 198.797L-13.3195 196.036L-7.53773 195.416C-6.61725 195.317 -5.93255 195.055 -5.48364 194.628C-5.03474 194.202 -4.8527 193.593 -4.93752 192.802C-5.02081 192.025 -5.36271 191.415 -5.96322 190.97C-6.5622 190.54 -7.35069 190.377 -8.3287 190.482L-13.8516 191.074L-14.1477 188.312Z" fill="white"/>
<path d="M26.3266 568.213C26.177 566.818 26.3726 565.59 26.9134 564.528C27.4686 563.464 28.2994 562.597 29.4058 561.926C30.5281 561.267 31.8659 560.854 33.4192 560.688C34.9581 560.523 36.3458 560.643 37.5822 561.049C38.8202 561.469 39.816 562.14 40.5696 563.063C41.3377 563.985 41.7965 565.143 41.9461 566.538C42.0957 567.933 41.8929 569.163 41.3377 570.226C40.7969 571.288 39.9654 572.148 38.843 572.807C37.7223 573.48 36.3924 573.899 34.8535 574.064C33.3002 574.23 31.9045 574.103 30.6666 573.683C29.4445 573.276 28.4495 572.612 27.6815 571.69C26.9278 570.767 26.4762 569.608 26.3266 568.213ZM28.8076 567.947C28.9295 569.083 29.5036 569.96 30.5299 570.577C31.5563 571.195 32.8965 571.415 34.5504 571.237C36.2044 571.06 37.4675 570.561 38.3396 569.74C39.2118 568.919 39.5869 567.94 39.4651 566.804C39.3417 565.654 38.7668 564.77 37.7405 564.152C36.7156 563.549 35.3762 563.337 33.7222 563.514C32.0682 563.691 30.8044 564.183 29.9307 564.99C29.0586 565.811 28.6842 566.796 28.8076 567.947ZM27.9135 583.012C27.7917 581.876 27.8977 580.897 28.2315 580.076C28.5653 579.254 29.0591 578.568 29.713 578.018C30.3668 577.468 31.1137 577.039 31.9535 576.73C32.7948 576.437 33.6686 576.241 34.5747 576.144C36.2574 575.963 37.7427 576.044 39.0305 576.386C40.3327 576.727 41.3696 577.306 42.1412 578.126C42.9272 578.943 43.388 579.985 43.5237 581.251C43.6348 582.286 43.5203 583.186 43.1803 583.95C42.8563 584.726 42.385 585.352 41.7666 585.825C41.1482 586.299 40.4617 586.613 39.7072 586.766L39.4319 584.199C40.0796 583.999 40.5601 583.663 40.8734 583.193C41.1867 582.723 41.3071 582.15 41.2346 581.474C41.1313 580.511 40.6021 579.782 39.6472 579.288C38.7066 578.792 37.3279 578.62 35.5111 578.771C36.1378 579.053 36.6823 579.518 37.1447 580.167C37.607 580.816 37.8837 581.565 37.9747 582.413C38.0641 583.247 37.9468 584.053 37.6228 584.829C37.2987 585.606 36.7939 586.257 36.1082 586.781C35.424 587.32 34.5857 587.643 33.5933 587.749C32.6872 587.846 31.8219 587.714 30.9975 587.351C30.1746 587.003 29.4826 586.452 28.9216 585.697C28.3622 584.957 28.0261 584.062 27.9135 583.012ZM30.2705 582.606C30.3568 583.412 30.6723 584.047 31.2168 584.513C31.7773 584.991 32.4386 585.189 33.2009 585.107C34.0063 585.021 34.625 584.685 35.057 584.101C35.4889 583.516 35.6609 582.814 35.573 581.994C35.5159 581.462 35.342 580.993 35.0512 580.588C34.7764 580.196 34.4245 579.899 33.9956 579.697C33.581 579.495 33.1293 579.419 32.6403 579.472C31.8636 579.555 31.2521 579.89 30.8058 580.476C30.361 581.076 30.1826 581.787 30.2705 582.606ZM26.4524 589.532L46.1883 592.871L46.4774 595.568L26.7392 592.207L26.4524 589.532ZM29.8855 598.96L31.8919 598.745C32.7529 599.583 33.6036 600.394 34.444 601.177C35.286 601.974 36.11 602.671 36.916 603.269C37.7235 603.88 38.4941 604.35 39.2276 604.679C39.9771 605.021 40.6826 605.156 41.3442 605.085C41.9627 605.019 42.4907 604.787 42.9283 604.391C43.3674 604.01 43.5454 603.431 43.4621 602.654C43.3773 601.863 43.0544 601.294 42.4934 600.947C41.9325 600.599 41.2852 600.465 40.5517 600.544L40.2649 597.869C41.3754 597.779 42.3221 597.924 43.105 598.306C43.9022 598.686 44.5215 599.238 44.9628 599.962C45.4185 600.684 45.6972 601.519 45.799 602.469C45.964 604.008 45.6678 605.247 44.9102 606.186C44.1685 607.139 43.1289 607.687 41.7913 607.83C40.9572 607.92 40.1237 607.813 39.291 607.509C38.4599 607.22 37.6444 606.806 36.8446 606.266C36.0448 605.726 35.2827 605.131 34.5584 604.481C33.8484 603.83 33.1839 603.196 32.5649 602.579L33.2659 609.115L31.0006 609.358L29.8855 598.96ZM31.3187 612.325L44.6796 616.653L43.8815 609.21L46.233 608.958L47.3365 619.249L45.3733 619.459L31.6264 615.194L31.3187 612.325Z" fill="white"/>
<path d="M102.963 77.8616L120.891 75.9392L119.618 72.3114L122.79 71.9713L125.803 77.18L126.077 79.7365L103.425 82.1656L102.963 77.8616ZM103.837 86.0077L106.846 85.685C108.138 86.9431 109.414 88.1592 110.675 89.3333C111.938 90.529 113.174 91.5749 114.383 92.4709C115.594 93.3884 116.75 94.0937 117.85 94.5867C118.974 95.099 120.032 95.302 121.025 95.1955C121.953 95.0961 122.745 94.7493 123.401 94.1551C124.06 93.5826 124.327 92.7138 124.202 91.5489C124.074 90.3623 123.59 89.5086 122.749 88.9878C121.907 88.4671 120.936 88.2657 119.836 88.3836L119.406 84.3709C121.072 84.2359 122.492 84.4546 123.666 85.027C124.862 85.5971 125.791 86.4249 126.453 87.5105C127.136 88.5937 127.554 89.8473 127.707 91.2712C127.955 93.5796 127.51 95.4384 126.374 96.8478C125.261 98.2764 123.702 99.0983 121.696 99.3134C120.444 99.4476 119.194 99.2871 117.945 98.8318C116.698 98.3981 115.475 97.7764 114.275 96.9667C113.076 96.1571 111.933 95.2649 110.846 94.2903C109.781 93.3134 108.784 92.362 107.856 91.4359L108.907 101.241L105.51 101.606L103.837 86.0077ZM106.285 112.497C106.125 111.009 106.239 109.633 106.628 108.369C107.037 107.103 107.753 106.044 108.775 105.193C109.796 104.341 111.135 103.805 112.792 103.584L113.229 107.661C112.131 107.801 111.242 108.256 110.561 109.027C109.903 109.818 109.643 110.85 109.78 112.123C109.909 113.331 110.343 114.223 111.081 114.798C111.819 115.374 112.696 115.607 113.709 115.498C114.896 115.371 115.745 114.843 116.257 113.916C116.792 113.007 116.988 111.884 116.845 110.547L116.664 108.864L120.062 108.5L120.246 110.215C120.364 111.315 120.721 112.204 121.318 112.882C121.914 113.56 122.719 113.845 123.733 113.736C124.575 113.646 125.213 113.294 125.649 112.679C126.109 112.085 126.287 111.302 126.183 110.331C126.07 109.274 125.668 108.477 124.977 107.94C124.289 107.424 123.489 107.183 122.576 107.215L122.142 103.17C124.244 103.032 125.972 103.578 127.326 104.807C128.682 106.059 129.477 107.774 129.71 109.953C129.877 111.506 129.736 112.841 129.289 113.959C128.865 115.095 128.229 115.982 127.381 116.618C126.535 117.276 125.562 117.664 124.462 117.782C123.189 117.919 122.072 117.678 121.111 117.061C120.174 116.463 119.499 115.663 119.086 114.66C118.964 115.96 118.449 117.063 117.542 117.968C116.657 118.87 115.47 119.401 113.981 119.561C112.73 119.695 111.554 119.515 110.454 119.022C109.354 118.529 108.428 117.734 107.678 116.636C106.929 115.56 106.465 114.18 106.285 112.497ZM109.056 134.678L113.263 134.227L112.066 123.062L115.366 122.708L131.649 131.699L132.153 136.391L117.299 137.984L117.618 140.961L114.026 141.346L113.707 138.369L109.5 138.82L109.056 134.678ZM116.133 127.111L116.883 134.101L127.173 132.997L116.133 127.111Z" fill="white"/>
<path d="M114.178 186.075C114 184.414 114.138 182.948 114.591 181.678C115.046 180.429 115.743 179.404 116.683 178.605C117.647 177.826 118.771 177.312 120.053 177.066L120.487 181.111C119.58 181.404 118.855 181.962 118.31 182.784C117.787 183.604 117.585 184.575 117.706 185.697C117.835 186.905 118.383 187.839 119.348 188.5C120.316 189.181 121.458 189.452 122.774 189.311C124.133 189.165 125.17 188.661 125.885 187.799C126.602 186.958 126.899 185.955 126.774 184.79C126.67 183.819 126.342 183.003 125.791 182.342C125.24 181.681 124.592 181.238 123.848 181.012L123.421 177.032L136.574 177.585L137.92 190.141L134.296 190.53L133.283 181.081L127.929 180.607C128.498 181.026 128.988 181.628 129.399 182.414C129.832 183.196 130.103 184.095 130.212 185.109C130.386 186.727 130.163 188.114 129.546 189.272C128.949 190.427 128.088 191.348 126.962 192.037C125.857 192.722 124.614 193.139 123.233 193.287C121.658 193.456 120.219 193.262 118.915 192.703C117.614 192.166 116.541 191.321 115.697 190.168C114.856 189.036 114.35 187.672 114.178 186.075ZM116.372 206.531C116.189 204.827 116.348 203.358 116.849 202.126C117.35 200.894 118.09 199.866 119.071 199.04C120.052 198.215 121.172 197.571 122.432 197.109C123.694 196.668 125.004 196.375 126.364 196.229C128.888 195.958 131.116 196.079 133.047 196.592C135.001 197.103 136.556 197.973 137.713 199.202C138.892 200.428 139.584 201.991 139.787 203.889C139.954 205.442 139.782 206.792 139.272 207.938C138.786 209.103 138.079 210.041 137.152 210.751C136.224 211.462 135.194 211.932 134.062 212.163L133.649 208.312C134.621 208.011 135.342 207.508 135.812 206.803C136.282 206.098 136.462 205.239 136.354 204.225C136.199 202.779 135.405 201.686 133.972 200.945C132.562 200.201 130.493 199.943 127.768 200.17C128.708 200.593 129.525 201.291 130.219 202.264C130.912 203.237 131.327 204.36 131.464 205.633C131.598 206.884 131.422 208.092 130.936 209.257C130.45 210.422 129.692 211.398 128.664 212.185C127.638 212.993 126.38 213.477 124.892 213.637C123.532 213.783 122.235 213.584 120.998 213.04C119.763 212.517 118.726 211.69 117.884 210.559C117.045 209.448 116.541 208.106 116.372 206.531ZM119.907 205.923C120.037 207.131 120.51 208.084 121.327 208.782C122.168 209.499 123.16 209.797 124.303 209.674C125.511 209.544 126.439 209.041 127.087 208.164C127.735 207.287 127.993 206.234 127.861 205.004C127.776 204.206 127.515 203.503 127.078 202.895C126.666 202.307 126.138 201.861 125.495 201.559C124.873 201.255 124.196 201.142 123.462 201.221C122.297 201.346 121.38 201.848 120.71 202.727C120.043 203.628 119.775 204.693 119.907 205.923ZM118.142 219.372L138.183 225.864L136.986 214.7L140.513 214.322L142.168 229.758L139.224 230.073L118.603 223.676L118.142 219.372ZM120.295 243.114C120.128 241.561 120.248 240.13 120.653 238.821C121.08 237.509 121.759 236.422 122.692 235.558C123.628 234.715 124.764 234.223 126.102 234.079C127.482 233.931 128.729 234.158 129.841 234.758C130.955 235.381 131.802 236.261 132.382 237.399C132.724 236.315 133.284 235.426 134.06 234.732C134.858 234.035 135.786 233.63 136.843 233.517C137.922 233.401 138.946 233.586 139.914 234.071C140.904 234.554 141.741 235.337 142.425 236.42C143.11 237.525 143.544 238.919 143.724 240.602C143.904 242.285 143.776 243.728 143.337 244.931C142.899 246.135 142.247 247.078 141.382 247.76C140.538 248.439 139.577 248.837 138.498 248.953C137.463 249.064 136.469 248.854 135.518 248.323C134.59 247.811 133.856 247.072 133.316 246.104C132.992 247.361 132.351 248.401 131.392 249.224C130.433 250.047 129.263 250.532 127.882 250.68C126.544 250.824 125.329 250.583 124.237 249.958C123.144 249.333 122.249 248.415 121.552 247.202C120.878 246.009 120.459 244.646 120.295 243.114ZM134.081 241.636C134.201 242.758 134.587 243.611 135.239 244.196C135.891 244.781 136.67 245.024 137.576 244.927C138.568 244.821 139.31 244.414 139.802 243.707C140.296 243.021 140.481 242.106 140.359 240.963C140.234 239.798 139.857 238.933 139.229 238.367C138.601 237.802 137.791 237.572 136.799 237.678C135.871 237.778 135.149 238.172 134.634 238.86C134.142 239.567 133.958 240.493 134.081 241.636ZM123.757 242.743C123.906 244.124 124.352 245.134 125.097 245.774C125.864 246.412 126.765 246.676 127.801 246.565C128.944 246.442 129.799 245.968 130.365 245.144C130.934 244.341 131.147 243.282 131.006 241.966C130.865 240.65 130.429 239.638 129.699 238.931C128.971 238.245 128.035 237.964 126.891 238.086C125.856 238.197 125.031 238.646 124.417 239.432C123.827 240.237 123.607 241.341 123.757 242.743Z" fill="white"/>
<path d="M125.309 289.92C125.14 288.345 125.3 286.985 125.788 285.842C126.298 284.696 127.017 283.768 127.944 283.058C128.872 282.347 129.902 281.877 131.033 281.646L131.446 285.497C130.473 285.776 129.751 286.268 129.281 286.973C128.813 287.7 128.634 288.57 128.742 289.584C128.897 291.03 129.68 292.124 131.091 292.867C132.524 293.608 134.602 293.866 137.328 293.639C136.388 293.216 135.57 292.507 134.874 291.512C134.18 290.539 133.766 289.427 133.632 288.176C133.498 286.925 133.674 285.716 134.16 284.551C134.646 283.386 135.402 282.4 136.429 281.591C137.455 280.783 138.712 280.299 140.201 280.139C141.56 279.994 142.858 280.193 144.095 280.737C145.331 281.28 146.369 282.107 147.208 283.218C148.048 284.328 148.553 285.681 148.724 287.278C148.907 288.982 148.748 290.45 148.247 291.682C147.746 292.914 147.004 293.932 146.021 294.736C145.041 295.561 143.919 296.194 142.657 296.635C141.397 297.098 140.088 297.402 138.729 297.547C136.205 297.818 133.966 297.698 132.013 297.187C130.083 296.696 128.528 295.826 127.347 294.578C126.189 293.349 125.51 291.796 125.309 289.92ZM137.231 288.772C137.317 289.57 137.567 290.274 137.982 290.885C138.418 291.492 138.947 291.949 139.569 292.253C140.212 292.555 140.9 292.667 141.634 292.588C142.799 292.463 143.715 291.95 144.382 291.049C145.052 290.17 145.32 289.116 145.189 287.886C145.059 286.678 144.574 285.715 143.733 284.998C142.914 284.278 141.933 283.98 140.789 284.102C139.581 284.232 138.653 284.735 138.005 285.612C137.357 286.489 137.099 287.542 137.231 288.772ZM127.3 304.829L145.228 302.906L143.955 299.278L147.127 298.938L150.14 304.147L150.414 306.703L127.762 309.133L127.3 304.829ZM128.84 322.854C128.616 320.761 128.909 318.919 129.72 317.326C130.553 315.731 131.799 314.43 133.459 313.423C135.142 312.435 137.149 311.816 139.479 311.566C141.788 311.318 143.869 311.499 145.724 312.107C147.581 312.737 149.074 313.745 150.205 315.129C151.357 316.511 152.045 318.249 152.269 320.342C152.494 322.434 152.19 324.278 151.357 325.873C150.546 327.466 149.298 328.756 147.615 329.744C145.934 330.753 143.939 331.382 141.631 331.63C139.301 331.879 137.207 331.689 135.35 331.059C133.517 330.448 132.025 329.452 130.873 328.07C129.742 326.685 129.065 324.947 128.84 322.854ZM132.562 322.455C132.745 324.159 133.606 325.474 135.145 326.4C136.685 327.326 138.695 327.656 141.176 327.39C143.657 327.124 145.552 326.376 146.86 325.144C148.168 323.913 148.731 322.445 148.548 320.741C148.363 319.015 147.501 317.689 145.961 316.763C144.424 315.858 142.415 315.539 139.934 315.805C137.453 316.071 135.557 316.809 134.246 318.019C132.938 319.25 132.377 320.729 132.562 322.455ZM130.96 338.959L148.888 337.037L147.615 333.409L150.786 333.069L153.8 338.277L154.074 340.834L131.422 343.263L130.96 338.959Z" fill="white"/>
<path d="M135.741 383.506L153.669 381.584L152.396 377.956L155.567 377.616L158.581 382.825L158.855 385.381L136.202 387.81L135.741 383.506ZM136.937 394.662L154.865 392.739L153.592 389.112L156.763 388.771L159.777 393.98L160.051 396.537L137.398 398.966L136.937 394.662ZM137.81 402.808L140.82 402.485C142.112 403.743 143.388 404.959 144.648 406.133C145.911 407.329 147.147 408.375 148.356 409.271C149.567 410.189 150.723 410.894 151.824 411.387C152.948 411.899 154.006 412.102 154.998 411.996C155.926 411.896 156.718 411.549 157.375 410.955C158.033 410.383 158.3 409.514 158.175 408.349C158.048 407.162 157.564 406.309 156.722 405.788C155.881 405.267 154.91 405.066 153.81 405.184L153.379 401.171C155.045 401.036 156.465 401.255 157.64 401.827C158.835 402.397 159.764 403.225 160.426 404.311C161.11 405.394 161.528 406.647 161.681 408.071C161.928 410.38 161.484 412.239 160.347 413.648C159.235 415.077 157.676 415.898 155.669 416.114C154.418 416.248 153.168 416.087 151.919 415.632C150.672 415.198 149.449 414.577 148.249 413.767C147.049 412.957 145.906 412.065 144.82 411.09C143.755 410.114 142.758 409.162 141.83 408.236L142.881 418.041L139.483 418.406L137.81 402.808ZM140.116 424.305L158.044 422.382L156.771 418.754L159.942 418.414L162.956 423.623L163.23 426.18L140.577 428.609L140.116 424.305Z" fill="white"/>
<defs>
<clipPath id="clip0_364_2390">
<rect width="90.4062" height="54.9528" fill="white" transform="translate(319.848 494.428) rotate(83.8794)"/>
</clipPath>
</defs>
</svg>
