<svg xmlns="http://www.w3.org/2000/svg" width="41" height="42" viewBox="0 0 41 42" fill="none"><circle cx="20.25" cy="20.8501" r="20.25" fill="#D3E8FF"></circle><path fill-rule="evenodd" clip-rule="evenodd" d="M26.7059 16.1965C26.8955 16.3863 27.002 16.6436 27.002 16.9119C27.002 17.1802 26.8955 17.4375 26.7059 17.6274L18.4755 25.8577C18.3805 25.9526 18.2676 26.0277 18.1433 26.0786C18.0189 26.1294 17.8858 26.155 17.7515 26.1539C17.6172 26.1527 17.4844 26.1249 17.361 26.072C17.2376 26.019 17.1259 25.9421 17.0325 25.8456L13.7887 22.4924C13.6954 22.397 13.6219 22.2842 13.5723 22.1603C13.5228 22.0364 13.4983 21.9039 13.5001 21.7705C13.5019 21.6371 13.5301 21.5054 13.583 21.3829C13.636 21.2604 13.7126 21.1496 13.8084 21.0569C13.9043 20.9641 14.0176 20.8912 14.1418 20.8423C14.2659 20.7935 14.3985 20.7697 14.5319 20.7722C14.6653 20.7748 14.7969 20.8037 14.919 20.8573C15.0412 20.9109 15.1516 20.9881 15.2439 21.0845L17.7722 23.6979L25.275 16.1965C25.4648 16.0069 25.7221 15.9004 25.9904 15.9004C26.2587 15.9004 26.516 16.0069 26.7059 16.1965Z" fill="#0F2A44"></path></svg>