<svg xmlns="http://www.w3.org/2000/svg" width="146" height="147" viewBox="0 0 146 147" fill="none"><g clip-path="url(#clip0_682_330)"><mask id="mask0_682_330" style="mask-type:luminance" maskUnits="userSpaceOnUse" x="0" y="0" width="146" height="147"><path d="M0 0.499527H146V146.5H0V0.499527Z" fill="white"></path></mask><g mask="url(#mask0_682_330)"><path d="M99.0763 46.3115C90.549 41.3162 86.3458 36.8221 78.0692 39.1903C64.9831 44.1047 59.5677 47.0307 46.9102 46.1419V41.1465C46.9102 26.7991 58.6463 15.0627 72.9931 15.0627C87.3402 15.0627 99.0763 26.7991 99.0763 41.1465V46.3115Z" stroke="#88B7D8" stroke-width="5.74533" stroke-miterlimit="10" stroke-linecap="round" stroke-linejoin="round"></path><path d="M35.6758 45.5366V40.6786C35.6758 20.1234 52.4472 3.3514 72.9939 3.3514C93.5485 3.3514 110.32 20.1234 110.32 40.6786V45.6982" stroke="#88B7D8" stroke-width="5.74533" stroke-miterlimit="10" stroke-linecap="round" stroke-linejoin="round"></path><path d="M46.9102 46.1427V57.176C46.9102 71.5233 58.6463 83.2598 72.9934 83.2598C87.3402 83.2598 99.0763 71.5233 99.0763 57.176V46.1427" stroke="#88B7D8" stroke-width="5.74533" stroke-miterlimit="10" stroke-linecap="round" stroke-linejoin="round"></path><path d="M28.6027 143.647H20.1484V121.387C20.4878 100.613 45.8678 96.8225 60.522 91.9809V80.0585M85.4652 80.0585V91.9809C100.119 96.8225 125.499 100.613 125.839 121.387V143.647H54.2092" stroke="#88B7D8" stroke-width="5.74533" stroke-miterlimit="10" stroke-linecap="round" stroke-linejoin="round"></path><path d="M85.4721 91.9815L57.6109 110.774L49.6328 95.2308" stroke="#88B7D8" stroke-width="5.74533" stroke-miterlimit="10" stroke-linecap="round" stroke-linejoin="round"></path><path d="M46.9195 42.2624H42.3203C38.2063 42.2624 34.8438 45.625 34.8438 49.7392V52.7542C34.8438 56.8684 38.2063 60.2393 42.3203 60.2393H47.1055" stroke="#88B7D8" stroke-width="5.74533" stroke-miterlimit="10" stroke-linecap="round" stroke-linejoin="round"></path><path d="M99.0842 42.2624H103.683C107.797 42.2624 111.16 45.625 111.16 49.7392V52.7542C111.16 56.8684 107.797 60.2393 103.683 60.2393H98.9062" stroke="#88B7D8" stroke-width="5.74533" stroke-miterlimit="10" stroke-linecap="round" stroke-linejoin="round"></path><path d="M73 71.6685H105.169C108.007 71.6685 110.326 69.3487 110.326 66.5117V56.1813" stroke="#88B7D8" stroke-width="5.74533" stroke-miterlimit="10" stroke-linecap="round" stroke-linejoin="round"></path><path d="M78.1488 120.926L81.9961 106.465M64.0039 106.465L67.8515 120.926" stroke="#88B7D8" stroke-width="5.74533" stroke-miterlimit="10" stroke-linecap="round" stroke-linejoin="round"></path><path d="M62.6719 143.647L67.8532 120.926H78.1504L83.3397 143.647" stroke="#88B7D8" stroke-width="5.74533" stroke-miterlimit="10" stroke-linecap="round" stroke-linejoin="round"></path><path d="M60.5234 91.9815L88.3926 110.774L96.3627 95.2308" stroke="#88B7D8" stroke-width="5.74533" stroke-miterlimit="10" stroke-linecap="round" stroke-linejoin="round"></path><path d="M97.3555 129.389H111.726" stroke="#88B7D8" stroke-width="5.74533" stroke-miterlimit="10" stroke-linecap="round" stroke-linejoin="round"></path><path d="M41.4211 143.647H41.4141" stroke="#88B7D8" stroke-width="5.74533" stroke-miterlimit="10" stroke-linecap="round" stroke-linejoin="round"></path></g></g><defs><clipPath id="clip0_682_330"><rect width="146" height="146" fill="white" transform="translate(0 0.5)"></rect></clipPath></defs></svg>