<svg xmlns="http://www.w3.org/2000/svg" width="220" height="55" viewBox="0 0 220 55" fill="none"><path d="M56.8818 26.1179H62.6691C64.2507 26.1179 65.6166 26.3336 66.8028 26.7649C69.1572 27.6276 70.5052 29.4609 70.5052 32.4983V32.5522C70.5052 34.0619 70.1997 35.284 69.5706 36.2186C68.3125 38.1058 66.012 38.8966 62.8847 38.8966H56.8818V26.1179ZM59.0745 28.059V36.9375H62.7769C63.9811 36.9375 64.9516 36.8117 65.7784 36.5242C67.4139 35.967 68.2406 34.7269 68.2406 32.5162V32.4803C68.2406 29.2272 66.2456 28.059 62.5792 28.059H59.0745Z" fill="white"></path><path d="M81.9943 36.0749C81.7068 36.668 81.2934 37.1892 80.7362 37.6744C79.604 38.645 77.9684 39.2381 75.7218 39.2381C72.8102 39.2381 71.4623 38.2316 71.4623 36.3804V36.3624C71.4623 35.2481 71.9475 34.4393 72.9181 33.9181C73.2595 33.7204 73.637 33.5587 74.0683 33.4328C74.931 33.1633 76.243 32.9835 78.4357 32.8577C79.3344 32.8038 80.0173 32.7319 80.5206 32.66C81.527 32.5162 81.9045 32.2287 81.9045 31.6535V31.6356C81.9045 31.348 81.7966 31.0784 81.581 30.8088C81.1676 30.2876 80.1971 29.8922 78.3818 29.8922C75.3444 29.8922 74.2121 30.6471 73.9964 32.2826H71.6959C72.0374 29.4968 74.2121 28.2387 78.2021 28.2387C82.1741 28.2387 84.0432 29.389 84.0432 32.1388V38.8966H82.21L81.9943 36.0749ZM76.3329 37.6205C78.0403 37.6205 79.4242 37.1532 80.4127 36.3984C81.4012 35.6435 81.9404 34.7269 81.9404 33.8282V33.3969C81.5989 33.8462 80.7362 34.1158 78.6334 34.2416C76.279 34.3674 75.1826 34.5651 74.5536 34.9785C74.0683 35.2661 73.8347 35.6794 73.8347 36.1827V36.2007C73.8347 37.0634 74.4997 37.6205 76.3329 37.6205Z" fill="white"></path><path d="M94.0225 38.8966H92.0635C90.8773 38.8966 89.9607 38.7348 89.2777 38.4473C87.9118 37.8182 87.3905 36.4523 87.3905 34.0259V30.5392H84.6048V28.7419H85.1799C85.6651 28.724 86.1684 28.706 86.402 28.688C87.2288 28.5982 87.3726 28.4184 87.5163 27.7355C87.6422 27.1783 87.6601 26.4055 87.6601 25.7764H89.5113V28.6341H94.0225V30.5392H89.5113V33.6845C89.5113 34.6191 89.6012 35.302 89.7629 35.7873C90.1224 36.7039 90.9492 36.9375 92.6027 36.9375H94.0225V38.8966Z" fill="white"></path><path d="M105.489 36.0749C105.201 36.668 104.788 37.1892 104.231 37.6744C103.099 38.645 101.463 39.2381 99.2164 39.2381C96.3048 39.2381 94.9568 38.2316 94.9568 36.3804V36.3624C94.9568 35.2481 95.4421 34.4393 96.4126 33.9181C96.7541 33.7204 97.1315 33.5587 97.5629 33.4328C98.4256 33.1633 99.7376 32.9835 101.93 32.8577C102.829 32.8038 103.512 32.7319 104.015 32.66C105.022 32.5162 105.399 32.2287 105.399 31.6535V31.6356C105.399 31.348 105.291 31.0784 105.076 30.8088C104.662 30.2876 103.692 29.8922 101.876 29.8922C98.839 29.8922 97.7067 30.6471 97.491 32.2826H95.1905C95.5319 29.4968 97.7067 28.2387 101.697 28.2387C105.669 28.2387 107.538 29.389 107.538 32.1388V38.8966H105.705L105.489 36.0749ZM99.8274 37.6205C101.535 37.6205 102.919 37.1532 103.907 36.3984C104.896 35.6435 105.435 34.7269 105.435 33.8282V33.3969C105.093 33.8462 104.231 34.1158 102.128 34.2416C99.7735 34.3674 98.6772 34.5651 98.0481 34.9785C97.5629 35.2661 97.3292 35.6794 97.3292 36.1827V36.2007C97.3292 37.0634 97.9942 37.6205 99.8274 37.6205Z" fill="white"></path><path d="M111.996 34.008V38.8966H109.803V26.1179H121.522V28.0949H111.996V32.031H121.108V34.008H111.996Z" fill="white"></path><path d="M129 39.2381C124.309 39.2381 122.26 37.2251 122.26 33.8103C122.26 32.6241 122.548 31.6356 123.123 30.8088C124.309 29.1194 126.394 28.2387 129.072 28.2387C130.438 28.2387 131.606 28.4544 132.649 28.8857C134.716 29.7484 135.92 31.4199 135.92 33.8103C135.92 37.1532 133.655 39.2381 129 39.2381ZM129.054 37.3689C132.146 37.3689 133.637 36.2007 133.637 33.8103C133.637 31.348 131.966 30.054 129.108 30.054C126.322 30.054 124.543 31.2761 124.543 33.8103C124.543 36.2007 126.053 37.3689 129.054 37.3689Z" fill="white"></path><path d="M137.47 38.8966V28.6341H139.411L139.681 31.8333C140.256 29.8383 141.73 28.5622 144.372 28.5622H145.486V30.7549H144.3C143.15 30.7549 142.251 30.9166 141.568 31.2581C140.238 31.9052 139.735 33.2531 139.735 35.4458V38.8966H137.47Z" fill="white"></path><path d="M159.038 35.985C157.923 38.3933 155.641 39.2381 152.37 39.2381C150.806 39.2381 149.566 39.0224 148.578 38.591C146.601 37.6924 145.72 36.0928 145.72 33.9001C145.72 32.7858 146.008 31.8333 146.529 30.9706C147.607 29.2631 149.692 28.2387 152.55 28.2387C153.952 28.2387 155.138 28.4544 156.144 28.9037C158.139 29.8023 159.218 31.4199 159.218 33.6845V34.5831H147.841C148.128 36.5062 149.62 37.4767 152.55 37.4767C154.742 37.4767 155.929 36.9915 156.558 35.985H159.038ZM152.604 29.9821C149.926 29.9821 148.254 30.9885 147.877 32.9476H157.025C156.737 30.9526 155.281 29.9821 152.604 29.9821Z" fill="white"></path><path d="M162.931 38.8966H160.666V28.6341H162.625L162.823 31.2222C163.614 29.389 165.357 28.2387 167.837 28.2387C169.024 28.2387 169.976 28.4544 170.767 28.8857C172.349 29.7484 173.175 31.348 173.175 33.4149V38.8966H170.929V33.9001C170.929 33.1273 170.821 32.4443 170.551 31.8692C170.066 30.7189 169.006 30.054 167.154 30.054C164.405 30.054 162.931 31.5816 162.931 34.3674V38.8966Z" fill="white"></path><path d="M180.982 39.2381C177.136 39.2381 174.709 38.1417 174.152 35.4278H176.704C177.136 37.0454 178.663 37.4767 181.09 37.4767C182.024 37.4767 182.743 37.4048 183.264 37.2611C184.325 36.9735 184.72 36.4703 184.72 35.8412C184.72 35.5357 184.594 35.2661 184.361 35.1043C183.876 34.7449 182.725 34.5831 180.317 34.5112C178.951 34.4573 177.873 34.3495 177.028 34.1518C175.338 33.7384 174.62 32.9476 174.62 31.6176C174.62 29.6586 176.435 28.2387 180.137 28.2387C183.876 28.2387 186.014 29.3171 186.787 31.8153H184.379C183.929 30.3954 182.42 29.8922 180.137 29.8922C179.292 29.8922 178.645 29.9641 178.142 30.1079C177.172 30.3954 176.794 30.8807 176.794 31.4558C176.794 31.7614 176.902 31.995 177.118 32.1927C177.549 32.5522 178.699 32.7139 181.054 32.8038C182.546 32.8577 183.696 32.9835 184.559 33.1992C186.266 33.6126 186.931 34.3854 186.931 35.8053C186.931 36.4523 186.715 37.0454 186.284 37.5486C185.439 38.591 183.696 39.2381 180.982 39.2381Z" fill="white"></path><path d="M189.596 26.9087C188.535 26.9087 188.104 26.5133 188.104 25.4709C188.104 24.4285 188.607 24.051 189.578 24.051C190.566 24.051 191.07 24.4285 191.07 25.4709C191.07 26.4414 190.584 26.9087 189.596 26.9087ZM188.392 38.8966V28.6341H190.692V38.8966H188.392Z" fill="white"></path><path d="M205.787 34.5292C205.41 37.5127 203.055 39.2381 198.993 39.2381C194.249 39.2381 192.218 37.2251 192.218 33.8103C192.218 32.6241 192.505 31.6356 193.098 30.8088C194.249 29.1194 196.369 28.2387 199.047 28.2387C202.929 28.2387 205.338 29.8742 205.787 32.8937H203.379C203.001 30.9885 201.528 30.054 199.065 30.054C196.279 30.054 194.5 31.2761 194.5 33.8103C194.5 36.2007 196.01 37.3689 199.065 37.3689C201.617 37.3689 202.983 36.4523 203.397 34.5292H205.787Z" fill="white"></path><path d="M213.301 39.2381C209.455 39.2381 207.029 38.1417 206.472 35.4278H209.024C209.455 37.0454 210.983 37.4767 213.409 37.4767C214.344 37.4767 215.063 37.4048 215.584 37.2611C216.644 36.9735 217.04 36.4703 217.04 35.8412C217.04 35.5357 216.914 35.2661 216.68 35.1043C216.195 34.7449 215.045 34.5831 212.636 34.5112C211.27 34.4573 210.192 34.3495 209.347 34.1518C207.658 33.7384 206.939 32.9476 206.939 31.6176C206.939 29.6586 208.754 28.2387 212.457 28.2387C216.195 28.2387 218.334 29.3171 219.107 31.8153H216.698C216.249 30.3954 214.739 29.8922 212.457 29.8922C211.612 29.8922 210.965 29.9641 210.462 30.1079C209.491 30.3954 209.114 30.8807 209.114 31.4558C209.114 31.7614 209.222 31.995 209.437 32.1927C209.869 32.5522 211.019 32.7139 213.373 32.8038C214.865 32.8577 216.015 32.9835 216.878 33.1992C218.585 33.6126 219.25 34.3854 219.25 35.8053C219.25 36.4523 219.035 37.0454 218.603 37.5486C217.759 38.591 216.015 39.2381 213.301 39.2381Z" fill="white"></path><path d="M219.207 28.608C219.051 28.608 218.911 28.5735 218.789 28.5045C218.67 28.4354 218.575 28.3398 218.506 28.2177C218.44 28.0955 218.407 27.9574 218.407 27.8034C218.407 27.6494 218.44 27.5113 218.506 27.3891C218.575 27.267 218.67 27.1714 218.789 27.1023C218.911 27.0306 219.051 26.9948 219.207 26.9948C219.361 26.9948 219.498 27.0306 219.618 27.1023C219.737 27.1714 219.83 27.267 219.896 27.3891C219.965 27.5113 220 27.6494 220 27.8034C220 27.9574 219.965 28.0955 219.896 28.2177C219.83 28.3398 219.737 28.4354 219.618 28.5045C219.498 28.5735 219.361 28.608 219.207 28.608ZM219.207 28.4646C219.399 28.4646 219.553 28.4036 219.669 28.2814C219.786 28.1566 219.845 27.9972 219.845 27.8034C219.845 27.6095 219.786 27.4515 219.669 27.3294C219.553 27.2045 219.399 27.1421 219.207 27.1421C219.011 27.1421 218.854 27.2045 218.737 27.3294C218.62 27.4515 218.562 27.6095 218.562 27.8034C218.562 27.9972 218.62 28.1566 218.737 28.2814C218.854 28.4036 219.011 28.4646 219.207 28.4646ZM218.889 28.2256V27.3692H219.267C219.357 27.3692 219.428 27.3931 219.478 27.4409C219.531 27.486 219.558 27.5498 219.558 27.6321C219.558 27.6958 219.539 27.7503 219.502 27.7954C219.468 27.8379 219.42 27.8671 219.359 27.8831L219.59 28.2216L219.367 28.2256L219.16 27.891H219.076V28.2256H218.889ZM219.076 27.7397H219.251C219.286 27.7397 219.314 27.7317 219.335 27.7158C219.359 27.6998 219.371 27.6733 219.371 27.6361C219.371 27.6016 219.359 27.5763 219.335 27.5604C219.314 27.5445 219.286 27.5365 219.251 27.5365H219.076V27.7397Z" fill="white"></path><path d="M21.3145 10.1246C21.7344 10.101 22.1574 10.089 22.5832 10.089C25.7111 10.089 28.6883 10.7342 31.3891 11.8987C31.4612 11.8054 31.5422 11.7222 31.6298 11.6502C28.86 10.4379 25.8002 9.76524 22.5832 9.76524C22.0696 9.76524 21.56 9.78238 21.0549 9.81614C21.1485 9.91257 21.2353 10.0156 21.3145 10.1246Z" fill="white"></path><path d="M44.8427 32.3485C44.8427 24.0877 40.3428 16.8779 33.6605 13.0367C33.6904 12.9217 33.7068 12.8061 33.7105 12.6923C40.5512 16.5731 45.1665 23.9218 45.1665 32.3485C45.1665 33.6695 45.053 34.9641 44.8354 36.223C44.7549 36.0835 44.6676 35.9488 44.5737 35.8196C44.7508 34.6885 44.8427 33.5293 44.8427 32.3485Z" fill="white"></path><path d="M41.0809 44.7349C37.0859 50.6891 30.2922 54.608 22.5832 54.608C10.2897 54.608 0.323774 44.642 0.323774 32.3485C0.323774 22.2356 7.06768 13.6978 16.3036 10.9871C16.3419 10.8571 16.3892 10.731 16.4449 10.6095C6.95549 13.2836 0 22.0037 0 32.3485C0 44.8209 10.1109 54.9317 22.5832 54.9317C30.5382 54.9317 37.5325 50.8187 41.5555 44.6031C41.3987 44.6554 41.2403 44.6994 41.0809 44.7349Z" fill="white"></path><path d="M18.4319 10.1667L18.4348 10.1709C18.4341 10.1693 18.4328 10.1679 18.4319 10.1667Z" fill="white"></path><path d="M18.4348 10.1709C18.6234 10.4526 18.6045 11.0935 18.593 11.4845C18.5793 11.9512 18.576 12.0618 18.9486 10.7803C19.2602 9.70858 19.1645 10.589 19.0555 11.5922C18.976 12.3239 18.8895 13.1209 18.9486 13.2734C19.4061 14.4542 18.9938 15.5577 18.6012 16.6088C18.1693 17.7647 17.7612 18.8572 18.5596 19.9196C19.1544 20.7111 18.2218 20.9772 17.8714 20.2879C17.8417 20.2298 17.7774 20.2397 17.6759 20.2551C17.4177 20.2946 16.919 20.3707 16.1401 19.4578C16.0481 19.3501 15.9186 19.3029 15.7824 19.2532C15.4766 19.1416 15.1372 19.0178 15.1149 18.1703C15.1134 18.1212 15.1688 18.0917 15.2089 18.1207C15.2512 18.1512 15.2977 18.1953 15.3459 18.241C15.628 18.5082 15.9688 18.8311 15.8832 16.8288C15.883 16.8264 15.9089 16.7598 15.9537 16.6447C16.22 15.9601 17.1521 13.5638 17.226 12.7884C17.385 11.1115 17.6096 13.7057 17.0019 14.436C16.8987 14.5599 15.8653 18.9917 17.0857 19.1416C17.2336 19.1598 17.3057 18.8263 17.4024 18.3796C17.5359 17.762 17.7163 16.9281 18.2083 16.5083C18.8881 15.9282 18.6407 14.4174 18.4194 13.0652C18.2623 12.1059 18.1184 11.2265 18.3278 10.816C18.3901 10.6942 18.4705 10.2464 18.4348 10.1709Z" fill="white"></path><path d="M21.7008 30.1575C21.6844 30.1686 21.6769 30.1851 21.6768 30.2018C21.7421 30.1825 21.7397 30.1309 21.7008 30.1575Z" fill="white"></path><path d="M15.6671 20.5773C15.6092 20.5766 15.5745 20.5779 15.5694 20.58C15.5887 20.572 15.6459 20.5623 15.6722 20.5578C15.6806 20.5564 15.6858 20.5555 15.6855 20.5554C15.679 20.5628 15.6729 20.5701 15.6671 20.5773Z" fill="white"></path><path fill-rule="evenodd" clip-rule="evenodd" d="M5.39948 47.0032C4.19687 45.5945 3.16445 44.036 2.33406 42.3597C4.76597 37.3343 7.55274 31.0868 7.79346 29.9044C8.39758 26.9399 9.86121 25.056 11.1347 23.4169C11.9106 22.4182 12.616 21.5104 13.0134 20.5043C13.0163 20.4981 13.0177 20.4908 13.0177 20.4841C13.051 19.4352 13.1647 18.4104 13.3209 18.0315C13.3739 17.9033 14.8213 13.0174 14.885 12.7528C14.9839 12.3411 15.2279 11.7175 15.4978 11.028C15.8156 10.2159 16.1692 9.31227 16.3637 8.55572C16.4813 8.09894 16.6735 7.55315 16.8754 6.97982C17.204 6.04665 17.5583 5.04054 17.6583 4.2266C17.7224 3.70793 18.6093 0.374688 19.4995 0.543881C19.5092 0.545809 19.5183 0.550147 19.526 0.556413C19.9497 0.895356 20.1459 2.02108 20.3481 3.18105C20.5278 4.21183 20.7121 5.26966 21.065 5.82646C21.3088 6.21137 21.5187 7.38849 21.7421 8.64209C22.0187 10.1939 22.3163 11.863 22.725 12.2915C23.139 12.7253 24.3965 15.1875 23.9232 15.5432L23.9174 15.5476C24.7416 15.549 25.5923 15.5813 26.3158 15.7515C28.303 16.2186 30.6638 15.0516 30.9333 12.8612C30.9922 12.3807 31.2873 11.7014 31.6011 10.979C31.9572 10.1591 32.3374 9.28369 32.424 8.58031C32.4418 8.43554 32.5423 8.20208 32.6729 7.89877C32.9245 7.31434 33.2877 6.47056 33.3861 5.50206C33.3991 5.37287 33.9963 0.801767 34.4359 2.03866C34.7907 3.03647 34.5336 5.40699 34.2922 7.63246C34.1326 9.10426 33.9799 10.5126 34.0156 11.4185C34.0283 11.7417 33.9417 12.1658 33.845 12.6394C33.6589 13.5509 33.4355 14.6455 33.8107 15.5553C33.9022 15.7768 33.7846 15.9066 33.6716 16.0313C33.494 16.2273 33.3278 16.4108 34.003 16.9185C34.3184 17.1556 34.2717 17.285 34.2091 17.4587C34.1263 17.6882 34.0156 17.995 34.6764 18.73C34.9858 19.0746 36.9759 21.4423 37.5298 22.1934C37.5351 22.2006 37.5413 22.2059 37.549 22.2097C37.7153 22.2965 37.8893 22.4276 38.0754 22.6262C38.7862 23.3847 38.7903 23.5258 38.8139 24.3368C38.8168 24.4369 38.82 24.5476 38.8249 24.6705C38.8324 24.8611 38.7723 24.893 38.7341 24.9133C38.6846 24.9396 38.6719 24.9463 38.8909 25.2538C39.07 25.5052 38.5984 25.5606 38.2626 25.573C38.1999 25.5431 38.1324 25.5268 38.062 25.5268C37.7334 25.5268 37.4671 25.882 37.4671 26.3201C37.4671 26.4252 37.4824 26.5255 37.5102 26.6173C37.46 26.8642 37.6616 27.1954 37.8761 27.0739C37.9346 27.0995 37.9971 27.1134 38.062 27.1134C38.2581 27.1134 38.432 26.987 38.5404 26.7919C38.5634 26.9423 38.6145 27.1095 38.6688 27.2873C38.6943 27.3707 38.7205 27.4565 38.7448 27.5439C38.8355 27.8693 38.9 28.2183 38.807 28.5581C38.7974 28.5938 38.7902 28.6584 38.7844 28.7379C38.7839 28.748 38.7853 28.7577 38.7897 28.7668C38.8465 28.8893 38.9054 29.0276 38.9569 29.1915C39.3025 30.284 40.7056 31.3983 42.1339 32.5327C43.142 33.3333 44.1626 34.1439 44.8328 34.9638C44.9148 35.0641 45.0006 35.1634 45.0888 35.2622C45.0903 35.2638 45.092 35.2653 45.0938 35.2668C45.0949 35.2678 45.0961 35.2687 45.0973 35.2697C45.0983 35.2704 45.0993 35.2711 45.1003 35.2718C45.256 35.3745 45.3669 35.482 45.3929 35.5798C45.3958 35.59 45.4001 35.5991 45.4074 35.6068C45.5132 35.7183 45.6204 35.829 45.727 35.939C46.8467 37.0955 47.9041 38.1875 46.7401 39.4867C46.635 39.6038 46.554 39.6843 46.4928 39.7354C46.489 39.7388 46.4851 39.7431 46.4822 39.7475C46.3073 40.0087 46.1342 40.2295 46.0393 40.285C45.9416 40.342 45.8351 40.4979 45.7029 40.6915C45.4507 41.0606 45.105 41.5667 44.5485 41.7855C44.3171 41.8766 44.177 41.9978 44.0617 42.0975C43.8719 42.2616 43.7494 42.3676 43.398 42.1856C43.3637 42.1678 43.3223 42.1866 43.3131 42.2246C43.2057 42.6773 42.6899 43.3801 42.6687 43.3936C41.9978 43.8221 43.3729 43.3632 43.6086 43.167C44.471 42.4495 45.0451 41.7708 45.7364 40.9536L45.8362 40.8357C45.8709 40.7947 45.906 40.7533 45.9414 40.7116C46.6528 39.8738 46.006 41.169 45.5125 41.6477C45.4049 41.7519 45.3062 41.847 45.2141 41.9357L45.2085 41.9411C44.6745 42.4556 44.3584 42.76 43.8009 43.4172C43.5479 43.7156 43.2057 44 42.8263 44.1788C42.8205 44.1812 42.8152 44.1851 42.8109 44.1894C41.0878 45.9016 39.116 46.5972 36.7128 45.7502C36.301 45.605 35.8369 45.4737 35.3565 45.3377C34.4126 45.0705 33.4054 44.7854 32.6082 44.3427C32.0835 44.0512 31.0002 43.773 29.8745 43.4839C29.2226 43.3165 28.5564 43.1454 27.9763 42.966C27.9734 42.9646 27.9695 42.9636 27.9661 42.9636C27.8418 42.9487 27.7324 42.9361 27.636 42.926C27.6013 42.9226 27.5709 42.9496 27.5709 42.9848C27.5767 44.91 27.6292 50.3922 27.9907 51.269C28.2169 51.8175 28.3092 52.9413 28.2875 54.149C26.2432 54.6519 24.2975 54.9317 22.5832 54.9317C22.1306 54.9317 21.6805 54.9184 21.2344 54.8922L21.2792 54.8129C22.2167 53.1528 23.7967 50.3552 23.7232 49.0888C23.6734 48.2324 24.3068 45.7821 24.4912 45.0691L24.5094 44.9986L24.5209 44.9539C24.5315 44.9115 24.4944 44.8729 24.4515 44.8816C23.3513 45.1097 22.4659 49.4843 22.248 50.5609L22.2319 50.6404C22.1453 51.0671 21.1879 53.0518 20.2867 54.8165C20.0555 54.7931 19.8252 54.7663 19.5961 54.736C19.6656 54.5499 19.7362 54.3614 19.8071 54.1723C20.4432 52.4749 21.095 50.7356 21.0776 50.3604C21.0038 48.7812 22.3857 44.1663 24.0114 43.6346C24.4577 43.4885 24.7498 43.3261 24.9204 43.155C24.9484 43.1265 24.9392 43.0793 24.9041 43.0615C24.7014 42.959 24.5784 42.8146 24.4521 42.6664C24.2092 42.3813 23.9542 42.0819 23.0971 42.0391C22.4637 42.0077 18.6753 40.6118 18.7245 39.3537C18.7254 39.3311 18.7254 39.3066 18.7254 39.2816C18.7254 39.2662 18.7192 39.2515 18.7086 39.2404C18.5278 39.0563 18.3225 38.8201 18.095 38.5231C18.0538 38.4693 18.0963 39.0942 18.1573 39.9913C18.286 41.8827 18.497 44.984 18.1789 45.4856C17.8583 45.9914 17.7465 46.4569 17.6467 46.8725C17.5912 47.1037 17.5393 47.3195 17.4573 47.5183C17.2169 48.1015 16.9267 49.9591 16.6849 51.5079C16.5607 52.303 16.4492 53.0167 16.3637 53.4348C16.3307 53.596 16.307 53.809 16.2877 54.0428C15.9923 53.9572 15.6994 53.8658 15.4092 53.7686C15.4004 53.359 15.3947 52.9485 15.389 52.5381C15.3624 50.6344 15.3359 48.7327 15.0045 46.9288C14.8795 46.2482 14.811 45.6589 14.7469 45.1072C14.6023 43.8619 14.4799 42.8078 13.7788 41.3257C12.8582 39.3797 12.0152 36.7353 12.8649 34.6751C13.4641 33.2222 14.1051 29.1076 13.9147 27.5078C13.8753 27.1765 13.8953 26.5697 13.9155 25.9563C13.9401 25.212 13.9649 24.458 13.8843 24.175C13.8829 24.1706 13.8815 24.1663 13.879 24.1625C13.8222 24.0574 13.7667 23.9586 13.7137 23.867C13.6843 23.8159 13.6067 23.8361 13.6043 23.8949C13.5821 24.4295 13.4988 24.9245 13.3185 25.2952C11.2667 29.5132 11.1733 31.2442 11.0242 34.0092C10.9653 35.1029 10.8976 36.3585 10.6965 37.9939C10.5523 39.1661 10.3728 40.2409 10.1998 41.2775C9.74055 44.0279 9.32626 46.5093 9.73442 49.8268C9.78458 50.2347 9.81966 50.6245 9.84693 51.0006C9.13521 50.5137 8.45278 49.9872 7.80283 49.4241C7.6655 48.2865 7.7225 47.2739 8.16218 46.6357C8.4292 46.2477 8.77623 38.2074 8.82925 36.6326C8.83166 36.5661 8.73912 36.5473 8.7155 36.6095C8.51406 37.1392 8.0992 38.4856 7.58425 40.1568C6.93888 42.2514 6.1362 44.8565 5.39948 47.0032ZM41.9033 40.9979C41.9178 40.9988 41.9327 41.0017 41.9481 41.0056C41.7848 40.8827 41.5838 40.7824 41.2329 40.6875C40.8973 40.5967 40.7445 40.3151 40.5718 39.9968C40.4171 39.7117 40.2464 39.3972 39.9142 39.1642C39.7166 39.026 39.6135 38.7194 39.5354 38.487C39.5043 38.3944 39.4771 38.3136 39.4495 38.2599C39.437 38.2354 39.4418 38.2055 39.4635 38.1881C39.7874 37.9307 42.0465 36.6808 42.4793 36.7194C43.1401 36.7785 43.6519 36.7285 44.227 36.6724C44.4068 36.6548 44.5932 36.6366 44.7919 36.621C45.1163 36.596 45.3732 36.582 45.5896 36.6008C45.6373 36.6051 45.6705 36.554 45.646 36.5126C45.5178 36.2928 45.3712 36.0643 45.2049 35.8589C45.19 35.8406 45.1654 35.8329 45.1428 35.8397C44.9625 35.8932 44.6786 35.9259 44.2607 35.9259C44.0762 35.9259 43.8723 35.9202 43.6557 35.9142C42.1131 35.8711 39.9286 35.81 39.5512 37.6617C39.4801 38.0101 39.1936 37.7315 38.8039 37.3524C38.4382 36.9967 37.9816 36.5525 37.5269 36.4552C37.3794 36.4234 35.2109 35.1007 34.3308 34.4148C34.3038 34.394 34.2652 34.4003 34.246 34.4283C33.3338 35.7661 33.8137 36.1755 34.1932 36.4992C34.423 36.6954 34.6161 36.86 34.4402 37.1807C34.3871 37.2774 34.1208 37.1801 33.7697 37.0519C32.9538 36.754 31.6805 36.289 31.5666 37.7056C31.5386 38.056 31.2543 39.5089 30.9333 38.1428C30.808 37.6103 30.8364 37.1945 30.8593 36.8607C30.8992 36.2759 30.922 35.9425 30.0715 35.6734C29.5244 35.5002 28.9903 35.4988 28.497 35.4976C27.8424 35.4959 27.2596 35.4944 26.8132 35.092C26.042 34.3969 22.6845 36.3024 22.8127 36.9324C22.8501 37.1161 22.8861 37.3125 22.9236 37.517C23.2301 39.1886 23.6357 41.4014 25.7109 41.5985C26.0216 41.628 26.2961 41.6209 26.5589 41.6141C27.1982 41.5976 27.7689 41.5828 28.624 42.1003C28.6539 42.1186 28.6901 42.1461 28.7286 42.1808C28.7349 42.1861 28.7417 42.1904 28.7494 42.1928C28.9629 42.2637 29.1504 42.3442 29.2974 42.4329C30.2771 43.024 31.6202 43.3927 32.9522 43.7584C33.7957 43.99 34.6348 44.2203 35.3743 44.5051C36.3701 44.8885 37.2567 44.6801 38.2191 44.4539L38.2903 44.4372C38.1988 44.4396 38.1274 44.4405 38.0836 44.4405C37.9698 44.4405 37.7602 44.3909 37.5071 44.331C37.0856 44.2311 36.5435 44.1027 36.1233 44.1277C35.5102 44.1639 31.9001 42.2979 31.4422 41.8188C31.1579 41.5209 28.7662 40.0198 28.3421 40.1895C27.594 40.4889 26.9631 40.6956 26.1736 40.43C26.0732 40.3963 25.9221 40.4294 25.7704 40.4625C25.5033 40.5209 25.2343 40.5797 25.2371 40.2753C25.2371 40.2647 25.24 40.2541 25.2458 40.2454C25.2546 40.2312 25.2696 40.2027 25.2903 40.163C25.5173 39.7281 26.4383 37.9641 27.7083 39.1093C27.7819 39.1757 27.8749 39.1899 27.9932 39.208C28.1592 39.2334 28.3749 39.2663 28.6563 39.4616C28.8439 39.5918 28.9352 39.6131 29.0148 39.6317C29.1299 39.6586 29.2207 39.6798 29.5422 40.015C29.7495 40.231 31.9609 41.6226 32.2713 41.7286L32.2746 41.7298C32.5424 41.8214 32.6259 41.85 32.3734 41.4842C32.3309 41.4226 32.2435 41.3118 32.1358 41.1752C31.751 40.6874 31.107 39.871 31.3213 39.7923C31.4966 39.7278 31.7281 39.9383 32.0082 40.1932C32.2471 40.4105 32.5213 40.6599 32.8265 40.7988C33.1008 40.9234 33.3952 41.2299 33.7327 41.5815C34.0535 41.9155 34.4133 42.2903 34.8321 42.5881C34.8924 42.631 34.9264 42.7545 34.9651 42.8946C35.0194 43.0916 35.0828 43.3214 35.2408 43.4056C35.7989 43.703 36.6799 43.7351 37.1644 43.7527C37.2665 43.7564 37.351 43.7595 37.4112 43.7643C38.4137 43.8438 39.3035 43.8761 40.2911 43.7402C41.2112 43.6139 41.739 43.4895 42.4995 42.8889C42.6875 42.7404 42.8832 41.8178 42.0633 41.772C42.0282 41.7701 41.9988 41.7985 42.0002 41.8337C42.0033 41.9178 42.012 41.9923 42.0199 42.0599C42.056 42.3685 42.0753 42.5341 41.47 42.82C40.8246 43.1246 40.2241 42.9366 39.6182 42.7139C39.3118 42.6013 38.6363 42.5383 38.0001 42.479C37.4195 42.4248 36.8714 42.3737 36.6665 42.2907C36.5889 42.2592 36.4201 42.2258 36.2455 42.1912C35.7909 42.1011 35.2966 42.0032 36.2674 41.9123C36.6392 41.8775 36.8375 41.9217 37.0415 41.9671C37.2783 42.0198 37.5227 42.0742 38.0551 42.0087C38.223 41.988 38.6062 41.9731 39.0371 41.9563C39.8209 41.9258 40.7625 41.8891 40.8511 41.8005C40.9869 41.6647 40.6359 41.5785 40.2947 41.4947C40.1221 41.4523 39.952 41.4105 39.8486 41.3633C39.6882 41.2899 39.3092 41.2598 38.9239 41.2293C38.3398 41.183 37.7411 41.1355 37.8671 40.9342C37.9221 40.847 39.7498 40.8157 40.0694 40.9102C40.9284 41.1633 41.1325 41.1077 41.3542 41.0474C41.485 41.0117 41.622 40.9744 41.9033 40.9979ZM45.618 37.5876C45.9697 37.6719 46.3746 37.7687 46.6124 37.668C46.6446 37.7215 46.6649 37.7867 46.676 37.8603C46.6818 37.8999 46.6461 37.9326 46.607 37.9259C46.6054 37.9255 46.6037 37.9252 46.602 37.9249C46.5996 37.9245 46.5972 37.9242 46.595 37.924C46.3012 37.8776 46.2247 38.0195 46.1311 38.193C46.0856 38.2775 46.036 38.3694 45.9554 38.4508C45.6815 38.7276 45.6847 38.7361 45.6953 38.7639C45.7022 38.7821 45.7124 38.8088 45.6489 38.9256C44.8112 40.4694 44.8912 39.3799 44.9562 38.4957C44.9825 38.138 45.0063 37.814 44.9659 37.7114C44.8442 37.4023 45.1921 37.4856 45.618 37.5876ZM46.4538 39.1736C46.5037 38.9973 46.5596 38.8001 46.6042 38.6051C46.5227 38.6899 46.4258 38.767 46.3256 38.8268C45.8961 39.0823 45.2054 40.0531 46.3299 39.4303C46.3439 39.4226 46.3665 39.3975 46.3959 39.3614C46.4012 39.3551 46.4051 39.3479 46.407 39.3402C46.4216 39.2875 46.4374 39.2316 46.4538 39.1736ZM44.5244 37.8493C44.5706 36.6813 40.5518 37.803 40.0033 38.3785C39.9797 38.4031 40.0621 38.5535 40.1392 38.6268C40.39 38.8647 40.5421 39.0466 40.6478 39.173C40.7591 39.3061 40.819 39.3777 40.8883 39.3884C40.969 39.4009 41.0626 39.3308 41.2651 39.179C41.3066 39.1479 41.3526 39.1134 41.404 39.0755C42.649 38.1573 43.1922 40.041 42.6726 40.3442C42.087 40.686 42.3309 40.9641 42.8408 40.7434C43.5888 40.4199 44.4993 38.4875 44.5244 37.8493ZM23.0278 15.552L23.0339 15.5519C22.749 15.2332 22.6011 14.5832 22.4819 14.0598C22.4323 13.8422 22.3878 13.6464 22.3404 13.5052C22.3232 13.4543 22.3057 13.3711 22.2854 13.2743C22.2222 12.9739 22.1317 12.5431 21.9389 12.5431C21.8285 12.3609 21.5947 14.838 21.9842 15.9482C21.9875 15.9588 21.9943 15.9679 22.003 15.9747C22.1615 16.1014 22.3201 16.2518 22.3317 16.3473C22.4249 17.1028 23.1368 17.1317 23.6859 17.1539C23.9321 17.1639 24.1455 17.1726 24.2558 17.2448C25.0362 17.7559 25.2481 17.6942 25.4371 17.6391C25.5448 17.6077 25.645 17.5785 25.8386 17.6584C26.4593 17.9145 27.1357 17.8641 27.7139 17.8209C28.3175 17.7758 28.8143 17.7388 29.0294 18.0667C29.8488 19.3156 31.7522 20.7853 33.2454 21.3021C33.3776 21.3481 33.8333 22.7419 34.1904 23.8343C34.3762 24.4026 34.5354 24.8894 34.6084 25.0624C36.2742 29.0098 33.616 25.4345 33.5861 24.4767C33.5847 24.4358 33.0834 24.2073 32.6356 24.0116C32.5923 23.9928 32.5455 24.0299 32.5542 24.0762L32.5656 24.1373C32.6532 24.6056 32.7611 25.1827 33.1808 25.9677C33.6805 26.9026 33.7477 27.4414 33.7882 27.7663C33.8082 27.9266 33.8217 28.0348 33.8775 28.1129C33.9934 28.275 34.2917 28.3068 35.21 28.4047C35.582 28.4443 36.0557 28.4948 36.6602 28.5692C37.9541 28.7287 36.2603 29.3173 35.551 29.5637C35.3796 29.6233 35.2657 29.6629 35.2654 29.6716C35.2638 29.7109 35.4528 29.7921 35.7082 29.9017C36.0884 30.065 36.6157 30.2914 36.8815 30.5373C37.7727 31.3621 41.4903 33.5727 43.5146 34.5546C43.5753 34.584 43.6303 34.5049 43.5806 34.4586C43.1948 34.0976 42.7856 33.6856 42.3672 33.2642C41.3325 32.2222 40.2411 31.123 39.3059 30.5976C38.9627 30.4048 38.1554 29.4147 37.9848 28.573C37.9833 28.5653 37.9804 28.5586 37.9761 28.5523C37.5582 27.9401 37.1177 27.2667 37.0873 27.1698C37.0809 27.1495 37.0287 27.0666 36.9517 26.9442C36.6959 26.5376 36.1668 25.6968 36.1334 25.2721C36.1326 25.261 36.1135 25.1576 36.0852 25.0042C35.9831 24.4518 35.7617 23.253 35.8428 23.3869C35.8597 23.4143 35.8973 23.4211 35.9243 23.4033C36.7144 22.8756 36.8094 23.165 36.9238 23.513C37.0015 23.7496 37.0881 24.0133 37.4083 24.0656C37.4084 24.0656 37.4081 24.0654 37.4083 24.0656C37.4093 24.0664 37.4122 24.0685 37.4149 24.0707C37.4813 24.124 38.0304 24.565 38.2416 23.9957C38.3053 23.8246 37.658 22.6653 36.9191 22.8831C36.7056 22.9463 35.1227 22.8017 35.1458 22.216C35.1516 22.0681 35.024 21.8865 34.9282 21.7501C34.8707 21.6683 34.8247 21.6027 34.8258 21.5706C34.8263 21.5566 34.8186 21.5436 34.8089 21.5335C34.259 20.9762 33.8358 20.2845 33.6305 19.6906C33.6196 19.6594 33.6117 19.6098 33.6027 19.553C33.5777 19.3959 33.5441 19.1843 33.4145 19.1585C33.2714 19.13 33.1003 19.4935 33.254 19.9794C33.2195 20.0624 33.1201 19.9076 32.9463 19.637C32.7144 19.2759 32.3501 18.7086 31.8307 18.2248C31.5301 17.9449 30.9797 17.7177 30.5723 17.5495C30.3069 17.4399 30.1023 17.3555 30.0671 17.2978C29.3864 16.1857 27.7151 16.1385 26.2243 16.0964C25.476 16.0752 24.7733 16.0554 24.264 15.9028C24.1883 15.8802 23.9254 15.8781 23.6243 15.8757C23.0169 15.8709 22.2535 15.8648 22.5558 15.6859C22.5987 15.6604 22.6136 15.6363 22.617 15.6035C22.6204 15.5746 22.6459 15.5539 22.6749 15.5539C22.79 15.5539 22.9079 15.5529 23.0278 15.552ZM20.6997 17.9071C20.7713 17.6888 20.8455 17.4626 20.5488 17.3191C20.5464 17.4381 20.5464 17.602 20.5488 17.831C20.5556 18.4909 18.35 20.5887 18.7814 19.4265C18.8402 19.2677 18.9763 19.1315 19.1308 18.9767C19.5258 18.5812 20.0413 18.065 19.6952 16.745C19.6913 16.7303 19.7893 16.4551 19.911 16.113C20.0931 15.6012 20.3286 14.9395 20.356 14.7768C20.425 14.3667 20.4901 14.0862 20.5453 13.8484C20.6739 13.294 20.7486 12.9722 20.6929 11.782C20.6719 11.3313 20.4903 10.5781 20.2904 9.74845C20.0147 8.60447 19.7041 7.31533 19.7309 6.47431C19.7338 6.37501 19.7068 -0.0707096 19.2373 1.66412C19.1173 2.10663 18.3837 5.26249 18.3837 5.47651C18.3837 6.78749 17.5702 8.95816 16.8521 10.8744C16.5243 11.749 16.2164 12.5707 16.0147 13.2334C15.8877 13.6505 15.7573 13.9968 15.6346 14.3227C15.3811 14.9958 15.1603 15.5821 15.0691 16.5276C15.0514 16.7104 14.9963 16.9464 14.9364 17.2028C14.7755 17.8915 14.5802 18.727 14.9852 19.0727C15.1386 19.2038 15.0889 19.4388 15.0286 19.7247C14.9257 20.2124 14.7916 20.8479 15.5814 21.3667C16.3695 21.8844 15.6759 22.9256 14.4516 20.8567C14.3962 20.7629 14.3916 20.5172 14.3867 20.2569C14.3747 19.6169 14.361 18.8887 13.586 20.1119C13.2004 20.7203 14.5336 24.6112 14.952 25.2504C15.096 25.4702 15.2223 25.4931 15.3278 25.5122C15.4525 25.5348 15.5482 25.5522 15.6099 25.8833C15.6333 25.6342 15.4681 25.4601 15.3042 25.2875C15.029 24.9975 14.7574 24.7113 15.3891 24.0795C15.6091 23.8593 15.5982 23.7315 15.5851 23.5777C15.5652 23.3454 15.5403 23.054 16.2986 22.2955C16.7605 21.8334 16.3705 21.5339 16.0127 21.259C15.7269 21.0395 15.4616 20.8357 15.6671 20.5773C16.1406 20.5828 18.1648 20.7184 18.2348 21.5903C18.2477 21.7494 18.0839 22.1056 17.9317 22.4368C17.6848 22.9738 17.4681 23.4454 18.0825 22.9058C18.3332 22.6857 18.5484 22.4989 18.7391 22.3335C19.7192 21.4831 20.0492 21.1967 21.2048 19.8425C21.801 19.1435 20.6963 21.7764 20.2114 22.4565C19.9671 22.7992 20.219 22.9869 20.452 23.1605C20.7342 23.3707 20.9885 23.5602 20.2991 23.9793C20.1163 24.0907 20.0706 24.2119 20.0202 24.3457C19.9495 24.5333 19.8695 24.7454 19.3896 24.9896C19.1674 25.1029 19.7955 26.5042 21.1378 25.5478C21.4193 25.3472 21.5509 25.5942 21.6895 25.8544C21.7854 26.0343 21.8846 26.2205 22.0391 26.2694C22.8382 26.5225 22.6586 26.7916 22.3335 27.2786C22.0544 27.6968 21.6679 28.2758 21.7022 29.1433C21.7234 29.6815 21.3788 29.8521 20.9579 30.0605C20.4979 30.2882 19.9467 30.5611 19.6822 31.4083C19.256 32.7738 19.8582 32.4743 20.4356 32.1871C20.7991 32.0063 21.1527 31.8304 21.2337 32.0779C21.3896 32.5546 21.0098 32.7694 20.6117 32.9945C20.1505 33.2553 19.6645 33.5301 19.9584 34.2427C20.0295 34.4153 19.939 34.6155 19.8315 34.8535C19.5833 35.403 19.244 36.1542 20.5917 37.2332C20.6534 37.2829 20.7079 37.4029 20.758 37.574C20.7773 37.6386 20.8722 37.627 20.8737 37.5596C20.8761 37.4554 20.8795 37.3446 20.8843 37.225C20.8917 37.0362 20.7241 36.8066 20.5432 36.5589C20.0758 35.9186 19.5198 35.157 21.6661 34.6635C22.056 34.5738 24.5108 33.7452 24.2384 33.3813C23.9883 33.0463 22.2584 31.9005 22.0261 32.0658C21.5677 32.3922 20.7696 30.3566 21.6579 30.2062C21.6615 30.2056 21.6649 30.2049 21.6682 30.2041C21.6712 30.2034 21.674 30.2027 21.6768 30.2018C21.6765 30.2285 21.6948 30.2557 21.7253 30.2626C21.8976 30.3007 21.9068 30.4159 21.9181 30.5577C21.9341 30.7584 21.9543 31.0124 22.4469 31.1765C22.947 31.3432 24.063 32.0542 25.0802 32.7022C26.0304 33.3076 26.8945 33.858 27.0889 33.858C27.5048 33.858 27.8898 33.9134 28.2599 33.9666C29.2395 34.1075 30.114 34.2332 31.1771 33.2767C31.4398 33.0403 31.5898 33.337 31.7597 33.673C32.0505 34.2484 32.3998 34.9394 33.4733 33.2685C33.5171 33.2003 33.4752 32.9067 33.427 32.5686C33.3143 31.7795 33.1671 30.7482 33.9949 31.7761C34.0002 31.7824 34.004 31.7896 34.0059 31.7973C34.0065 31.7999 34.0073 31.8029 34.0082 31.8063L34.0103 31.8137C34.0156 31.833 34.0305 31.848 34.0493 31.8542C34.3411 31.9517 34.5739 32.2116 34.8107 32.4761C34.9546 32.6368 35.1 32.7991 35.261 32.9277C35.3838 33.0257 35.4891 33.1918 35.6121 33.3859C35.8397 33.745 36.1279 34.1998 36.6998 34.4958C37.274 34.7931 37.2334 34.5527 37.1693 34.1735C37.1063 33.8009 37.0207 33.2944 37.4734 33.0323C38.5172 32.4281 37.2634 31.8258 35.8688 31.1558C34.8924 30.6867 33.847 30.1845 33.4729 29.6253C32.7824 28.5928 32.688 28.8251 32.519 29.2413C32.4617 29.3823 32.3959 29.5444 32.2954 29.6856C32.1421 29.9009 32.2132 30.3726 32.2861 30.8566C32.3724 31.4287 32.4612 32.0181 32.185 32.2215C32.1459 32.25 32.091 32.2235 32.09 32.1748C32.0784 31.4083 31.9276 30.9029 31.8079 30.5017C31.6143 29.853 31.5021 29.4769 32.1912 28.7109C32.395 28.4843 32.1634 28.2794 31.8863 28.0344C31.5046 27.6967 31.0365 27.2827 31.5015 26.63C31.6463 26.4267 31.4049 26.3424 31.1427 26.251C30.9816 26.1947 30.8126 26.1358 30.7207 26.0448C30.6961 26.0207 30.6551 26.0245 30.6339 26.052C30.5043 26.2217 30.4079 26.5538 30.5077 27.3641C30.5848 27.9927 30.4315 28.1392 30.2459 28.064C30.1939 28.0428 30.1433 28.0958 30.1698 28.1455C30.1698 28.146 30.1707 28.1469 30.1707 28.1474C30.1775 28.1599 30.1895 28.1696 30.203 28.1749C30.6465 28.3499 29.3827 29.018 29.1566 28.9992C28.3587 28.9336 28.6944 29.5014 28.9528 29.9385C29.1804 30.3236 29.348 30.6071 28.6274 30.2664C27.1033 29.5459 28.101 30.5332 28.5922 31.0193C28.7247 31.1504 28.8204 31.245 28.8197 31.2599C28.7888 32.0477 29.6071 32.2768 30.445 32.5114C30.6375 32.5654 30.8312 32.6196 31.0157 32.6809C31.0528 32.693 31.0687 32.7383 31.046 32.7696C30.9421 32.9132 30.7069 32.9019 30.5299 32.8934C30.4336 32.8888 30.3545 32.885 30.3231 32.9075C29.1446 33.7467 27.4465 33.6257 27.1361 32.1738C26.8562 30.8641 26.1093 30.2639 25.4859 29.7629C25.1292 29.4764 24.813 29.2222 24.6476 28.8864C23.8759 27.3186 24.1615 27.3632 25.484 27.5699L25.549 27.5801L25.5605 27.582C25.4604 27.4945 25.3695 27.4014 25.2829 27.3126C25.0531 27.0771 24.8531 26.8721 24.5874 26.8826C24.5257 26.885 24.3777 26.7244 24.5344 26.7163L24.5739 26.6912C24.5753 26.6902 24.5763 26.6893 24.5777 26.6888C24.6782 26.6335 24.8452 26.5671 25.0344 26.4919C25.5077 26.3039 26.1194 26.0608 26.1731 25.798C26.2025 25.6558 26.3466 25.5391 26.5496 25.4447C26.6098 25.4162 26.5843 25.3251 26.5178 25.3328C25.7384 25.4244 25.0342 25.5444 25.0289 25.5478C24.3522 26.0004 22.8566 25.5656 24.504 25.1631C25.0305 25.0346 25.7908 24.5777 26.3354 24.2504C26.6728 24.0477 26.9274 23.8947 26.9925 23.9002C28.7717 24.0529 28.4066 23.7594 28.015 23.4445C27.8132 23.2822 27.6043 23.1142 27.6784 22.9988C28.3898 21.8916 27.6427 22.2247 27.5748 22.2618L27.5716 22.2632C27.5705 22.2637 27.5694 22.2642 27.5683 22.2647C27.5679 22.2648 27.5687 22.2645 27.5683 22.2647C27.5667 22.2653 27.5639 22.2662 27.5622 22.2666C27.3415 22.3247 27.0068 22.4683 26.634 22.6282C25.8258 22.9749 24.8383 23.3986 24.4438 23.195C24.3228 23.1324 25.8121 22.1596 25.9707 22.0844C30.7554 19.8203 25.186 20.7612 25.1489 20.8051C24.6794 21.3556 24.0538 21.2158 24.8645 20.192C25.7543 19.0688 24.8602 19.2062 24.2394 19.5706C23.3276 20.1057 23.4476 19.7097 23.531 19.4344C23.5854 19.2547 23.6243 19.1265 23.3501 19.3426C22.0091 20.3995 22.3982 19.7395 22.7642 19.1185C22.9692 18.7706 23.1671 18.435 23.0494 18.4205C22.3848 18.3388 22.2443 18.4311 22.119 18.5135C21.9744 18.6086 21.8499 18.6904 20.9648 18.4769C20.546 18.3758 20.6213 18.1462 20.6997 17.9071ZM16.2234 29.8683C15.969 29.9309 15.5323 28.4024 15.4296 27.2571C15.28 26.9734 15.0778 26.558 14.8551 26.1004C14.7133 25.8091 14.5632 25.5007 14.4131 25.1983C14.3837 25.1386 14.2926 25.1665 14.3022 25.2326C14.3528 25.588 14.3813 25.9959 14.4115 26.4284C14.503 27.7364 14.6101 29.2691 15.3896 30.2529C16.5704 31.7436 16.5704 32.4745 16.5703 33.1856C16.5703 33.6939 16.5702 34.192 17.0014 34.9503C17.2188 35.3326 17.8856 36.7257 18.3351 37.6646L18.43 37.8627C18.4594 37.9249 18.5534 37.8941 18.5408 37.8266C18.1933 35.9626 17.4342 33.2208 16.9532 32.5455C16.908 32.4819 16.9483 32.2303 17.0007 31.904C17.1426 31.0195 17.3724 29.5865 16.2234 29.8683ZM38.0164 24.7752C37.8239 24.8504 37.7501 24.8792 37.7071 25.1019C37.7023 25.1275 37.9197 25.1501 38.0315 25.1501C38.608 25.1501 38.3096 24.6479 38.3024 24.6512C38.1853 24.7093 38.0918 24.7458 38.0164 24.7752ZM33.363 13.8012C33.4256 13.3751 33.5827 11.9579 33.5827 11.7718C33.5827 11.7075 33.6239 11.4644 33.6777 11.1476C33.8504 10.1308 34.1536 8.34533 33.6469 9.20165C33.6285 9.23321 33.4225 10.0608 33.3432 10.3793C33.3244 10.4548 33.3127 10.5017 33.3124 10.5026C33.1787 10.8108 33.1552 11.2947 33.1484 11.4331C33.1474 11.4556 33.1467 11.4694 33.1461 11.471C33.0482 11.7299 32.7412 12.8622 32.7412 13.1181C32.7412 13.2425 33.0974 13.6522 33.2613 13.832C33.2945 13.8692 33.3557 13.8504 33.363 13.8012ZM32.3079 16.9746C32.2448 16.9342 32.1943 16.9018 32.1662 16.8828C30.7869 15.9487 31.385 13.7567 31.721 12.5264C31.8872 11.9175 31.9891 11.5443 31.755 11.6759C31.6283 11.7473 31.1323 13.3616 31.1058 13.51C31.0145 14.02 30.8637 14.2679 30.6666 14.5921C30.5963 14.7077 30.5202 14.8329 30.4387 14.9831C30.3475 15.1516 30.1222 15.3735 29.9747 15.5187C29.8909 15.6012 29.8323 15.659 29.8377 15.6681C29.9046 15.781 29.949 15.8869 29.9893 15.9826C30.08 16.1987 30.1493 16.3635 30.4064 16.4437C30.7284 16.5446 31.0429 16.7787 31.2169 16.9081C31.2822 16.9567 31.3278 16.9906 31.3463 16.9971C31.9362 17.2013 32.3461 17.6818 32.6458 18.033C32.8364 18.2564 32.9824 18.4276 33.1017 18.4422C33.1869 18.4523 33.1073 17.9721 33.0599 17.6865C33.0464 17.6055 33.0356 17.5401 33.0318 17.5061C33.0237 17.433 32.5632 17.1381 32.3079 16.9746ZM29.3461 26.0202C29.3398 25.9879 29.3331 25.958 29.3258 25.9296C29.2853 25.9966 29.2222 26.0645 29.1335 26.134C29.1071 26.1547 29.0927 26.2071 29.0934 26.2766C28.9946 26.1793 28.8725 26.1218 28.7402 26.1218C28.7229 26.1218 28.7058 26.1228 28.6888 26.1248C28.6832 26.112 28.6783 26.1006 28.674 26.0903C28.6714 26.0842 28.669 26.0786 28.6668 26.0733C28.651 26.0355 28.6439 26.0184 28.6348 26.0173C28.6274 26.0164 28.6186 26.0262 28.6028 26.0441C28.5702 26.0807 28.5075 26.1511 28.3643 26.2323C28.3714 26.2508 28.3789 26.2651 28.3869 26.2768C28.2403 26.4213 28.1453 26.6534 28.1453 26.9151C28.1453 27.3533 28.4117 27.7085 28.7402 27.7085C28.8794 27.7085 29.0075 27.6447 29.1088 27.538C29.1793 27.5383 29.222 27.5184 29.2 27.4591C29.1968 27.4504 29.1937 27.442 29.1905 27.4337C29.2807 27.2947 29.3352 27.1134 29.3352 26.9151C29.3352 26.8786 29.3334 26.8427 29.3298 26.8075C29.3937 26.8699 29.472 26.9234 29.5663 26.9602C29.616 26.9794 29.6598 26.9992 29.6998 27.0209C29.7399 27.0426 29.7881 27.0137 29.7871 26.9684C29.7736 26.3653 29.6366 26.297 29.516 26.2369C29.443 26.2006 29.376 26.1672 29.3461 26.0202ZM28.9304 28.3249C29.1739 28.2403 29.4457 28.1459 29.803 28.1339C29.655 28.0558 29.5162 27.9527 29.4757 27.8524C29.468 27.8341 29.4516 27.8206 29.4323 27.8167C28.8365 27.6999 28.4331 27.7848 28.0003 27.876C27.8386 27.91 27.6728 27.9449 27.4914 27.9705C27.4408 27.9777 27.422 28.0418 27.4615 28.0741C28.1093 28.6101 28.4692 28.485 28.9304 28.3249ZM27.1636 26.4029C29.6155 25.9031 27.7459 25.2938 26.4884 26.0038C26.4933 26.0139 26.4977 26.0235 26.5017 26.0317C26.5174 26.0645 26.5268 26.084 26.5421 26.0956C26.5648 26.1127 26.6005 26.1126 26.689 26.1124C26.7012 26.1123 26.7145 26.1123 26.7289 26.1123C26.8888 26.1123 26.8692 26.1926 26.8498 26.2722C26.8246 26.3752 26.7997 26.4771 27.1636 26.4029ZM25.4304 26.8454C25.4304 26.8454 25.4302 26.8453 25.4304 26.8454ZM25.4304 26.8454C25.6202 26.6858 26.7765 26.3573 26.5187 26.7191C26.3592 26.9433 26.5997 27.3559 26.8754 27.5222C27.2701 27.7613 26.2266 27.5343 26.1582 27.4581C26.083 27.3744 25.6123 26.9926 25.4707 26.8778C25.4472 26.8587 25.4325 26.8473 25.4304 26.8454ZM31.0022 23.6269C31.0721 23.5671 31.0687 23.4196 31.0436 23.2461C30.9107 23.1171 30.8542 22.9982 30.8114 22.9082C30.7665 22.8138 30.7365 22.7508 30.6489 22.74C28.3731 22.4602 28.6889 22.9352 28.9074 23.2638C28.9757 23.3666 29.0345 23.4551 29.0014 23.5016C28.6423 24.0061 29.0556 24.0987 29.5709 24.2142C29.8385 24.2741 30.1335 24.3403 30.3621 24.4734C30.3968 24.4936 30.4397 24.4738 30.4489 24.4348C30.5053 24.1875 30.6638 23.9157 31.0022 23.6269Z" fill="white"></path></svg>