<svg xmlns="http://www.w3.org/2000/svg" width="169" height="169" viewBox="0 0 169 169" fill="none"><path d="M138.809 127.461H142.467" stroke="#88B7D8" stroke-width="4.95117" stroke-miterlimit="10" stroke-linecap="round" stroke-linejoin="round"></path><path d="M26.5312 127.461H30.1898" stroke="#88B7D8" stroke-width="4.95117" stroke-miterlimit="10" stroke-linecap="round" stroke-linejoin="round"></path><mask id="mask0_393_2180" style="mask-type:luminance" maskUnits="userSpaceOnUse" x="0" y="0" width="169" height="169"><path d="M0 1.52588e-05H169V169H0V1.52588e-05Z" fill="white"></path></mask><g mask="url(#mask0_393_2180)"><path d="M105.034 94.2273C101.824 102.078 94.1078 107.626 85.1162 107.626C82.1458 107.626 79.7379 105.218 79.7379 102.248C79.7379 99.2772 82.1458 96.8696 85.1162 96.8696C89.7224 96.8696 93.6606 93.958 95.1902 89.8792C91.793 88.9147 88.207 88.3985 84.5006 88.3985C62.9267 88.3985 45.4375 105.887 45.4375 127.462C45.4375 149.035 62.9267 166.525 84.5006 166.525C106.075 166.525 123.564 149.035 123.564 127.462C123.564 113.421 116.155 101.112 105.034 94.2273Z" stroke="#88B7D8" stroke-width="4.95117" stroke-miterlimit="10" stroke-linecap="round" stroke-linejoin="round"></path><path d="M84.5032 127.461C91.1797 127.461 96.592 132.489 96.592 138.692C96.592 144.894 91.1797 149.923 84.5032 149.923C77.8267 149.923 72.4141 144.894 72.4141 138.692" stroke="#88B7D8" stroke-width="4.95117" stroke-miterlimit="10" stroke-linecap="round" stroke-linejoin="round"></path><path d="M91.3672 106.987C94.5217 109.014 96.588 112.398 96.588 116.231" stroke="#88B7D8" stroke-width="4.95117" stroke-miterlimit="10" stroke-linecap="round" stroke-linejoin="round"></path><path d="M84.5032 127.461C77.8267 127.461 72.4141 122.433 72.4141 116.231C72.4141 111.341 75.7772 107.182 80.4713 105.64" stroke="#88B7D8" stroke-width="4.95117" stroke-miterlimit="10" stroke-linecap="round" stroke-linejoin="round"></path><path d="M84.5 107.886V153.639" stroke="#88B7D8" stroke-width="4.95117" stroke-miterlimit="10" stroke-linecap="round" stroke-linejoin="round"></path><path d="M74.9555 88.3982V79.3752C74.9555 76.4051 72.5476 73.9972 69.5775 73.9972C66.6071 73.9972 64.1992 76.4051 64.1992 79.3752V88.3982H74.9555Z" stroke="#88B7D8" stroke-width="4.95117" stroke-miterlimit="10" stroke-linecap="round" stroke-linejoin="round"></path><path d="M113.441 42.5713C113.441 49.3036 107.984 54.7607 101.252 54.7607C94.5197 54.7607 89.0625 49.3036 89.0625 42.5713C89.0625 35.839 94.5197 30.3818 101.252 30.3818C107.984 30.3818 113.441 35.839 113.441 42.5713Z" stroke="#88B7D8" stroke-width="4.95117" stroke-miterlimit="10" stroke-linecap="round" stroke-linejoin="round"></path><path d="M101.25 42.5713V2.47571" stroke="#88B7D8" stroke-width="4.95117" stroke-miterlimit="10" stroke-linecap="round" stroke-linejoin="round"></path><path d="M41.7429 166.525H151.957C154.894 166.525 157.274 164.144 157.274 161.208V93.7147C157.274 90.7787 154.894 88.3985 151.957 88.3985H106.506C105.36 99.1897 96.2054 107.626 85.1158 107.626C82.1454 107.626 79.7375 105.218 79.7375 102.248C79.7375 99.2772 82.1454 96.8693 85.1158 96.8693C90.2624 96.8693 94.5742 93.2351 95.6252 88.3985H17.0431C14.1068 88.3985 11.7266 90.7787 11.7266 93.7147V161.208C11.7266 164.144 14.1068 166.525 17.0431 166.525H30.1901" stroke="#88B7D8" stroke-width="4.95117" stroke-miterlimit="10" stroke-linecap="round" stroke-linejoin="round"></path><path d="M106.628 65.803V53.5109C105.006 54.31 103.181 54.7606 101.25 54.7606C99.3195 54.7606 97.4948 54.31 95.8725 53.5109V86.1131C95.8725 92.0439 91.0471 96.869 85.1162 96.869C82.1462 96.869 79.7383 99.2769 79.7383 102.247C79.7383 105.217 82.1462 107.625 85.1162 107.625C96.9783 107.625 106.628 97.9751 106.628 86.1131V77.3558" stroke="#88B7D8" stroke-width="4.95117" stroke-miterlimit="10" stroke-linecap="round" stroke-linejoin="round"></path></g></svg>