<svg xmlns="http://www.w3.org/2000/svg" width="40" height="39" viewBox="0 0 40 39" fill="none"><path fill-rule="evenodd" clip-rule="evenodd" d="M0.00495234 14.6888L8.28804 19.5L0.00495234 24.3112L0 24.3141L5.72743 34.1859L5.73238 34.183L13.9576 29.4164L13.9624 38.9943V39H25.3753V38.9943L25.3801 29.4164L33.6053 34.183L33.6103 34.1859L39.3377 24.3141L39.3328 24.3112L31.0497 19.5L39.3328 14.6888L39.3377 14.6859L33.6103 4.81408L33.6053 4.81696L25.3801 9.58355L25.3753 0.00568342V0H13.9624V0.00568342L13.9576 9.58355L5.73238 4.81696L5.72743 4.81408L0 14.6859L0.00495234 14.6888ZM1.67401 11.8086L14.9155 19.5L1.67401 27.1914L1.67194 27.1926L4.05837 31.3058L4.06043 31.3046L17.2835 23.6417L17.2912 38.996V38.9983H22.0466V38.996L22.0542 23.6417L35.2773 31.3046L35.2793 31.3058L37.6658 27.1926L37.6637 27.1914L24.4222 19.5L37.6637 11.8086L37.6658 11.8074L35.2793 7.6942L35.2773 7.69539L22.0542 15.3583L22.0466 0.00402576V0.00165767H17.2912V0.00402576L17.2835 15.3583L4.06043 7.69539L4.05837 7.6942L1.67194 11.8074L1.67401 11.8086Z" fill="#39E1D7"></path></svg>