<svg xmlns="http://www.w3.org/2000/svg" width="431" height="913" viewBox="0 0 431 913" fill="none"><g clip-path="url(#clip0_364_2163)"><g clip-path="url(#clip1_364_2163)"><path d="M381.408 95.6246C381.408 94.3462 382.445 93.3098 383.723 93.3098C385.002 93.3098 386.038 94.3462 386.038 95.6246V197.12C386.038 198.399 385.002 199.435 383.723 199.435C382.445 199.435 381.408 198.399 381.408 197.12V95.6246Z" fill="#173B55"></path><path d="M381.408 206.391C381.408 205.113 382.445 204.077 383.723 204.077C385.002 204.077 386.038 205.113 386.038 206.391V324.981C386.038 326.26 385.002 327.296 383.723 327.296C382.445 327.296 381.408 326.26 381.408 324.981V206.391Z" fill="#173B55"></path><path d="M646.644 539.355C646.644 538.076 647.681 537.04 648.959 537.04H835.573C836.851 537.04 837.888 538.076 837.888 539.355C837.888 540.633 836.851 541.67 835.573 541.67H648.959C647.681 541.67 646.644 540.633 646.644 539.355Z" fill="#173B55"></path><path d="M381.408 2.31488C381.408 1.03641 382.445 0 383.723 0C385.002 0 386.038 1.0364 386.038 2.31488V30.0926C386.038 31.371 385.002 32.4075 383.723 32.4075C382.445 32.4075 381.408 31.3711 381.408 30.0926V2.31488Z" fill="#173B55"></path><path d="M499.277 539.355C499.277 538.076 500.313 537.04 501.592 537.04H523.672C524.95 537.04 525.987 538.076 525.987 539.355C525.987 540.633 524.95 541.67 523.672 541.67H501.592C500.313 541.67 499.277 540.633 499.277 539.355Z" fill="#173B55"></path><path d="M842.559 539.355C842.559 538.076 843.596 537.04 844.874 537.04H925.716C926.995 537.04 928.031 538.076 928.031 539.355C928.031 540.633 926.995 541.67 925.716 541.67H844.874C843.596 541.67 842.559 540.633 842.559 539.355Z" fill="#173B55"></path><path d="M381.408 39.0051C381.408 37.7267 382.445 36.6903 383.723 36.6903C385.002 36.6903 386.038 37.7267 386.038 39.0051V86.3698C386.038 87.6482 385.002 88.6846 383.723 88.6846C382.445 88.6846 381.408 87.6482 381.408 86.3698V39.0051Z" fill="#173B55"></path><path d="M530.186 539.355C530.186 538.076 531.223 537.04 532.501 537.04H639.697C640.976 537.04 642.012 538.076 642.012 539.355C642.012 540.633 640.976 541.67 639.697 541.67H532.501C531.223 541.67 530.186 540.633 530.186 539.355Z" fill="#173B55"></path><path d="M381.304 333.853C381.304 332.575 382.34 331.538 383.619 331.538C384.897 331.538 385.934 332.575 385.934 333.853V482.713C385.934 512.708 410.249 537.023 440.244 537.023H492.417C493.598 537.023 494.554 537.98 494.554 539.16C494.554 540.34 493.598 541.297 492.417 541.297H437.929C406.656 541.297 381.304 515.945 381.304 484.671V333.853Z" fill="#173B55"></path><path d="M642.116 393.358C642.116 392.079 643.152 391.043 644.431 391.043C645.709 391.043 646.746 392.079 646.746 393.358V466.364C646.746 467.642 645.709 468.678 644.431 468.678C643.152 468.678 642.116 467.642 642.116 466.364V393.358Z" fill="#173B55"></path><path d="M499.283 329.609C499.283 328.331 500.319 327.294 501.598 327.294H586.001C587.28 327.294 588.316 328.331 588.316 329.609C588.316 330.888 587.28 331.924 586.001 331.924H501.598C500.319 331.924 499.283 330.888 499.283 329.609Z" fill="#173B55"></path><path d="M595.107 331.568C593.926 331.568 592.97 330.611 592.97 329.431C592.97 328.251 593.926 327.294 595.107 327.294H619.858C634.708 327.294 646.746 339.333 646.746 354.183V384.453C646.746 385.731 645.709 386.767 644.431 386.767C643.152 386.767 642.116 385.731 642.116 384.453V356.141C642.116 342.57 631.114 331.568 617.543 331.568H595.107Z" fill="#173B55"></path><path d="M122.401 329.609C122.401 328.331 123.437 327.294 124.716 327.294H254.348C255.627 327.294 256.663 328.331 256.663 329.609C256.663 330.888 255.627 331.924 254.348 331.924H124.716C123.437 331.924 122.401 330.888 122.401 329.609Z" fill="#173B55"></path><path d="M37.6998 329.609C37.6998 328.331 38.7361 327.294 40.0146 327.294H115.515C116.793 327.294 117.83 328.331 117.83 329.609C117.83 330.888 116.793 331.924 115.515 331.924H40.0146C38.7361 331.924 37.6998 330.888 37.6998 329.609Z" fill="#173B55"></path><path d="M642.116 753.726C642.116 752.448 643.152 751.412 644.431 751.412C645.709 751.412 646.746 752.448 646.746 753.726V887.986C646.746 889.264 645.709 890.301 644.431 890.301C643.152 890.301 642.116 889.264 642.116 887.986V753.726Z" fill="#173B55"></path><path d="M263.068 331.568C261.888 331.568 260.931 330.611 260.931 329.431C260.931 328.251 261.888 327.294 263.068 327.294H492.417C493.598 327.294 494.554 328.251 494.554 329.431C494.554 330.611 493.598 331.568 492.417 331.568H263.068Z" fill="#173B55"></path><path d="M646.746 744.483C646.746 745.762 645.709 746.798 644.431 746.798C643.152 746.798 642.116 745.762 642.116 744.483V475.608C642.116 474.33 643.152 473.294 644.431 473.294C645.709 473.294 646.746 474.33 646.746 475.608V744.483Z" fill="#173B55"></path><path d="M339.486 746.786C340.764 746.786 341.801 747.822 341.801 749.1C341.801 750.379 340.764 751.415 339.486 751.415H294.435C268.275 751.415 247.069 772.622 247.069 798.781V887.989C247.069 889.268 246.033 890.304 244.754 890.304C243.476 890.304 242.439 889.268 242.439 887.989V796.466C242.439 769.028 264.682 746.786 292.12 746.786H339.486Z" fill="#173B55"></path><path d="M436.861 749.1C436.861 747.822 437.897 746.786 439.175 746.786H492.239C493.518 746.786 494.554 747.822 494.554 749.1C494.554 750.379 493.518 751.415 492.239 751.415H439.175C437.897 751.415 436.861 750.379 436.861 749.1Z" fill="#173B55"></path><path d="M499.277 749.1C499.277 747.822 500.313 746.786 501.592 746.786H523.672C524.95 746.786 525.987 747.822 525.987 749.1C525.987 750.379 524.95 751.415 523.672 751.415H501.592C500.313 751.415 499.277 750.379 499.277 749.1Z" fill="#173B55"></path><path d="M714.666 749.1C714.666 747.822 715.702 746.786 716.981 746.786H835.573C836.851 746.786 837.888 747.822 837.888 749.1C837.888 750.379 836.851 751.415 835.573 751.415H716.981C715.702 751.415 714.666 750.379 714.666 749.1Z" fill="#173B55"></path><path d="M842.559 749.1C842.559 747.822 843.596 746.786 844.874 746.786H925.716C926.995 746.786 928.031 747.822 928.031 749.1C928.031 750.379 926.995 751.415 925.716 751.415H844.874C843.596 751.415 842.559 750.379 842.559 749.1Z" fill="#173B55"></path><path d="M346.041 749.1C346.041 747.822 347.077 746.786 348.356 746.786H429.91C431.189 746.786 432.225 747.822 432.225 749.1C432.225 750.379 431.189 751.415 429.91 751.415H348.356C347.077 751.415 346.041 750.379 346.041 749.1Z" fill="#173B55"></path><path d="M708.139 746.786C709.418 746.786 710.454 747.822 710.454 749.1C710.454 750.379 709.418 751.415 708.139 751.415H532.922C531.643 751.415 530.607 750.379 530.607 749.1C530.607 747.822 531.643 746.786 532.922 746.786H708.139Z" fill="#173B55"></path><path d="M261.315 615.936C261.315 614.658 262.351 613.622 263.629 613.622H339.486C340.764 613.622 341.801 614.658 341.801 615.936C341.801 617.215 340.764 618.251 339.486 618.251H263.629C262.351 618.251 261.315 617.215 261.315 615.936Z" fill="#173B55"></path><path d="M37.6998 615.936C37.6998 614.658 38.7361 613.622 40.0146 613.622H115.515C116.793 613.622 117.83 614.658 117.83 615.936C117.83 617.215 116.793 618.251 115.515 618.251H40.0146C38.7361 618.251 37.6998 617.215 37.6998 615.936Z" fill="#173B55"></path><path d="M122.401 615.936C122.401 614.658 123.437 613.622 124.716 613.622H254.348C255.627 613.622 256.663 614.658 256.663 615.936C256.663 617.215 255.627 618.251 254.348 618.251H124.716C123.437 618.251 122.401 617.215 122.401 615.936Z" fill="#173B55"></path><path d="M432.329 660.987C432.329 637.188 413.036 617.895 389.237 617.895H348.281C347.101 617.895 346.145 616.939 346.145 615.758C346.145 614.578 347.101 613.622 348.281 613.622H391.552C416.629 613.622 436.959 633.951 436.959 659.029V888.017C436.959 889.295 435.922 890.331 434.644 890.331C433.365 890.331 432.329 889.295 432.329 888.017V660.987Z" fill="#173B55"></path><path d="M256.346 95.6246C256.346 94.3462 257.382 93.3098 258.661 93.3098C259.939 93.3098 260.975 94.3462 260.975 95.6246V197.12C260.975 198.399 259.939 199.435 258.661 199.435C257.382 199.435 256.346 198.399 256.346 197.12V95.6246Z" fill="#173B55"></path><path d="M256.346 2.31488C256.346 1.03641 257.382 0 258.661 0C259.939 0 260.975 1.0364 260.975 2.31488V30.0926C260.975 31.371 259.939 32.4075 258.661 32.4075C257.382 32.4075 256.346 31.3711 256.346 30.0926V2.31488Z" fill="#173B55"></path><path d="M256.346 39.0051C256.346 37.7267 257.382 36.6903 258.661 36.6903C259.939 36.6903 260.975 37.7267 260.975 39.0051V86.3698C260.975 87.6482 259.939 88.6846 258.661 88.6846C257.382 88.6846 256.346 87.6482 256.346 86.3698V39.0051Z" fill="#173B55"></path><path d="M37.6998 698.187C37.6998 696.909 38.7361 695.872 40.0145 695.872H115.515C116.793 695.872 117.83 696.909 117.83 698.187C117.83 699.466 116.793 700.502 115.515 700.502H40.0145C38.7361 700.502 37.6998 699.466 37.6998 698.187Z" fill="#173B55"></path><path d="M256.702 206.213C256.702 205.033 257.658 204.077 258.839 204.077C260.019 204.077 260.975 205.033 260.975 206.213V469.746C260.975 470.927 260.019 471.883 258.839 471.883C257.658 471.883 256.702 470.927 256.702 469.746V206.213Z" fill="#173B55"></path><path d="M260.975 630.701C260.975 669.055 229.883 700.147 191.529 700.147H124.22C123.04 700.147 122.083 699.19 122.083 698.01C122.083 696.83 123.04 695.873 124.22 695.873H189.393C226.566 695.873 256.702 665.738 256.702 628.564V478.28C256.702 477.1 257.658 476.143 258.839 476.143C260.019 476.143 260.975 477.1 260.975 478.28V630.701Z" fill="#173B55"></path><path d="M499.283 201.732C499.283 200.454 500.319 199.418 501.598 199.418H586.001C587.28 199.418 588.316 200.454 588.316 201.732C588.316 203.011 587.28 204.047 586.001 204.047H501.598C500.319 204.047 499.283 203.011 499.283 201.732Z" fill="#173B55"></path><path d="M650.6 2.31486C650.6 1.0364 651.636 0 652.915 0C654.193 0 655.23 1.0364 655.23 2.31486V86.7166C655.23 87.9951 654.193 89.0315 652.915 89.0315C651.636 89.0315 650.6 87.9951 650.6 86.7166V2.31486Z" fill="#173B55"></path><path d="M37.6998 201.732C37.6998 200.454 38.7361 199.418 40.0146 199.418H115.515C116.793 199.418 117.83 200.454 117.83 201.732C117.83 203.011 116.793 204.047 115.515 204.047H40.0146C38.7361 204.047 37.6998 203.011 37.6998 201.732Z" fill="#173B55"></path><path d="M595.221 204.065C593.943 204.065 592.906 203.029 592.906 201.75C592.906 200.472 593.943 199.435 595.221 199.435H621.753C637.685 199.435 650.6 186.52 650.6 170.588V95.6246C650.6 94.3462 651.636 93.3098 652.915 93.3098C654.193 93.3098 655.23 94.3462 655.23 95.6246V172.903C655.23 190.113 641.278 204.065 624.068 204.065H595.221Z" fill="#173B55"></path><path d="M124.354 204.047C123.075 204.047 122.039 203.011 122.039 201.732C122.039 200.454 123.075 199.418 124.354 199.418H492.239C493.518 199.418 494.554 200.454 494.554 201.732C494.554 203.011 493.518 204.047 492.239 204.047H124.354Z" fill="#173B55"></path><path d="M835.751 469.035C836.931 469.035 837.888 469.991 837.888 471.171C837.888 472.351 836.931 473.308 835.751 473.308H629.371C606.654 473.308 588.238 454.892 588.238 432.176V393.358C588.238 392.079 589.275 391.043 590.553 391.043C591.832 391.043 592.868 392.079 592.868 393.358V430.039C592.868 451.576 610.327 469.035 631.864 469.035H835.751Z" fill="#173B55"></path><path d="M842.559 471.329C842.559 470.051 843.596 469.014 844.874 469.014H925.716C926.995 469.014 928.031 470.051 928.031 471.329C928.031 472.608 926.995 473.644 925.716 473.644H844.874C843.596 473.644 842.559 472.608 842.559 471.329Z" fill="#173B55"></path><path d="M588.271 2.31486C588.271 1.0364 589.307 0 590.586 0C591.864 0 592.901 1.0364 592.901 2.31486V86.7166C592.901 87.9951 591.864 89.0315 590.586 89.0315C589.307 89.0315 588.271 87.9951 588.271 86.7166V2.31486Z" fill="#173B55"></path><path d="M588.271 95.6246C588.271 94.3461 589.307 93.3098 590.586 93.3098C591.864 93.3098 592.901 94.3462 592.901 95.6246V384.443C592.901 385.721 591.864 386.757 590.586 386.757C589.307 386.757 588.271 385.721 588.271 384.443V95.6246Z" fill="#173B55"></path><path d="M842.559 389.081C842.559 387.802 843.596 386.766 844.874 386.766H925.716C926.995 386.766 928.031 387.802 928.031 389.081C928.031 390.359 926.995 391.396 925.716 391.396H844.874C843.596 391.396 842.559 390.359 842.559 389.081Z" fill="#173B55"></path><path d="M525.915 542.752C525.915 456.604 595.753 386.766 681.901 386.766H835.751C836.931 386.766 837.888 387.723 837.888 388.903C837.888 390.083 836.931 391.04 835.751 391.04H684.216C599.346 391.04 530.545 459.841 530.545 544.711V888.013C530.545 889.292 529.508 890.328 528.23 890.328C526.952 890.328 525.915 889.292 525.915 888.013V542.752Z" fill="#173B55"></path><path d="M835.751 313.039C836.931 313.039 837.888 313.996 837.888 315.176C837.888 316.356 836.931 317.313 835.751 317.313H771.291C734.51 317.313 704.694 287.496 704.694 250.716V95.4465C704.694 94.2664 705.651 93.3098 706.831 93.3098C708.011 93.3098 708.968 94.2664 708.968 95.4465V248.579C708.968 284.18 737.827 313.039 773.428 313.039H835.751Z" fill="#173B55"></path><path d="M842.559 315.351C842.559 314.073 843.596 313.036 844.874 313.036H925.716C926.995 313.036 928.031 314.073 928.031 315.351C928.031 316.63 926.995 317.666 925.716 317.666H844.874C843.596 317.666 842.559 316.63 842.559 315.351Z" fill="#173B55"></path><path d="M704.437 2.31486C704.437 1.0364 705.473 0 706.752 0C708.03 0 709.066 1.0364 709.066 2.31486V86.7166C709.066 87.9951 708.03 89.0315 706.752 89.0315C705.473 89.0315 704.437 87.9951 704.437 86.7166V2.31486Z" fill="#173B55"></path><path d="M837.983 2.31486C837.983 1.0364 839.02 0 840.298 0C841.576 0 842.613 1.0364 842.613 2.31486V86.7166C842.613 87.9951 841.576 89.0315 840.298 89.0315C839.02 89.0315 837.983 87.9951 837.983 86.7166V2.31486Z" fill="#173B55"></path><path d="M837.983 586.375C837.983 585.097 839.02 584.06 840.298 584.06C841.576 584.06 842.613 585.097 842.613 586.375V888.014C842.613 889.292 841.576 890.329 840.298 890.329C839.02 890.329 837.983 889.292 837.983 888.014V586.375Z" fill="#173B55"></path><path d="M837.983 95.6246C837.983 94.3462 839.02 93.3098 840.298 93.3098C841.576 93.3098 842.613 94.3462 842.613 95.6246V577.107C842.613 578.385 841.576 579.422 840.298 579.422C839.02 579.422 837.983 578.385 837.983 577.107V95.6246Z" fill="#173B55"></path><path d="M494.65 95.6246C494.65 94.3462 495.686 93.3098 496.964 93.3098C498.243 93.3098 499.279 94.3462 499.279 95.6246V888.005C499.279 889.283 498.243 890.319 496.964 890.319C495.686 890.319 494.65 889.283 494.65 888.005V95.6246Z" fill="#173B55"></path><path d="M470.967 32.4133C486.604 32.4133 499.279 45.089 499.279 60.7253V86.7224C499.279 88.0009 498.243 89.0373 496.964 89.0373C495.686 89.0373 494.65 88.0009 494.65 86.7224V62.862C494.65 48.4059 482.93 36.6868 468.474 36.6868H39.8674C38.6873 36.6868 37.7306 35.7301 37.7306 34.55C37.7306 33.3699 38.6873 32.4133 39.8674 32.4133H470.967Z" fill="#173B55"></path><path d="M117.868 478.28C117.868 477.1 118.825 476.143 120.005 476.143C121.185 476.143 122.142 477.1 122.142 478.28V888.181C122.142 889.361 121.185 890.318 120.005 890.318C118.825 890.318 117.868 889.361 117.868 888.181V478.28Z" fill="#173B55"></path><path d="M311.383 93.3041C206.846 93.3041 122.102 178.048 122.102 282.585V469.729C122.102 470.909 121.145 471.866 119.965 471.866C118.785 471.866 117.828 470.909 117.828 469.729V280.448C117.828 174.731 203.529 89.0306 309.246 89.0306H925.894C927.075 89.0306 928.031 89.9873 928.031 91.1674C928.031 92.3475 927.075 93.3041 925.894 93.3041H311.383Z" fill="#173B55"></path><path d="M710.434 688.198C710.434 628.11 759.145 579.399 819.233 579.399H925.716C926.995 579.399 928.031 580.436 928.031 581.714C928.031 582.992 926.995 584.029 925.716 584.029H821.369C762.462 584.029 714.707 631.783 714.707 690.691V888.16C714.707 889.34 713.751 890.297 712.571 890.297C711.391 890.297 710.434 889.34 710.434 888.16V688.198Z" fill="#173B55"></path><path d="M191.907 471.867C277.073 471.867 346.113 540.907 346.113 626.072V888.178C346.113 889.358 345.156 890.314 343.976 890.314C342.796 890.314 341.839 889.358 341.839 888.178V628.209C341.839 544.223 273.756 476.14 189.77 476.14H39.8383C38.6582 476.14 37.7015 475.183 37.7015 474.003C37.7015 472.823 38.6582 471.867 39.8383 471.867H191.907Z" fill="#173B55"></path><path d="M707.25 326.576C700.563 326.576 695.142 321.155 695.142 314.467C695.142 307.78 700.563 302.359 707.25 302.359C713.938 302.359 719.359 307.78 719.359 314.467C719.359 321.155 713.938 326.576 707.25 326.576Z" fill="#39E1D7"></path><path d="M372.122 199.77C372.122 206.537 377.464 211.879 384.231 211.879C390.997 211.879 396.339 206.537 396.339 199.77C396.339 193.004 390.997 187.662 384.231 187.662C377.464 187.662 372.122 193.004 372.122 199.77Z" fill="#39E1D7"></path><path d="M484.942 199.77C484.942 206.537 490.284 211.879 497.051 211.879C503.817 211.879 509.159 206.537 509.159 199.77C509.159 193.004 503.817 187.662 497.051 187.662C490.284 187.662 484.942 193.004 484.942 199.77Z" fill="#39E1D7"></path><path d="M110.027 93.3136C110.027 100.08 115.369 105.422 122.135 105.422C128.902 105.422 134.244 100.08 134.244 93.3136C134.244 86.5472 128.902 81.2053 122.135 81.2053C115.369 81.2053 110.027 86.5472 110.027 93.3136Z" fill="#39E1D7"></path><path d="M631.425 389.587C631.425 396.353 636.767 401.695 643.534 401.695C650.3 401.695 655.642 396.353 655.642 389.587C655.642 382.82 650.3 377.478 643.534 377.478C636.767 377.478 631.425 382.82 631.425 389.587Z" fill="#39E1D7"></path><path d="M373.51 537.046C373.51 543.812 378.852 549.154 385.618 549.154C392.385 549.154 397.727 543.812 397.727 537.046C397.727 530.28 392.385 524.938 385.618 524.938C378.852 524.938 373.51 530.28 373.51 537.046Z" fill="#39E1D7"></path><path d="M421.647 618.219C421.647 624.985 426.989 630.327 433.755 630.327C440.522 630.327 445.864 624.985 445.864 618.219C445.864 611.452 440.522 606.11 433.755 606.11C426.989 606.11 421.647 611.452 421.647 618.219Z" fill="#39E1D7"></path><path d="M234.676 751.418C234.676 758.184 240.018 763.526 246.785 763.526C253.551 763.526 258.893 758.184 258.893 751.418C258.893 744.651 253.551 739.309 246.785 739.309C240.018 739.309 234.676 744.651 234.676 751.418Z" fill="#39E1D7"></path><path d="M107.524 695.529C107.524 702.296 112.866 707.638 119.632 707.638C126.399 707.638 131.741 702.296 131.741 695.529C131.741 688.763 126.399 683.421 119.632 683.421C112.866 683.421 107.524 688.763 107.524 695.529Z" fill="#39E1D7"></path><path d="M828.276 389.587C828.276 396.353 833.618 401.695 840.384 401.695C847.151 401.695 852.493 396.353 852.493 389.587C852.493 382.82 847.151 377.478 840.384 377.478C833.618 377.478 828.276 382.82 828.276 389.587Z" fill="#39E1D7"></path><path d="M705.435 582.257C705.435 589.024 710.777 594.366 717.544 594.366C724.31 594.366 729.652 589.024 729.652 582.257C729.652 575.491 724.31 570.149 717.544 570.149C710.777 570.149 705.435 575.491 705.435 582.257Z" fill="#39E1D7"></path><path d="M521.369 391.024C521.369 396.366 525.643 400.639 530.985 400.639C536.327 400.639 540.6 396.366 540.6 391.024C540.6 385.682 536.327 381.409 530.985 381.409C525.643 381.409 521.369 385.682 521.369 391.024Z" fill="#39E1D7"></path><path d="M582.161 468.648C582.161 473.99 586.435 478.264 591.777 478.264C597.119 478.264 601.393 473.99 601.393 468.648C601.393 463.307 597.119 459.033 591.777 459.033C586.435 459.033 582.161 463.307 582.161 468.648Z" fill="#39E1D7"></path><path d="M635.998 468.648C635.998 473.99 640.272 478.264 645.614 478.264C650.956 478.264 655.229 473.99 655.229 468.648C655.229 463.307 650.956 459.033 645.614 459.033C640.272 459.033 635.998 463.307 635.998 468.648Z" fill="#39E1D7"></path><path d="M635.998 537.405C635.998 542.747 640.272 547.021 645.614 547.021C650.956 547.021 655.229 542.747 655.229 537.405C655.229 532.063 650.956 527.79 645.614 527.79C640.272 527.79 635.998 532.063 635.998 537.405Z" fill="#39E1D7"></path><path d="M519.56 537.405C519.56 542.747 523.834 547.021 529.176 547.021C534.518 547.021 538.791 542.747 538.791 537.405C538.791 532.063 534.518 527.79 529.176 527.79C523.834 527.79 519.56 532.063 519.56 537.405Z" fill="#39E1D7"></path><path d="M335.374 613.952C335.374 619.294 339.647 623.567 344.989 623.567C350.331 623.567 354.605 619.294 354.605 613.952C354.605 608.61 350.331 604.336 344.989 604.336C339.647 604.336 335.374 608.61 335.374 613.952Z" fill="#39E1D7"></path><path d="M248.559 613.952C248.559 619.294 252.833 623.567 258.175 623.567C263.517 623.567 267.79 619.294 267.79 613.952C267.79 608.61 263.517 604.336 258.175 604.336C252.833 604.336 248.559 608.61 248.559 613.952Z" fill="#39E1D7"></path><path d="M258.175 482.89C252.864 482.89 248.559 478.585 248.559 473.275C248.559 467.964 252.864 463.659 258.175 463.659C263.485 463.659 267.79 467.964 267.79 473.275C267.79 478.585 263.485 482.89 258.175 482.89Z" fill="#39E1D7"></path><path d="M120.729 482.89C115.418 482.89 111.113 478.585 111.113 473.275C111.113 467.964 115.418 463.659 120.729 463.659C126.039 463.659 130.344 467.964 130.344 473.275C130.344 478.585 126.039 482.89 120.729 482.89Z" fill="#39E1D7"></path><path d="M111.394 328.702C111.394 334.044 115.668 338.318 121.01 338.318C126.352 338.318 130.625 334.044 130.625 328.702C130.625 323.361 126.352 319.087 121.01 319.087C115.668 319.087 111.394 323.361 111.394 328.702Z" fill="#39E1D7"></path><path d="M249.261 328.702C249.261 334.044 253.535 338.318 258.877 338.318C264.219 338.318 268.493 334.044 268.493 328.702C268.493 323.361 264.219 319.087 258.877 319.087C253.535 319.087 249.261 323.361 249.261 328.702Z" fill="#39E1D7"></path><path d="M249.261 201.208C249.261 206.549 253.535 210.823 258.877 210.823C264.219 210.823 268.493 206.549 268.493 201.208C268.493 195.866 264.219 191.592 258.877 191.592C253.535 191.592 249.261 195.866 249.261 201.208Z" fill="#39E1D7"></path><path d="M249.261 90.4387C249.261 95.7805 253.535 100.054 258.877 100.054C264.219 100.054 268.493 95.7805 268.493 90.4387C268.493 85.0968 264.219 80.8233 258.877 80.8233C253.535 80.8233 249.261 85.0968 249.261 90.4387Z" fill="#39E1D7"></path><path d="M258.877 43.4367C253.566 43.4367 249.261 39.1318 249.261 33.8213C249.261 28.5109 253.566 24.2059 258.877 24.2059C264.188 24.2059 268.493 28.5109 268.493 33.8213C268.493 39.1318 264.188 43.4367 258.877 43.4367Z" fill="#39E1D7"></path><path d="M383.799 43.4367C378.489 43.4367 374.183 39.1318 374.183 33.8213C374.183 28.5109 378.489 24.2059 383.799 24.2059C389.11 24.2059 393.415 28.5109 393.415 33.8213C393.415 39.1318 389.11 43.4367 383.799 43.4367Z" fill="#39E1D7"></path><path d="M497.172 43.4367C491.862 43.4367 487.557 39.1318 487.557 33.8213C487.557 28.5109 491.862 24.2059 497.172 24.2059C502.483 24.2059 506.788 28.5109 506.788 33.8213C506.788 39.1318 502.483 43.4367 497.172 43.4367Z" fill="#39E1D7"></path><path d="M487.557 90.8207C487.557 96.1626 491.83 100.436 497.172 100.436C502.514 100.436 506.788 96.1626 506.788 90.8207C506.788 85.4788 502.514 81.2053 497.172 81.2053C491.83 81.2053 487.557 85.4788 487.557 90.8207Z" fill="#39E1D7"></path><path d="M373.903 90.8207C373.903 96.1626 378.176 100.436 383.518 100.436C388.86 100.436 393.134 96.1626 393.134 90.8207C393.134 85.4788 388.86 81.2053 383.518 81.2053C378.176 81.2053 373.903 85.4788 373.903 90.8207Z" fill="#39E1D7"></path><path d="M108.197 201.208C108.197 206.549 112.471 210.823 117.813 210.823C123.155 210.823 127.428 206.549 127.428 201.208C127.428 195.866 123.155 191.592 117.813 191.592C112.471 191.592 108.197 195.866 108.197 201.208Z" fill="#39E1D7"></path><path d="M642.392 201.208C642.392 206.549 646.665 210.823 652.007 210.823C657.349 210.823 661.623 206.549 661.623 201.208C661.623 195.866 657.349 191.592 652.007 191.592C646.665 191.592 642.392 195.866 642.392 201.208Z" fill="#39E1D7"></path><path d="M373.209 328.702C373.209 334.044 377.482 338.318 382.824 338.318C388.166 338.318 392.44 334.044 392.44 328.702C392.44 323.361 388.166 319.087 382.824 319.087C377.482 319.087 373.209 323.361 373.209 328.702Z" fill="#39E1D7"></path><path d="M488.259 328.702C488.259 334.044 492.533 338.318 497.875 338.318C503.217 338.318 507.49 334.044 507.49 328.702C507.49 323.361 503.217 319.087 497.875 319.087C492.533 319.087 488.259 323.361 488.259 328.702Z" fill="#39E1D7"></path><path d="M580.765 328.702C580.765 334.044 585.039 338.318 590.381 338.318C595.723 338.318 599.996 334.044 599.996 328.702C599.996 323.361 595.723 319.087 590.381 319.087C585.039 319.087 580.765 323.361 580.765 328.702Z" fill="#39E1D7"></path><path d="M110.7 613.952C110.7 619.294 114.974 623.567 120.316 623.567C125.658 623.567 129.932 619.294 129.932 613.952C129.932 608.61 125.658 604.336 120.316 604.336C114.974 604.336 110.7 608.61 110.7 613.952Z" fill="#39E1D7"></path><path d="M334.399 748.925C334.399 754.267 338.672 758.54 344.014 758.54C349.356 758.54 353.63 754.267 353.63 748.925C353.63 743.583 349.356 739.309 344.014 739.309C338.672 739.309 334.399 743.583 334.399 748.925Z" fill="#39E1D7"></path><path d="M426.211 748.925C426.211 754.267 430.485 758.54 435.827 758.54C441.169 758.54 445.442 754.267 445.442 748.925C445.442 743.583 441.169 739.309 435.827 739.309C430.485 739.309 426.211 743.583 426.211 748.925Z" fill="#39E1D7"></path><path d="M487.557 748.925C487.557 754.267 491.83 758.54 497.172 758.54C502.514 758.54 506.788 754.267 506.788 748.925C506.788 743.583 502.514 739.309 497.172 739.309C491.83 739.309 487.557 743.583 487.557 748.925Z" fill="#39E1D7"></path><path d="M487.557 537.023C487.557 542.365 491.83 546.638 497.172 546.638C502.514 546.638 506.788 542.365 506.788 537.023C506.788 531.681 502.514 527.408 497.172 527.408C491.83 527.408 487.557 531.681 487.557 537.023Z" fill="#39E1D7"></path><path d="M518.857 748.925C518.857 754.267 523.131 758.54 528.473 758.54C533.815 758.54 538.089 754.267 538.089 748.925C538.089 743.583 533.815 739.309 528.473 739.309C523.131 739.309 518.857 743.583 518.857 748.925Z" fill="#39E1D7"></path><path d="M635.998 749.654C635.998 754.995 640.272 759.269 645.614 759.269C650.956 759.269 655.229 754.995 655.229 749.654C655.229 744.312 650.956 740.038 645.614 740.038C640.272 740.038 635.998 744.312 635.998 749.654Z" fill="#39E1D7"></path><path d="M634.883 328.356C634.883 333.697 639.156 337.971 644.498 337.971C649.84 337.971 654.114 333.697 654.114 328.356C654.114 323.014 649.84 318.74 644.498 318.74C639.156 318.74 634.883 323.014 634.883 328.356Z" fill="#39E1D7"></path><path d="M830.758 583.345C830.758 588.687 835.032 592.961 840.374 592.961C845.716 592.961 849.99 588.687 849.99 583.345C849.99 578.003 845.716 573.73 840.374 573.73C835.032 573.73 830.758 578.003 830.758 583.345Z" fill="#39E1D7"></path><path d="M830.758 316.251C830.758 321.593 835.032 325.867 840.374 325.867C845.716 325.867 849.99 321.593 849.99 316.251C849.99 310.91 845.716 306.636 840.374 306.636C835.032 306.636 830.758 310.91 830.758 316.251Z" fill="#39E1D7"></path><path d="M830.758 89.7427C830.758 95.0846 835.032 99.3581 840.374 99.3581C845.716 99.3581 849.99 95.0846 849.99 89.7427C849.99 84.4008 845.716 80.1273 840.374 80.1273C835.032 80.1273 830.758 84.4008 830.758 89.7427Z" fill="#39E1D7"></path><path d="M697.906 89.7427C697.906 95.0846 702.179 99.3581 707.521 99.3581C712.863 99.3581 717.137 95.0846 717.137 89.7427C717.137 84.4008 712.863 80.1273 707.521 80.1273C702.179 80.1273 697.906 84.4008 697.906 89.7427Z" fill="#39E1D7"></path><path d="M580.071 90.0917C580.071 95.4336 584.345 99.7071 589.687 99.7071C595.029 99.7071 599.302 95.4336 599.302 90.0917C599.302 84.7498 595.029 80.4763 589.687 80.4763C584.345 80.4763 580.071 84.7498 580.071 90.0917Z" fill="#39E1D7"></path><path d="M580.071 200.859C580.071 206.2 584.345 210.474 589.687 210.474C595.029 210.474 599.302 206.2 599.302 200.859C599.302 195.517 595.029 191.243 589.687 191.243C584.345 191.243 580.071 195.517 580.071 200.859Z" fill="#39E1D7"></path><path d="M830.758 747.882C830.758 753.224 835.032 757.497 840.374 757.497C845.716 757.497 849.99 753.224 849.99 747.882C849.99 742.54 845.716 738.266 840.374 738.266C835.032 738.266 830.758 742.54 830.758 747.882Z" fill="#39E1D7"></path><path d="M830.758 540.257C830.758 545.599 835.032 549.873 840.374 549.873C845.716 549.873 849.99 545.599 849.99 540.257C849.99 534.915 845.716 530.642 840.374 530.642C835.032 530.642 830.758 534.915 830.758 540.257Z" fill="#39E1D7"></path><path d="M830.758 470.805C830.758 476.146 835.032 480.42 840.374 480.42C845.716 480.42 849.99 476.146 849.99 470.805C849.99 465.463 845.716 461.189 840.374 461.189C835.032 461.189 830.758 465.463 830.758 470.805Z" fill="#39E1D7"></path><path d="M699.735 749.294C699.735 756.061 705.077 761.403 711.844 761.403C718.61 761.403 723.952 756.061 723.952 749.294C723.952 742.528 718.61 737.186 711.844 737.186C705.077 737.186 699.735 742.528 699.735 749.294Z" fill="#39E1D7"></path><rect x="33.3477" width="887.387" height="523.442" fill="url(#paint0_linear_364_2163)"></rect><rect x="33.3477" width="887.387" height="523.442" fill="url(#paint1_linear_364_2163)"></rect><rect x="920.734" y="913.486" width="887.386" height="523.442" transform="rotate(180 920.734 913.486)" fill="url(#paint2_linear_364_2163)"></rect><rect x="920.734" y="913.486" width="887.386" height="523.442" transform="rotate(180 920.734 913.486)" fill="url(#paint3_linear_364_2163)"></rect><path fill-rule="evenodd" clip-rule="evenodd" d="M210.42 416H214.866C217.491 416 219.571 416 221.199 416.219C222.873 416.444 224.229 416.919 225.299 417.987C226.619 419.309 227.04 421.077 227.193 423.373C228.017 423.734 228.64 424.501 228.707 425.473C228.714 425.56 228.714 425.653 228.714 425.739V431.261C228.714 431.347 228.714 431.44 228.709 431.526C228.64 432.497 228.017 433.266 227.193 433.629C227.04 435.923 226.619 437.691 225.299 439.013C224.229 440.081 222.873 440.556 221.199 440.781C219.57 441 217.491 441 214.866 441H210.42C207.794 441 205.714 441 204.087 440.781C202.413 440.556 201.057 440.081 199.987 439.013C198.919 437.943 198.444 436.587 198.219 434.913C198 433.284 198 431.206 198 428.58V428.42C198 425.794 198 423.714 198.219 422.087C198.444 420.413 198.919 419.057 199.987 417.987C201.057 416.919 202.413 416.444 204.087 416.219C205.716 416 207.794 416 210.42 416ZM225.026 433.857H222.257C219.193 433.857 216.57 431.531 216.57 428.5C216.57 425.469 219.193 423.143 222.256 423.143H225.024C224.861 421.227 224.494 420.214 223.781 419.503C223.177 418.899 222.349 418.536 220.911 418.343C219.444 418.146 217.509 418.143 214.784 418.143H210.499C207.774 418.143 205.84 418.146 204.37 418.343C202.934 418.536 202.106 418.899 201.501 419.503C200.897 420.107 200.534 420.936 200.341 422.373C200.144 423.841 200.141 425.776 200.141 428.5C200.141 431.224 200.144 433.16 200.341 434.629C200.534 436.064 200.897 436.893 201.501 437.497C202.106 438.101 202.934 438.464 204.371 438.657C205.84 438.854 207.774 438.857 210.499 438.857H214.784C217.509 438.857 219.444 438.854 220.913 438.657C222.349 438.464 223.177 438.101 223.781 437.497C224.494 436.786 224.863 435.774 225.026 433.857ZM203.714 422.786C203.714 422.502 203.827 422.229 204.028 422.028C204.229 421.827 204.502 421.714 204.786 421.714H210.5C210.784 421.714 211.057 421.827 211.258 422.028C211.459 422.229 211.571 422.502 211.571 422.786C211.571 423.07 211.459 423.342 211.258 423.543C211.057 423.744 210.784 423.857 210.5 423.857H204.786C204.502 423.857 204.229 423.744 204.028 423.543C203.827 423.342 203.714 423.07 203.714 422.786ZM226.106 425.286H222.257C220.223 425.286 218.713 426.799 218.713 428.5C218.713 430.201 220.223 431.714 222.256 431.714H226.139C226.433 431.696 226.56 431.497 226.57 431.377V425.623C226.56 425.503 226.433 425.304 226.139 425.287L226.106 425.286Z" fill="white"></path><path d="M259.807 449.581C259.425 449.853 258.969 450 258.5 450C258.031 450 257.575 449.853 257.193 449.581C245.925 441.55 233.967 425.029 246.056 413.091C249.374 409.825 253.844 407.996 258.5 408C263.167 408 267.645 409.832 270.944 413.089C283.033 425.027 271.075 441.545 259.807 449.581Z" stroke="white" stroke-width="3.5001" stroke-linecap="round" stroke-linejoin="round"></path><path d="M258.499 429.001C259.737 429.001 260.924 428.509 261.799 427.634C262.674 426.759 263.166 425.572 263.166 424.334C263.166 423.096 262.674 421.909 261.799 421.034C260.924 420.159 259.737 419.667 258.499 419.667C257.261 419.667 256.074 420.159 255.199 421.034C254.324 421.909 253.832 423.096 253.832 424.334C253.832 425.572 254.324 426.759 255.199 427.634C256.074 428.509 257.261 429.001 258.499 429.001Z" stroke="white" stroke-width="3.5001" stroke-linecap="round" stroke-linejoin="round"></path></g></g><defs><linearGradient id="paint0_linear_364_2163" x1="477.041" y1="0" x2="477.041" y2="523.442" gradientUnits="userSpaceOnUse"><stop stop-color="#0D253C"></stop><stop offset="0.9999" stop-color="#0D253C" stop-opacity="0.01"></stop><stop offset="1" stop-color="#0F2A44" stop-opacity="0"></stop></linearGradient><linearGradient id="paint1_linear_364_2163" x1="477.041" y1="0" x2="477.041" y2="523.442" gradientUnits="userSpaceOnUse"><stop stop-color="#0D253C"></stop><stop offset="0.9999" stop-color="#0D253C" stop-opacity="0.01"></stop><stop offset="1" stop-color="#0F2A44" stop-opacity="0"></stop></linearGradient><linearGradient id="paint2_linear_364_2163" x1="1364.43" y1="913.486" x2="1364.43" y2="1436.93" gradientUnits="userSpaceOnUse"><stop stop-color="#0D253C"></stop><stop offset="0.9999" stop-color="#0D253C" stop-opacity="0.01"></stop><stop offset="1" stop-color="#0F2A44" stop-opacity="0"></stop></linearGradient><linearGradient id="paint3_linear_364_2163" x1="1364.43" y1="913.486" x2="1364.43" y2="1436.93" gradientUnits="userSpaceOnUse"><stop stop-color="#0D253C"></stop><stop offset="0.9999" stop-color="#0D253C" stop-opacity="0.01"></stop><stop offset="1" stop-color="#0F2A44" stop-opacity="0"></stop></linearGradient><clipPath id="clip0_364_2163"><rect width="431" height="913" fill="white"></rect></clipPath><clipPath id="clip1_364_2163"><rect x="62.3477" y="30.4492" width="865.637" height="852.587" rx="426.294" fill="white"></rect></clipPath></defs></svg>