<svg xmlns="http://www.w3.org/2000/svg" width="146" height="131" viewBox="0 0 146 131" fill="none"><path d="M131.003 131C134.863 131 138.565 129.466 141.295 126.737C144.025 124.007 145.558 120.305 145.558 116.444V80.8998C145.558 77.0394 144.025 73.3371 141.295 70.6074C138.565 67.8777 134.863 66.3442 131.003 66.3442H110.8C110.8 61.2304 111.1 56.1165 111.702 51.0027C112.604 45.588 114.109 40.775 116.214 36.5636C118.32 32.3521 121.032 29.0383 124.351 26.6221C127.65 23.9148 131.861 22.5611 136.985 22.5611V0C128.562 0 121.187 1.80489 114.861 5.41467C108.578 8.97896 103.179 13.9145 99.0678 19.8538C94.9283 26.3914 91.8803 33.5591 90.0433 41.0758C88.1858 49.3687 87.2775 57.846 87.336 66.3442V116.444C87.336 120.305 88.8695 124.007 91.5992 126.737C94.3289 129.466 98.0312 131 101.892 131H131.003ZM43.6693 131C47.5297 131 51.232 129.466 53.9617 126.737C56.6913 124.007 58.2249 120.305 58.2249 116.444V80.8998C58.2249 77.0394 56.6913 73.3371 53.9617 70.6074C51.232 67.8777 47.5297 66.3442 43.6693 66.3442H23.4662C23.4662 61.2304 23.767 56.1165 24.3687 51.0027C25.2808 45.588 26.7849 40.775 28.8809 36.5636C30.9866 32.3521 33.6988 29.0383 37.0174 26.6221C40.3167 23.9148 44.5281 22.5611 49.6517 22.5611V0C41.2288 0 33.854 1.80489 27.5272 5.41467C21.2442 8.97896 15.846 13.9145 11.7344 19.8538C7.59499 26.3914 4.54701 33.5591 2.70999 41.0758C0.852459 49.3687 -0.0558244 57.846 0.0026534 66.3442V116.444C0.0026534 120.305 1.53618 124.007 4.26588 126.737C6.99557 129.466 10.6978 131 14.5582 131H43.6693Z" fill="#88B7D8"></path></svg>