<svg xmlns="http://www.w3.org/2000/svg" width="411" height="47" fill="none"><g><title>Layer 1</title><rect stroke="#AEE2FF" id="svg_1" height="46" width="321.99999" y="0.5"></rect><g id="svg_10"><path id="svg_5" fill="#39E1D7" d="m393.37,31.00005l0,-2.7678l-6.551,0l0,-1.1993l6.274,-8.9491l1.808,0l0,8.783l1.919,0l0,1.3654l-1.919,0l0,2.7678l-1.531,0zm-4.835,-4.1332l4.908,0l0,-7.067l-4.908,7.067zm10.6,4.2254c-0.307,0 -0.566,-0.0984 -0.775,-0.2952c-0.197,-0.2091 -0.295,-0.4613 -0.295,-0.7565c0,-0.2953 0.098,-0.5413 0.295,-0.7381c0.209,-0.2091 0.468,-0.3137 0.775,-0.3137c0.295,0 0.541,0.1046 0.738,0.3137c0.209,0.1968 0.314,0.4428 0.314,0.7381c0,0.2952 -0.105,0.5474 -0.314,0.7565c-0.197,0.1968 -0.443,0.2952 -0.738,0.2952zm6.865,0.1292c-0.812,0 -1.507,-0.1599 -2.085,-0.4798c-0.578,-0.3198 -1.04,-0.7442 -1.384,-1.2731c-0.332,-0.5413 -0.535,-1.1379 -0.609,-1.7898l1.439,0c0.123,0.7011 0.419,1.2424 0.886,1.6237c0.467,0.3813 1.058,0.572 1.771,0.572c0.984,0 1.802,-0.4551 2.454,-1.3654c0.652,-0.9226 1.003,-2.3557 1.052,-4.2992c-0.295,0.5781 -0.769,1.0825 -1.421,1.513c-0.639,0.4182 -1.414,0.6273 -2.325,0.6273c-0.725,0 -1.414,-0.1722 -2.066,-0.5166c-0.652,-0.3444 -1.181,-0.8242 -1.587,-1.4392c-0.406,-0.6274 -0.609,-1.3593 -0.609,-2.1958c0,-0.7257 0.178,-1.4207 0.535,-2.085c0.369,-0.6643 0.886,-1.2055 1.55,-1.6237c0.664,-0.4183 1.458,-0.6274 2.38,-0.6274c0.935,0 1.723,0.1784 2.362,0.5351c0.64,0.3444 1.15,0.8119 1.532,1.4023c0.393,0.5905 0.676,1.2547 0.848,1.9928c0.185,0.7258 0.277,1.47 0.277,2.2326c0,1.427 -0.197,2.6817 -0.59,3.7642c-0.394,1.0702 -0.966,1.9128 -1.716,2.5278c-0.738,0.6028 -1.636,0.9042 -2.694,0.9042zm0.092,-6.2182c0.578,0 1.095,-0.1292 1.55,-0.3875c0.455,-0.2706 0.818,-0.6274 1.089,-1.0702c0.27,-0.4428 0.406,-0.9226 0.406,-1.4392c0,-0.5536 -0.136,-1.0456 -0.406,-1.4762c-0.271,-0.4428 -0.634,-0.7872 -1.089,-1.0332c-0.455,-0.2461 -0.972,-0.3691 -1.55,-0.3691c-0.578,0 -1.095,0.123 -1.55,0.3691c-0.455,0.246 -0.812,0.5904 -1.07,1.0332c-0.258,0.4306 -0.388,0.9288 -0.388,1.4946c0,0.8734 0.283,1.5746 0.849,2.1035c0.578,0.5167 1.298,0.775 2.159,0.775z"></path><path id="svg_6" fill="#39E1D7" d="m338.074,35.71755l2.09,-9.0346l-7.009,-6.0766l9.26,-0.8038l3.601,-8.5201l3.601,8.5201l9.259,0.8038l-7.009,6.0766l2.09,9.0346l-7.941,-4.7906l-7.942,4.7906z" opacity="0.2"></path><path id="svg_7" fill="#39E1D7" d="m344.727,35.71755l2.089,-9.0346l-7.009,-6.0766l9.26,-0.8038l3.601,-8.5201l3.601,8.5201l9.259,0.8038l-7.009,6.0766l2.09,9.0346l-7.941,-4.7906l-7.941,4.7906z" opacity="0.4"></path><path id="svg_8" fill="#39E1D7" d="m353.039,35.71755l2.09,-9.0346l-7.009,-6.0766l9.259,-0.8038l3.601,-8.5201l3.601,8.5201l9.26,0.8038l-7.009,6.0766l2.09,9.0346l-7.942,-4.7906l-7.941,4.7906z" opacity="0.6"></path><path id="svg_9" fill="#39E1D7" d="m361.352,35.71755l2.089,-9.0346l-7.009,-6.0766l9.26,-0.8038l3.601,-8.5201l3.601,8.5201l9.259,0.8038l-7.009,6.0766l2.09,9.0346l-7.941,-4.7906l-7.941,4.7906z" opacity="0.8"></path></g><g id="svg_14"><path id="svg_2" fill="#AEE2FF" d="m111.8337,27.50006l-3.6921,-7.7436l1.4703,0l2.9515,6.3277l3.104,-6.3277l1.4594,0l-3.9099,7.7436l-1.3832,0zm14.5033,0l-7.5149,0l0,-7.7436l7.2971,0l0,1.1435l-6.0011,0l0,2.2001l5.0753,0l0,1.1326l-5.0753,0l0,2.0803l6.2189,0l0,1.1871zm3.3566,-2.7446l0,2.7446l-1.3396,0l0,-7.7436l4.0951,0c2.6683,0 3.7574,0.7297 3.7574,2.3743c0,1.198 -0.5881,1.8079 -1.8188,2.0693c1.198,0.2505 1.6772,0.8931 1.6772,2.3198l0,0.4901c0,0.2069 0.0436,0.403 0.1852,0.4901l-1.4268,0c-0.1415,-0.0762 -0.1742,-0.2941 -0.1742,-0.501l0,-0.4792c0,-0.4574 -0.0654,-0.806 -0.1961,-1.0564c-0.2722,-0.5228 -0.8821,-0.708 -2.0039,-0.708l-2.7555,0zm2.6901,-1.1544c0.4792,0 0.9149,-0.0327 1.2743,-0.0872c0.7297,-0.1307 1.1653,-0.4792 1.1653,-1.2198l0,-0.0871c0,-1.0347 -0.7406,-1.2961 -2.3851,-1.2961l-2.7446,0l0,2.6902l2.6901,0zm5.7047,3.899l0,-1.2525l2.0911,0l0,-5.2822l-2.0911,0l0,-1.2089l5.4674,0l0,1.2089l-2.0911,0l0,5.2822l2.0911,0l0,1.2525l-5.4674,0zm8.967,-2.9624l0,2.9624l-1.3287,0l0,-7.7436l7.101,0l0,1.198l-5.7723,0l0,2.3852l5.5218,0l0,1.198l-5.5218,0zm7.5655,2.9624l0,-1.2525l2.0911,0l0,-5.2822l-2.0911,0l0,-1.2089l5.4673,0l0,1.2089l-2.0911,0l0,5.2822l2.0911,0l0,1.2525l-5.4673,0zm15.1531,0l-7.5149,0l0,-7.7436l7.2969,0l0,1.1435l-6.001,0l0,2.2001l5.075,0l0,1.1326l-5.075,0l0,2.0803l6.219,0l0,1.1871zm2.017,-7.7436l3.507,0c0.958,0 1.786,0.1307 2.505,0.3921c1.427,0.5227 2.244,1.6336 2.244,3.4742l0,0.0327c0,0.9149 -0.186,1.6555 -0.567,2.2218c-0.762,1.1436 -2.156,1.6228 -4.051,1.6228l-3.638,0l0,-7.7436zm1.329,1.1762l0,5.3803l2.243,0c0.73,0 1.318,-0.0763 1.819,-0.2505c0.991,-0.3377 1.492,-1.0892 1.492,-2.4288l0,-0.0217c0,-1.9714 -1.209,-2.6793 -3.43,-2.6793l-2.124,0zm21.556,3.4961c-0.12,0.6535 -0.359,1.2198 -0.729,1.7208c-0.741,0.9911 -2.004,1.5574 -3.889,1.5574c-0.947,0 -1.753,-0.1416 -2.439,-0.4356c-1.372,-0.5664 -2.135,-1.7426 -2.135,-3.5505l0,-0.0327c0,-0.8604 0.196,-1.5901 0.61,-2.2c0.806,-1.2307 2.265,-1.906 4.106,-1.906c0.773,0 1.438,0.1198 2.069,0.3376c1.242,0.4575 2.091,1.3505 2.364,2.7337l-1.438,0c-0.272,-1.1871 -1.263,-1.8515 -2.984,-1.8515c-2.059,0 -3.333,0.9367 -3.333,2.8971l0,0.0109c0,1.8515 1.155,2.7772 3.257,2.7772c1.96,0 2.864,-0.8277 3.093,-2.0584l1.448,0zm6.371,3.2782c-0.893,0 -1.677,-0.1524 -2.374,-0.4247c-1.383,-0.5881 -2.211,-1.7317 -2.211,-3.5723l0,-0.0327c0,-0.8713 0.185,-1.6119 0.599,-2.2218c0.806,-1.2307 2.222,-1.8733 3.986,-1.8733c0.872,0 1.656,0.1634 2.353,0.4683c1.405,0.6317 2.265,1.8406 2.265,3.6159l0,0.0545c0,0.9039 -0.196,1.6336 -0.61,2.2327c-0.806,1.1871 -2.243,1.7534 -4.008,1.7534zm-0.01,-1.2198c0.642,0 1.208,-0.098 1.688,-0.2831c0.98,-0.3703 1.557,-1.1654 1.557,-2.4941c0,-0.6862 -0.131,-1.2307 -0.403,-1.6555c-0.544,-0.8604 -1.514,-1.2525 -2.832,-1.2525c-1.971,0 -3.202,0.8931 -3.202,2.8971l0,0.0109c0,0.6317 0.131,1.1435 0.403,1.5574c0.545,0.8277 1.514,1.2198 2.789,1.2198zm8.125,-4.8792l0,5.8921l-1.307,0l0,-7.7436l1.285,0l3.388,3.5941l3.474,-3.5941l1.209,0l0,7.7436l-1.307,0l0,-5.903l-3.344,3.4089l-0.141,0l-3.257,-3.398zm12,3.4525l0,2.4396l-1.329,0l0,-7.7436l3.899,0c2.789,0 3.9,0.8386 3.9,2.6792c0,1.7317 -1.242,2.6357 -3.747,2.6248l-2.723,0zm0,-4.1605l0,3.0169l2.658,0c1.72,0 2.461,-0.3812 2.461,-1.4921c0,-0.4139 -0.098,-0.7188 -0.272,-0.9366c-0.36,-0.4357 -1.111,-0.5882 -2.277,-0.5882l-2.57,0zm13.729,4.6615l-4.64,0l-0.969,1.9386l-1.459,0l4.019,-7.7436l1.405,0l4.084,7.7436l-1.438,0l-1.002,-1.9386zm-2.352,-4.5743l-1.732,3.4634l3.518,0l-1.786,-3.4634zm7.803,0.4465l0,6.0664l-1.306,0l0,-7.7436l1.372,0l5.151,5.598l0.305,0.3812l0,-5.9792l1.296,0l0,7.7436l-1.274,0l-5.249,-5.707l-0.295,-0.3594zm11.944,6.0664l0,-3.2129l-3.551,-4.5307l1.656,0l2.624,3.4307l2.843,-3.4307l1.645,0l-3.812,4.5525l0,3.1911l-1.405,0z"></path><path id="svg_3" fill="#AEE2FF" d="m86,10.46295l-11,3.72491l0,11.1746c0,6.1722 4.9242,11.1746 11,11.1746c6.0758,0 11,-5.0024 11,-11.1746l0,-11.1746l-11,-3.72491zm8.9375,14.89951c0,5.014 -4.0018,9.0793 -8.9375,9.0793c-4.9357,0 -8.9375,-4.0653 -8.9375,-9.0793l0,-9.6032l8.9375,-3.2011l8.9375,3.2011l0,9.6032z"></path><path id="svg_4" fill="#AEE2FF" d="m82.1751,22.42616c-0.0956,-0.0975 -0.2092,-0.1749 -0.3343,-0.2277c-0.1251,-0.0528 -0.2593,-0.08 -0.3948,-0.08c-0.1354,0 -0.2696,0.0272 -0.3947,0.08c-0.1251,0.0528 -0.2387,0.1302 -0.3343,0.2277c-0.096,0.0971 -0.1722,0.2126 -0.2242,0.3396c-0.052,0.1271 -0.0787,0.2634 -0.0787,0.4011c0,0.1376 0.0267,0.2739 0.0787,0.401c0.052,0.1271 0.1282,0.2425 0.2242,0.3396l3.7068,3.7656l0.0601,0.0611c0.0905,0.092 0.1978,0.165 0.3161,0.2148c0.1182,0.0498 0.2449,0.0755 0.3729,0.0755c0.128,0 0.2547,-0.0257 0.3729,-0.0755c0.1182,-0.0498 0.2256,-0.1228 0.316,-0.2148l6.4023,-6.504c0.0906,-0.0918 0.1625,-0.2009 0.2115,-0.321c0.0491,-0.1201 0.0743,-0.2488 0.0743,-0.3789c0,-0.13 -0.0252,-0.2587 -0.0743,-0.3788c-0.049,-0.1201 -0.1209,-0.2292 -0.2115,-0.321l-0.0802,-0.0815c-0.0904,-0.092 -0.1978,-0.165 -0.316,-0.2148c-0.1182,-0.0498 -0.2449,-0.0755 -0.3729,-0.0755c-0.128,0 -0.2547,0.0257 -0.3729,0.0755c-0.1182,0.0498 -0.2256,0.1228 -0.316,0.2148l-5.6347,5.7212l-2.9963,-3.044z"></path></g></g></svg>