<svg width="9" height="6" viewBox="0 0 9 6" fill="none" xmlns="http://www.w3.org/2000/svg">
<path fill-rule="evenodd" clip-rule="evenodd" d="M1.25629 0.951294C1.12061 0.951323 0.987981 0.991579 0.875176 1.06697C0.762371 1.14237 0.674452 1.24951 0.622533 1.37487C0.570614 1.50022 0.557026 1.63816 0.583488 1.77123C0.60995 1.90431 0.675274 2.02655 0.7712 2.1225L4.20181 5.55311C4.33048 5.68174 4.50496 5.754 4.6869 5.754C4.86883 5.754 5.04332 5.68174 5.17198 5.55311L8.60259 2.1225C8.69852 2.02655 8.76384 1.90431 8.79031 1.77123C8.81677 1.63816 8.80318 1.50022 8.75126 1.37487C8.69934 1.24951 8.61142 1.14237 8.49862 1.06697C8.38581 0.991579 8.25319 0.951323 8.11751 0.951294H1.25629Z" fill="black"/>
</svg>
