<svg xmlns="http://www.w3.org/2000/svg" width="482" height="855" viewBox="0 0 482 855" fill="none"><g clip-path="url(#clip0_364_2177)"><g clip-path="url(#clip1_364_2177)"><path d="M92.9163 90.0376C92.9163 88.8403 91.9456 87.8697 90.7483 87.8697C89.551 87.8697 88.5804 88.8403 88.5804 90.0376L88.5804 185.089C88.5804 186.286 89.551 187.257 90.7483 187.257C91.9456 187.257 92.9162 186.286 92.9162 185.089L92.9163 90.0376Z" fill="#173B55"></path><path d="M92.9162 193.771C92.9162 192.574 91.9456 191.604 90.7483 191.604C89.551 191.604 88.5804 192.574 88.5804 193.771L88.5804 304.832C88.5804 306.029 89.551 306.999 90.7483 306.999C91.9456 306.999 92.9162 306.029 92.9162 304.832L92.9162 193.771Z" fill="#173B55"></path><path d="M-155.479 505.594C-155.479 504.397 -156.45 503.426 -157.647 503.426L-332.412 503.426C-333.609 503.426 -334.58 504.397 -334.58 505.594C-334.58 506.791 -333.609 507.762 -332.412 507.762L-157.647 507.762C-156.45 507.762 -155.479 506.791 -155.479 505.594Z" fill="#173B55"></path><path d="M92.9163 2.65232C92.9163 1.45502 91.9456 0.48442 90.7484 0.48442C89.5511 0.484419 88.5804 1.45502 88.5804 2.65232L88.5804 28.6663C88.5804 29.8636 89.5511 30.8342 90.7483 30.8342C91.9456 30.8342 92.9163 29.8636 92.9163 28.6663L92.9163 2.65232Z" fill="#173B55"></path><path d="M-17.4686 505.594C-17.4685 504.397 -18.4391 503.426 -19.6364 503.426L-40.3148 503.426C-41.5121 503.426 -42.4827 504.397 -42.4827 505.594C-42.4827 506.791 -41.5121 507.762 -40.3148 507.762L-19.6364 507.762C-18.4391 507.762 -17.4686 506.791 -17.4686 505.594Z" fill="#173B55"></path><path d="M-338.955 505.594C-338.955 504.397 -339.926 503.426 -341.123 503.426L-416.832 503.426C-418.029 503.426 -419 504.397 -419 505.594C-419 506.791 -418.029 507.762 -416.832 507.762L-341.123 507.762C-339.926 507.762 -338.955 506.791 -338.955 505.594Z" fill="#173B55"></path><path d="M92.9163 37.013C92.9163 35.8157 91.9456 34.8451 90.7483 34.8451C89.5511 34.8451 88.5804 35.8157 88.5804 37.013L88.5804 81.3703C88.5804 82.5676 89.551 83.5382 90.7483 83.5382C91.9456 83.5382 92.9163 82.5676 92.9163 81.3703L92.9163 37.013Z" fill="#173B55"></path><path d="M-46.4155 505.594C-46.4155 504.397 -47.3861 503.426 -48.5834 503.426L-148.973 503.426C-150.171 503.426 -151.141 504.397 -151.141 505.594C-151.141 506.791 -150.171 507.762 -148.973 507.762L-48.5834 507.762C-47.3861 507.762 -46.4155 506.791 -46.4155 505.594Z" fill="#173B55"></path><path d="M93.0139 313.14C93.0139 311.943 92.0434 310.973 90.8461 310.973C89.6488 310.973 88.6782 311.943 88.6782 313.14L88.6782 452.548C88.6782 480.639 65.9065 503.41 37.8162 503.41L-11.0447 503.41C-12.1499 503.41 -13.0458 504.306 -13.0458 505.411C-13.0458 506.517 -12.1499 507.412 -11.0447 507.412L39.9841 507.412C69.2717 507.412 93.0139 483.67 93.0139 454.383L93.0139 313.14Z" fill="#173B55"></path><path d="M-151.238 368.867C-151.238 367.669 -152.209 366.699 -153.406 366.699C-154.604 366.699 -155.574 367.669 -155.574 368.867L-155.574 437.237C-155.574 438.434 -154.604 439.405 -153.406 439.405C-152.209 439.405 -151.239 438.434 -151.239 437.237L-151.238 368.867Z" fill="#173B55"></path><path d="M-17.474 309.166C-17.474 307.969 -18.4446 306.998 -19.6419 306.998L-98.6865 306.998C-99.8838 306.998 -100.854 307.969 -100.854 309.166C-100.854 310.363 -99.8838 311.334 -98.6865 311.334L-19.6419 311.334C-18.4446 311.334 -17.474 310.363 -17.474 309.166Z" fill="#173B55"></path><path d="M-107.214 311C-106.108 311 -105.213 310.104 -105.213 308.999C-105.213 307.894 -106.109 306.998 -107.214 306.998L-130.393 306.998C-144.3 306.998 -155.574 318.272 -155.574 332.179L-155.574 360.527C-155.574 361.724 -154.604 362.695 -153.406 362.695C-152.209 362.695 -151.238 361.724 -151.238 360.527L-151.238 334.013C-151.238 321.303 -140.935 311 -128.226 311L-107.214 311Z" fill="#173B55"></path><path d="M335.478 309.166C335.478 307.969 334.508 306.998 333.31 306.998L211.909 306.998C210.711 306.998 209.741 307.969 209.741 309.166C209.741 310.363 210.711 311.334 211.909 311.334L333.31 311.334C334.508 311.334 335.478 310.363 335.478 309.166Z" fill="#173B55"></path><path d="M414.802 309.166C414.802 307.969 413.831 306.998 412.634 306.998L341.927 306.998C340.73 306.998 339.759 307.969 339.759 309.166C339.759 310.363 340.73 311.334 341.927 311.334L412.634 311.334C413.831 311.334 414.802 310.363 414.802 309.166Z" fill="#173B55"></path><path d="M-151.239 706.354C-151.239 705.157 -152.209 704.187 -153.406 704.187C-154.604 704.187 -155.574 705.157 -155.574 706.354L-155.574 832.089C-155.574 833.287 -154.604 834.257 -153.406 834.257C-152.209 834.257 -151.239 833.287 -151.239 832.089L-151.239 706.354Z" fill="#173B55"></path><path d="M203.743 311C204.848 311 205.744 310.104 205.744 308.999C205.744 307.894 204.848 306.998 203.743 306.998L-11.0446 306.998C-12.1498 306.998 -13.0457 307.894 -13.0457 308.999C-13.0457 310.104 -12.1498 311 -11.0446 311L203.743 311Z" fill="#173B55"></path><path d="M-155.574 697.698C-155.574 698.896 -154.604 699.866 -153.406 699.866C-152.209 699.866 -151.239 698.896 -151.239 697.698L-151.239 445.895C-151.239 444.698 -152.209 443.727 -153.406 443.727C-154.604 443.727 -155.574 444.698 -155.574 445.895L-155.574 697.698Z" fill="#173B55"></path><path d="M132.177 699.854C130.98 699.854 130.009 700.825 130.009 702.022C130.009 703.219 130.98 704.19 132.177 704.19L174.367 704.19C198.866 704.19 218.726 724.05 218.726 748.548L218.726 832.093C218.726 833.29 219.696 834.261 220.894 834.261C222.091 834.261 223.061 833.29 223.061 832.093L223.061 746.38C223.061 720.685 202.231 699.854 176.535 699.854L132.177 699.854Z" fill="#173B55"></path><path d="M40.9846 702.022C40.9846 700.825 40.0141 699.854 38.8168 699.854L-10.8779 699.854C-12.0752 699.854 -13.0458 700.825 -13.0458 702.022C-13.0458 703.219 -12.0752 704.19 -10.8779 704.19L38.8168 704.19C40.0141 704.19 40.9846 703.219 40.9846 702.022Z" fill="#173B55"></path><path d="M-17.4686 702.022C-17.4686 700.825 -18.4391 699.854 -19.6364 699.854L-40.3148 699.854C-41.5121 699.854 -42.4827 700.825 -42.4827 702.022C-42.4827 703.219 -41.5121 704.19 -40.3148 704.19L-19.6364 704.19C-18.4391 704.19 -17.4686 703.219 -17.4686 702.022Z" fill="#173B55"></path><path d="M-219.182 702.022C-219.182 700.825 -220.152 699.854 -221.35 699.854L-332.412 699.854C-333.61 699.854 -334.58 700.825 -334.58 702.022C-334.58 703.219 -333.61 704.19 -332.412 704.19L-221.35 704.19C-220.152 704.19 -219.182 703.219 -219.182 702.022Z" fill="#173B55"></path><path d="M-338.955 702.022C-338.955 700.825 -339.926 699.854 -341.123 699.854L-416.832 699.854C-418.029 699.854 -419 700.825 -419 702.022C-419 703.219 -418.029 704.19 -416.832 704.19L-341.123 704.19C-339.926 704.19 -338.955 703.219 -338.955 702.022Z" fill="#173B55"></path><path d="M126.038 702.022C126.038 700.825 125.067 699.854 123.87 699.854L47.4937 699.854C46.2965 699.854 45.3259 700.825 45.3259 702.022C45.3259 703.219 46.2965 704.19 47.4937 704.19L123.87 704.19C125.067 704.19 126.038 703.219 126.038 702.022Z" fill="#173B55"></path><path d="M-213.07 699.854C-214.267 699.854 -215.238 700.825 -215.238 702.022C-215.238 703.219 -214.267 704.19 -213.07 704.19L-48.9772 704.19C-47.7799 704.19 -46.8093 703.219 -46.8093 702.022C-46.8093 700.825 -47.7799 699.854 -48.9772 699.854L-213.07 699.854Z" fill="#173B55"></path><path d="M205.385 577.313C205.385 576.116 204.414 575.145 203.217 575.145L132.177 575.145C130.98 575.145 130.009 576.116 130.009 577.313C130.009 578.51 130.98 579.481 132.177 579.481L203.217 579.481C204.414 579.481 205.385 578.51 205.385 577.313Z" fill="#173B55"></path><path d="M414.802 577.313C414.802 576.116 413.831 575.145 412.634 575.145L341.927 575.145C340.73 575.145 339.759 576.116 339.759 577.313C339.759 578.511 340.73 579.481 341.927 579.481L412.634 579.481C413.831 579.481 414.802 578.511 414.802 577.313Z" fill="#173B55"></path><path d="M335.478 577.313C335.478 576.116 334.508 575.145 333.31 575.145L211.909 575.145C210.711 575.145 209.741 576.116 209.741 577.313C209.741 578.51 210.711 579.481 211.909 579.481L333.31 579.481C334.508 579.481 335.478 578.511 335.478 577.313Z" fill="#173B55"></path><path d="M45.2286 619.504C45.2286 597.216 63.2966 579.148 85.5847 579.148L123.94 579.148C125.045 579.148 125.941 578.252 125.941 577.146C125.941 576.041 125.045 575.145 123.94 575.145L83.4168 575.145C59.9314 575.145 40.8928 594.184 40.8928 617.669L40.8928 832.118C40.8928 833.315 41.8634 834.286 43.0607 834.286C44.258 834.286 45.2286 833.315 45.2286 832.118L45.2286 619.504Z" fill="#173B55"></path><path d="M210.038 90.0376C210.038 88.8403 209.068 87.8697 207.87 87.8697C206.673 87.8697 205.702 88.8403 205.702 90.0376L205.702 185.089C205.702 186.286 206.673 187.257 207.87 187.257C209.068 187.257 210.038 186.286 210.038 185.089L210.038 90.0376Z" fill="#173B55"></path><path d="M210.038 2.65233C210.038 1.45503 209.068 0.48443 207.87 0.48443C206.673 0.48443 205.702 1.45503 205.702 2.65233L205.702 28.6663C205.702 29.8636 206.673 30.8342 207.87 30.8342C209.068 30.8342 210.038 29.8636 210.038 28.6663L210.038 2.65233Z" fill="#173B55"></path><path d="M210.038 37.013C210.038 35.8157 209.068 34.8451 207.87 34.8451C206.673 34.8451 205.702 35.8157 205.702 37.013L205.702 81.3703C205.702 82.5676 206.673 83.5382 207.87 83.5382C209.068 83.5382 210.038 82.5676 210.038 81.3703L210.038 37.013Z" fill="#173B55"></path><path d="M414.802 654.342C414.802 653.144 413.831 652.174 412.634 652.174L341.927 652.174C340.73 652.174 339.759 653.144 339.759 654.341C339.759 655.539 340.73 656.509 341.927 656.509L412.634 656.509C413.831 656.509 414.802 655.539 414.802 654.342Z" fill="#173B55"></path><path d="M209.705 193.605C209.705 192.499 208.809 191.604 207.704 191.604C206.598 191.604 205.702 192.499 205.702 193.605L205.702 440.405C205.702 441.51 206.598 442.406 207.704 442.406C208.809 442.406 209.705 441.51 209.705 440.405L209.705 193.605Z" fill="#173B55"></path><path d="M205.702 591.14C205.702 627.059 234.82 656.177 270.739 656.177L333.775 656.177C334.88 656.177 335.776 655.281 335.776 654.176C335.776 653.07 334.88 652.175 333.775 652.175L272.74 652.174C237.927 652.174 209.705 623.953 209.705 589.139L209.705 448.397C209.705 447.292 208.809 446.396 207.704 446.396C206.598 446.396 205.702 447.292 205.702 448.397L205.702 591.14Z" fill="#173B55"></path><path d="M-17.474 189.408C-17.474 188.211 -18.4446 187.24 -19.6419 187.24L-98.6865 187.24C-99.8838 187.24 -100.854 188.211 -100.854 189.408C-100.854 190.605 -99.8838 191.576 -98.6865 191.576L-19.6419 191.576C-18.4446 191.576 -17.474 190.605 -17.474 189.408Z" fill="#173B55"></path><path d="M-159.184 2.65228C-159.184 1.45499 -160.154 0.484398 -161.352 0.484398C-162.549 0.484397 -163.52 1.45499 -163.52 2.65228L-163.52 81.6951C-163.52 82.8924 -162.549 83.863 -161.352 83.863C-160.154 83.863 -159.184 82.8924 -159.184 81.6951L-159.184 2.65228Z" fill="#173B55"></path><path d="M414.802 189.408C414.802 188.211 413.831 187.24 412.634 187.24L341.927 187.24C340.73 187.24 339.759 188.211 339.759 189.408C339.759 190.605 340.73 191.576 341.927 191.576L412.634 191.576C413.831 191.576 414.802 190.605 414.802 189.408Z" fill="#173B55"></path><path d="M-107.321 191.593C-106.124 191.593 -105.153 190.622 -105.153 189.425C-105.153 188.227 -106.124 187.257 -107.321 187.257L-132.169 187.257C-147.089 187.257 -159.184 175.162 -159.184 160.242L-159.184 90.0375C-159.184 88.8402 -160.154 87.8696 -161.352 87.8696C-162.549 87.8696 -163.52 88.8402 -163.52 90.0375L-163.52 162.409C-163.52 178.527 -150.454 191.593 -134.336 191.593L-107.321 191.593Z" fill="#173B55"></path><path d="M333.65 191.576C334.847 191.576 335.817 190.605 335.817 189.408C335.817 188.211 334.847 187.24 333.65 187.24L-10.8779 187.24C-12.0752 187.24 -13.0457 188.211 -13.0457 189.408C-13.0457 190.605 -12.0752 191.576 -10.8779 191.576L333.65 191.576Z" fill="#173B55"></path><path d="M-332.579 439.739C-333.684 439.739 -334.58 440.634 -334.58 441.74C-334.58 442.845 -333.684 443.741 -332.579 443.741L-139.303 443.741C-118.028 443.741 -100.782 426.494 -100.782 405.22L-100.782 368.867C-100.782 367.669 -101.752 366.699 -102.95 366.699C-104.147 366.699 -105.117 367.669 -105.117 368.867L-105.117 403.219C-105.117 423.388 -121.468 439.739 -141.637 439.739L-332.579 439.739Z" fill="#173B55"></path><path d="M-338.955 441.888C-338.955 440.69 -339.926 439.72 -341.123 439.72L-416.832 439.72C-418.029 439.72 -419 440.69 -419 441.888C-419 443.085 -418.029 444.055 -416.832 444.055L-341.123 444.055C-339.926 444.055 -338.955 443.085 -338.955 441.888Z" fill="#173B55"></path><path d="M-100.812 2.65229C-100.812 1.455 -101.783 0.484403 -102.98 0.484403C-104.177 0.484403 -105.148 1.455 -105.148 2.65229L-105.148 81.6951C-105.148 82.8924 -104.177 83.863 -102.98 83.863C-101.783 83.863 -100.812 82.8924 -100.812 81.6951L-100.812 2.65229Z" fill="#173B55"></path><path d="M-100.812 90.0375C-100.812 88.8402 -101.783 87.8696 -102.98 87.8696C-104.177 87.8696 -105.148 88.8402 -105.148 90.0375L-105.148 360.518C-105.148 361.715 -104.177 362.685 -102.98 362.685C-101.783 362.685 -100.812 361.715 -100.812 360.518L-100.812 90.0375Z" fill="#173B55"></path><path d="M-338.955 364.861C-338.955 363.664 -339.926 362.693 -341.123 362.693L-416.832 362.693C-418.029 362.693 -419 363.664 -419 364.861C-419 366.059 -418.029 367.029 -416.832 367.029L-341.123 367.029C-339.926 367.029 -338.955 366.059 -338.955 364.861Z" fill="#173B55"></path><path d="M-42.4155 508.776C-42.4155 428.097 -107.819 362.693 -188.498 362.693L-332.579 362.693C-333.684 362.693 -334.58 363.589 -334.58 364.694C-334.58 365.8 -333.684 366.696 -332.579 366.696L-190.666 366.696C-111.184 366.696 -46.7513 431.128 -46.7513 510.61L-46.7513 832.115C-46.7513 833.312 -45.7807 834.283 -44.5834 834.283C-43.3861 834.283 -42.4155 833.312 -42.4155 832.115L-42.4155 508.776Z" fill="#173B55"></path><path d="M-332.579 293.648C-333.684 293.648 -334.58 294.544 -334.58 295.649C-334.58 296.754 -333.684 297.65 -332.579 297.65L-272.212 297.65C-237.766 297.65 -209.843 269.727 -209.843 235.282L-209.843 89.8707C-209.843 88.7656 -210.739 87.8696 -211.844 87.8696C-212.949 87.8696 -213.845 88.7656 -213.845 89.8707L-213.845 233.281C-213.845 266.621 -240.873 293.648 -274.213 293.648L-332.579 293.648Z" fill="#173B55"></path><path d="M-338.955 295.813C-338.955 294.616 -339.926 293.645 -341.123 293.645L-416.832 293.645C-418.029 293.645 -419 294.616 -419 295.813C-419 297.01 -418.029 297.981 -416.832 297.981L-341.123 297.981C-339.926 297.981 -338.955 297.01 -338.955 295.813Z" fill="#173B55"></path><path d="M-209.602 2.65228C-209.602 1.45499 -210.573 0.484393 -211.77 0.484393C-212.967 0.484393 -213.938 1.45499 -213.938 2.65228L-213.938 81.6951C-213.938 82.8924 -212.967 83.863 -211.77 83.863C-210.573 83.863 -209.602 82.8924 -209.602 81.6951L-209.602 2.65228Z" fill="#173B55"></path><path d="M-334.669 2.65227C-334.669 1.45498 -335.64 0.484382 -336.837 0.484382C-338.035 0.484382 -339.005 1.45498 -339.005 2.65227L-339.005 81.6951C-339.005 82.8924 -338.035 83.863 -336.837 83.863C-335.64 83.863 -334.669 82.8924 -334.669 81.6951L-334.669 2.65227Z" fill="#173B55"></path><path d="M-334.669 549.629C-334.669 548.432 -335.64 547.461 -336.837 547.461C-338.035 547.461 -339.005 548.432 -339.005 549.629L-339.005 832.115C-339.005 833.313 -338.035 834.283 -336.837 834.283C-335.64 834.283 -334.669 833.313 -334.669 832.115L-334.669 549.629Z" fill="#173B55"></path><path d="M-334.669 90.0375C-334.669 88.8402 -335.64 87.8696 -336.837 87.8696C-338.035 87.8696 -339.005 88.8402 -339.005 90.0375L-339.005 540.949C-339.005 542.146 -338.035 543.117 -336.837 543.117C-335.64 543.117 -334.669 542.146 -334.669 540.949L-334.669 90.0375Z" fill="#173B55"></path><path d="M-13.135 90.0376C-13.135 88.8403 -14.1056 87.8696 -15.3029 87.8696C-16.5002 87.8696 -17.4708 88.8402 -17.4708 90.0375L-17.4708 832.107C-17.4708 833.304 -16.5003 834.275 -15.303 834.275C-14.1057 834.275 -13.1351 833.304 -13.1351 832.107L-13.135 90.0376Z" fill="#173B55"></path><path d="M9.04364 30.8397C-5.59986 30.8397 -17.4708 42.7106 -17.4708 57.3541L-17.4708 81.7006C-17.4708 82.8979 -16.5002 83.8685 -15.3029 83.8685C-14.1056 83.8685 -13.135 82.8979 -13.135 81.7006L-13.135 59.3551C-13.135 45.8168 -2.16001 34.8418 11.3783 34.8418L412.772 34.8419C413.877 34.8419 414.773 33.946 414.773 32.8408C414.773 31.7356 413.877 30.8397 412.772 30.8397L9.04364 30.8397Z" fill="#173B55"></path><path d="M339.723 448.397C339.723 447.292 338.827 446.396 337.722 446.396C336.617 446.396 335.721 447.292 335.721 448.397L335.721 832.272C335.721 833.377 336.617 834.273 337.722 834.273C338.827 834.273 339.723 833.377 339.723 832.272L339.723 448.397Z" fill="#173B55"></path><path d="M158.495 87.8644C256.395 87.8644 335.758 167.228 335.758 265.127L335.758 440.389C335.758 441.494 336.654 442.39 337.76 442.39C338.865 442.39 339.761 441.494 339.761 440.389L339.761 263.126C339.761 164.121 259.501 83.8622 160.497 83.8622L-416.999 83.8622C-418.104 83.8622 -419 84.7581 -419 85.8632C-419 86.9684 -418.104 87.8643 -416.999 87.8643L158.495 87.8644Z" fill="#173B55"></path><path d="M-215.219 644.986C-215.219 588.714 -260.837 543.096 -317.109 543.096L-416.832 543.096C-418.029 543.096 -419 544.066 -419 545.264C-419 546.461 -418.029 547.431 -416.832 547.431L-319.11 547.431C-263.943 547.431 -219.221 592.154 -219.221 647.321L-219.221 832.253C-219.221 833.358 -218.325 834.254 -217.22 834.254C-216.115 834.254 -215.219 833.358 -215.219 832.253L-215.219 644.986Z" fill="#173B55"></path><path d="M270.385 442.391C190.627 442.391 125.971 507.047 125.971 586.805L125.971 832.269C125.971 833.374 126.867 834.27 127.972 834.27C129.077 834.27 129.973 833.374 129.973 832.269L129.973 588.806C129.973 510.154 193.734 446.393 272.386 446.393L412.799 446.393C413.904 446.393 414.8 445.497 414.8 444.392C414.8 443.287 413.904 442.391 412.799 442.391L270.385 442.391Z" fill="#173B55"></path><path d="M-212.237 306.325C-205.975 306.325 -200.898 301.248 -200.898 294.985C-200.898 288.723 -205.975 283.646 -212.237 283.646C-218.5 283.646 -223.577 288.723 -223.577 294.985C-223.577 301.248 -218.5 306.325 -212.237 306.325Z" fill="#39E1D7"></path><path d="M101.613 187.571C101.613 193.908 96.6099 198.91 90.273 198.91C83.9361 198.91 78.9332 193.908 78.9332 187.571C78.9332 181.234 83.9361 176.231 90.273 176.231C96.6099 176.231 101.613 181.234 101.613 187.571Z" fill="#39E1D7"></path><path d="M-4.04387 187.571C-4.04387 193.908 -9.04665 198.91 -15.3836 198.91C-21.7204 198.91 -26.7233 193.908 -26.7233 187.571C-26.7233 181.234 -21.7204 176.231 -15.3836 176.231C-9.04665 176.231 -4.04387 181.234 -4.04387 187.571Z" fill="#39E1D7"></path><path d="M347.067 87.8733C347.067 94.21 342.064 99.2127 335.727 99.2127C329.39 99.2127 324.388 94.21 324.388 87.8732C324.388 81.5365 329.39 76.5338 335.727 76.5338C342.064 76.5338 347.067 81.5365 347.067 87.8733Z" fill="#39E1D7"></path><path d="M-141.226 365.335C-141.226 371.672 -146.229 376.675 -152.566 376.675C-158.903 376.675 -163.906 371.672 -163.906 365.335C-163.906 358.998 -158.903 353.996 -152.566 353.996C-146.229 353.996 -141.226 358.998 -141.226 365.335Z" fill="#39E1D7"></path><path d="M100.313 503.432C100.313 509.769 95.3103 514.771 88.9733 514.771C82.6364 514.771 77.6337 509.769 77.6337 503.432C77.6337 497.095 82.6364 492.092 88.9733 492.092C95.3103 492.092 100.313 497.095 100.313 503.432Z" fill="#39E1D7"></path><path d="M55.2327 579.45C55.2327 585.787 50.2299 590.79 43.893 590.79C37.5561 590.79 32.5533 585.787 32.5533 579.45C32.5533 573.114 37.5561 568.111 43.893 568.111C50.2299 568.111 55.2327 573.114 55.2327 579.45Z" fill="#39E1D7"></path><path d="M230.332 704.192C230.332 710.529 225.329 715.532 218.992 715.532C212.655 715.532 207.652 710.529 207.652 704.192C207.652 697.855 212.655 692.853 218.992 692.853C225.329 692.853 230.332 697.855 230.332 704.192Z" fill="#39E1D7"></path><path d="M349.411 651.852C349.411 658.189 344.408 663.192 338.071 663.192C331.734 663.192 326.732 658.189 326.732 651.852C326.732 645.516 331.734 640.513 338.071 640.513C344.408 640.513 349.411 645.516 349.411 651.852Z" fill="#39E1D7"></path><path d="M-325.578 365.335C-325.578 371.672 -330.581 376.675 -336.918 376.675C-343.255 376.675 -348.258 371.672 -348.258 365.335C-348.258 358.998 -343.255 353.996 -336.918 353.996C-330.581 353.996 -325.578 358.998 -325.578 365.335Z" fill="#39E1D7"></path><path d="M-210.537 545.772C-210.537 552.109 -215.54 557.112 -221.877 557.112C-228.214 557.112 -233.217 552.109 -233.217 545.772C-233.217 539.436 -228.214 534.433 -221.877 534.433C-215.54 534.433 -210.537 539.436 -210.537 545.772Z" fill="#39E1D7"></path><path d="M-38.1581 366.681C-38.1581 371.684 -42.1604 375.686 -47.1632 375.686C-52.166 375.686 -56.1682 371.684 -56.1682 366.681C-56.1682 361.678 -52.166 357.676 -47.1632 357.676C-42.1604 357.676 -38.1581 361.678 -38.1581 366.681Z" fill="#39E1D7"></path><path d="M-95.0906 439.377C-95.0906 444.38 -99.0928 448.382 -104.096 448.382C-109.098 448.382 -113.101 444.38 -113.101 439.377C-113.101 434.374 -109.098 430.372 -104.096 430.372C-99.0928 430.372 -95.0906 434.374 -95.0906 439.377Z" fill="#39E1D7"></path><path d="M-145.509 439.377C-145.509 444.38 -149.511 448.382 -154.514 448.382C-159.517 448.382 -163.519 444.38 -163.519 439.377C-163.519 434.374 -159.517 430.372 -154.514 430.372C-149.511 430.372 -145.509 434.374 -145.509 439.377Z" fill="#39E1D7"></path><path d="M-145.509 503.768C-145.509 508.771 -149.511 512.773 -154.514 512.773C-159.517 512.773 -163.519 508.771 -163.519 503.768C-163.519 498.765 -159.517 494.763 -154.514 494.763C-149.511 494.763 -145.509 498.765 -145.509 503.768Z" fill="#39E1D7"></path><path d="M-36.4638 503.768C-36.4638 508.771 -40.4661 512.773 -45.4689 512.773C-50.4717 512.773 -54.4739 508.771 -54.4739 503.768C-54.4739 498.765 -50.4717 494.763 -45.4689 494.763C-40.4661 494.763 -36.4638 498.765 -36.4638 503.768Z" fill="#39E1D7"></path><path d="M136.028 575.454C136.028 580.457 132.026 584.459 127.023 584.459C122.02 584.459 118.018 580.457 118.018 575.454C118.018 570.452 122.02 566.45 127.023 566.45C132.026 566.45 136.028 570.452 136.028 575.454Z" fill="#39E1D7"></path><path d="M217.33 575.454C217.33 580.457 213.328 584.459 208.325 584.459C203.323 584.459 199.32 580.457 199.32 575.454C199.32 570.452 203.323 566.45 208.325 566.45C213.328 566.45 217.33 570.452 217.33 575.454Z" fill="#39E1D7"></path><path d="M208.325 452.714C213.299 452.714 217.33 448.683 217.33 443.709C217.33 438.736 213.299 434.704 208.325 434.704C203.352 434.704 199.32 438.736 199.32 443.709C199.32 448.683 203.352 452.714 208.325 452.714Z" fill="#39E1D7"></path><path d="M337.044 452.714C342.018 452.714 346.049 448.683 346.049 443.709C346.049 438.736 342.018 434.704 337.044 434.704C332.071 434.704 328.039 438.736 328.039 443.709C328.039 448.683 332.071 452.714 337.044 452.714Z" fill="#39E1D7"></path><path d="M345.786 308.317C345.786 313.319 341.784 317.322 336.781 317.322C331.778 317.322 327.776 313.319 327.776 308.317C327.776 303.314 331.778 299.312 336.781 299.312C341.784 299.312 345.786 303.314 345.786 308.317Z" fill="#39E1D7"></path><path d="M216.673 308.317C216.673 313.319 212.67 317.321 207.668 317.321C202.665 317.321 198.662 313.319 198.662 308.317C198.662 303.314 202.665 299.312 207.668 299.312C212.67 299.312 216.673 303.314 216.673 308.317Z" fill="#39E1D7"></path><path d="M216.673 188.917C216.673 193.919 212.67 197.922 207.668 197.922C202.665 197.922 198.662 193.919 198.662 188.917C198.662 183.914 202.665 179.912 207.668 179.912C212.67 179.912 216.673 183.914 216.673 188.917Z" fill="#39E1D7"></path><path d="M216.673 85.1809C216.673 90.1836 212.67 94.1857 207.668 94.1857C202.665 94.1857 198.662 90.1836 198.662 85.1809C198.662 80.1781 202.665 76.176 207.668 76.176C212.67 76.176 216.673 80.1781 216.673 85.1809Z" fill="#39E1D7"></path><path d="M207.668 41.1632C212.641 41.1632 216.673 37.1316 216.673 32.1583C216.673 27.1851 212.641 23.1534 207.668 23.1534C202.694 23.1534 198.662 27.1851 198.662 32.1583C198.662 37.1316 202.694 41.1632 207.668 41.1632Z" fill="#39E1D7"></path><path d="M90.6772 41.1632C95.6505 41.1632 99.6822 37.1316 99.6822 32.1583C99.6822 27.1851 95.6505 23.1534 90.6772 23.1534C85.7038 23.1534 81.6721 27.1851 81.6721 32.1583C81.6721 37.1316 85.7038 41.1632 90.6772 41.1632Z" fill="#39E1D7"></path><path d="M-15.4976 41.1632C-10.5242 41.1632 -6.4925 37.1316 -6.4925 32.1583C-6.4925 27.1851 -10.5242 23.1534 -15.4976 23.1534C-20.4709 23.1534 -24.5027 27.1851 -24.5027 32.1583C-24.5027 37.1316 -20.4709 41.1632 -15.4976 41.1632Z" fill="#39E1D7"></path><path d="M-6.4925 85.5386C-6.4925 90.5413 -10.4947 94.5435 -15.4976 94.5435C-20.5004 94.5435 -24.5027 90.5413 -24.5027 85.5386C-24.5027 80.5359 -20.5004 76.5337 -15.4976 76.5337C-10.4947 76.5337 -6.4925 80.5359 -6.4925 85.5386Z" fill="#39E1D7"></path><path d="M99.9454 85.5386C99.9454 90.5414 95.9431 94.5435 90.9403 94.5435C85.9375 94.5435 81.9352 90.5413 81.9352 85.5386C81.9352 80.5359 85.9375 76.5337 90.9403 76.5337C95.9431 76.5337 99.9454 80.5359 99.9454 85.5386Z" fill="#39E1D7"></path><path d="M348.78 188.917C348.78 193.919 344.778 197.922 339.775 197.922C334.772 197.922 330.77 193.919 330.77 188.917C330.77 183.914 334.772 179.912 339.775 179.912C344.778 179.912 348.78 183.914 348.78 188.917Z" fill="#39E1D7"></path><path d="M-151.497 188.917C-151.497 193.919 -155.499 197.922 -160.502 197.922C-165.505 197.922 -169.507 193.919 -169.507 188.917C-169.507 183.914 -165.505 179.912 -160.502 179.912C-155.499 179.912 -151.497 183.914 -151.497 188.917Z" fill="#39E1D7"></path><path d="M100.595 308.317C100.595 313.319 96.5929 317.321 91.5901 317.321C86.5873 317.321 82.585 313.319 82.585 308.317C82.585 303.314 86.5873 299.312 91.5901 299.312C96.5929 299.312 100.595 303.314 100.595 308.317Z" fill="#39E1D7"></path><path d="M-7.15039 308.317C-7.15039 313.319 -11.1527 317.321 -16.1555 317.321C-21.1583 317.321 -25.1605 313.319 -25.1605 308.317C-25.1605 303.314 -21.1583 299.312 -16.1555 299.312C-11.1527 299.312 -7.15039 303.314 -7.15039 308.317Z" fill="#39E1D7"></path><path d="M-93.7829 308.317C-93.7829 313.319 -97.7852 317.321 -102.788 317.321C-107.791 317.321 -111.793 313.319 -111.793 308.317C-111.793 303.314 -107.791 299.312 -102.788 299.312C-97.7852 299.312 -93.7829 303.314 -93.7829 308.317Z" fill="#39E1D7"></path><path d="M346.436 575.454C346.436 580.457 342.434 584.459 337.431 584.459C332.428 584.459 328.426 580.457 328.426 575.454C328.426 570.452 332.428 566.45 337.431 566.45C342.434 566.45 346.436 570.452 346.436 575.454Z" fill="#39E1D7"></path><path d="M136.941 701.858C136.941 706.86 132.939 710.862 127.936 710.862C122.933 710.862 118.931 706.86 118.931 701.858C118.931 696.855 122.933 692.853 127.936 692.853C132.939 692.853 136.941 696.855 136.941 701.858Z" fill="#39E1D7"></path><path d="M50.9581 701.858C50.9581 706.86 46.9558 710.862 41.953 710.862C36.9502 710.862 32.948 706.86 32.948 701.858C32.948 696.855 36.9502 692.853 41.953 692.853C46.9558 692.853 50.9581 696.855 50.9581 701.858Z" fill="#39E1D7"></path><path d="M-6.49255 701.858C-6.49255 706.86 -10.4948 710.862 -15.4976 710.862C-20.5004 710.862 -24.5027 706.86 -24.5027 701.858C-24.5027 696.855 -20.5004 692.853 -15.4976 692.853C-10.4948 692.853 -6.49255 696.855 -6.49255 701.858Z" fill="#39E1D7"></path><path d="M-6.49254 503.41C-6.49254 508.413 -10.4948 512.415 -15.4976 512.415C-20.5004 512.415 -24.5027 508.413 -24.5027 503.41C-24.5027 498.408 -20.5004 494.405 -15.4976 494.405C-10.4948 494.405 -6.49254 498.408 -6.49254 503.41Z" fill="#39E1D7"></path><path d="M-35.8059 701.858C-35.8059 706.86 -39.8082 710.862 -44.811 710.862C-49.8138 710.862 -53.8161 706.86 -53.8161 701.858C-53.8161 696.855 -49.8138 692.853 -44.811 692.853C-39.8082 692.853 -35.8059 696.855 -35.8059 701.858Z" fill="#39E1D7"></path><path d="M-145.509 702.54C-145.509 707.543 -149.511 711.545 -154.514 711.545C-159.517 711.545 -163.519 707.543 -163.519 702.54C-163.519 697.537 -159.517 693.535 -154.514 693.535C-149.511 693.535 -145.509 697.537 -145.509 702.54Z" fill="#39E1D7"></path><path d="M-144.464 307.992C-144.464 312.994 -148.467 316.997 -153.469 316.997C-158.472 316.997 -162.475 312.994 -162.475 307.992C-162.475 302.989 -158.472 298.987 -153.469 298.987C-148.467 298.987 -144.464 302.989 -144.464 307.992Z" fill="#39E1D7"></path><path d="M-327.903 546.791C-327.903 551.794 -331.906 555.796 -336.908 555.796C-341.911 555.796 -345.913 551.794 -345.913 546.791C-345.913 541.789 -341.911 537.787 -336.908 537.787C-331.906 537.787 -327.903 541.789 -327.903 546.791Z" fill="#39E1D7"></path><path d="M-327.903 296.656C-327.903 301.659 -331.906 305.661 -336.908 305.661C-341.911 305.661 -345.913 301.659 -345.913 296.656C-345.913 291.653 -341.911 287.651 -336.908 287.651C-331.906 287.651 -327.903 291.653 -327.903 296.656Z" fill="#39E1D7"></path><path d="M-327.903 84.529C-327.903 89.5317 -331.906 93.5339 -336.908 93.5339C-341.911 93.5339 -345.913 89.5317 -345.913 84.529C-345.913 79.5263 -341.911 75.5241 -336.908 75.5241C-331.906 75.5241 -327.903 79.5263 -327.903 84.529Z" fill="#39E1D7"></path><path d="M-203.486 84.529C-203.486 89.5317 -207.488 93.5339 -212.491 93.5339C-217.494 93.5339 -221.496 89.5317 -221.496 84.529C-221.496 79.5263 -217.494 75.5241 -212.491 75.5241C-207.488 75.5241 -203.486 79.5263 -203.486 84.529Z" fill="#39E1D7"></path><path d="M-93.133 84.8559C-93.133 89.8587 -97.1353 93.8608 -102.138 93.8608C-107.141 93.8608 -111.143 89.8587 -111.143 84.8559C-111.143 79.8532 -107.141 75.8511 -102.138 75.8511C-97.1353 75.8511 -93.133 79.8532 -93.133 84.8559Z" fill="#39E1D7"></path><path d="M-93.133 188.59C-93.133 193.593 -97.1353 197.595 -102.138 197.595C-107.141 197.595 -111.143 193.593 -111.143 188.59C-111.143 183.587 -107.141 179.585 -102.138 179.585C-97.1353 179.585 -93.133 183.587 -93.133 188.59Z" fill="#39E1D7"></path><path d="M-327.903 700.881C-327.903 705.884 -331.906 709.886 -336.908 709.886C-341.911 709.886 -345.914 705.884 -345.914 700.881C-345.914 695.878 -341.911 691.876 -336.908 691.876C-331.906 691.876 -327.903 695.878 -327.903 700.881Z" fill="#39E1D7"></path><path d="M-327.903 506.439C-327.903 511.442 -331.906 515.444 -336.908 515.444C-341.911 515.444 -345.913 511.442 -345.913 506.439C-345.913 501.436 -341.911 497.434 -336.908 497.434C-331.906 497.434 -327.903 501.436 -327.903 506.439Z" fill="#39E1D7"></path><path d="M-327.903 441.396C-327.903 446.399 -331.906 450.401 -336.908 450.401C-341.911 450.401 -345.913 446.399 -345.913 441.396C-345.913 436.393 -341.911 432.391 -336.908 432.391C-331.906 432.391 -327.903 436.393 -327.903 441.396Z" fill="#39E1D7"></path><path d="M-205.199 702.204C-205.199 708.541 -210.202 713.543 -216.539 713.543C-222.876 713.543 -227.879 708.541 -227.879 702.204C-227.879 695.867 -222.876 690.864 -216.539 690.864C-210.202 690.864 -205.199 695.867 -205.199 702.204Z" fill="#39E1D7"></path><rect width="831.044" height="490.207" transform="matrix(-1 -8.74228e-08 -8.74228e-08 1 418.879 0.484375)" fill="url(#paint0_linear_364_2177)"></rect><rect width="831.044" height="490.207" transform="matrix(-1 -8.74228e-08 -8.74228e-08 1 418.879 0.484375)" fill="url(#paint1_linear_364_2177)"></rect><rect width="831.044" height="490.207" transform="matrix(1 1.53781e-07 2.02596e-07 -1 -412.164 855.971)" fill="url(#paint2_linear_364_2177)"></rect><rect width="831.044" height="490.207" transform="matrix(1 1.53781e-07 2.02596e-07 -1 -412.164 855.971)" fill="url(#paint3_linear_364_2177)"></rect><path fill-rule="evenodd" clip-rule="evenodd" d="M159.42 254H163.866C166.491 254 168.571 254 170.199 254.219C171.873 254.444 173.229 254.919 174.299 255.987C175.619 257.309 176.04 259.077 176.193 261.373C177.017 261.734 177.64 262.501 177.707 263.473C177.714 263.56 177.714 263.653 177.714 263.739V269.261C177.714 269.347 177.714 269.44 177.709 269.526C177.64 270.497 177.017 271.266 176.193 271.629C176.04 273.923 175.619 275.691 174.299 277.013C173.229 278.081 171.873 278.556 170.199 278.781C168.57 279 166.491 279 163.866 279H159.42C156.794 279 154.714 279 153.087 278.781C151.413 278.556 150.057 278.081 148.987 277.013C147.919 275.943 147.444 274.587 147.219 272.913C147 271.284 147 269.206 147 266.58V266.42C147 263.794 147 261.714 147.219 260.087C147.444 258.413 147.919 257.057 148.987 255.987C150.057 254.919 151.413 254.444 153.087 254.219C154.716 254 156.794 254 159.42 254ZM174.026 271.857H171.257C168.193 271.857 165.57 269.531 165.57 266.5C165.57 263.469 168.193 261.143 171.256 261.143H174.024C173.861 259.227 173.494 258.214 172.781 257.503C172.177 256.899 171.349 256.536 169.911 256.343C168.444 256.146 166.509 256.143 163.784 256.143H159.499C156.774 256.143 154.84 256.146 153.37 256.343C151.934 256.536 151.106 256.899 150.501 257.503C149.897 258.107 149.534 258.936 149.341 260.373C149.144 261.841 149.141 263.776 149.141 266.5C149.141 269.224 149.144 271.16 149.341 272.629C149.534 274.064 149.897 274.893 150.501 275.497C151.106 276.101 151.934 276.464 153.371 276.657C154.84 276.854 156.774 276.857 159.499 276.857H163.784C166.509 276.857 168.444 276.854 169.913 276.657C171.349 276.464 172.177 276.101 172.781 275.497C173.494 274.786 173.863 273.774 174.026 271.857ZM152.714 260.786C152.714 260.502 152.827 260.229 153.028 260.028C153.229 259.827 153.502 259.714 153.786 259.714H159.5C159.784 259.714 160.057 259.827 160.258 260.028C160.459 260.229 160.571 260.502 160.571 260.786C160.571 261.07 160.459 261.342 160.258 261.543C160.057 261.744 159.784 261.857 159.5 261.857H153.786C153.502 261.857 153.229 261.744 153.028 261.543C152.827 261.342 152.714 261.07 152.714 260.786ZM175.106 263.286H171.257C169.223 263.286 167.713 264.799 167.713 266.5C167.713 268.201 169.223 269.714 171.256 269.714H175.139C175.433 269.696 175.56 269.497 175.57 269.377V263.623C175.56 263.503 175.433 263.304 175.139 263.287L175.106 263.286Z" fill="white"></path><path d="M208.807 287.581C208.425 287.853 207.969 288 207.5 288C207.031 288 206.575 287.853 206.193 287.581C194.925 279.55 182.967 263.029 195.056 251.091C198.374 247.825 202.844 245.996 207.5 246C212.167 246 216.645 247.832 219.944 251.089C232.033 263.027 220.075 279.545 208.807 287.581Z" stroke="white" stroke-width="3.5001" stroke-linecap="round" stroke-linejoin="round"></path><path d="M207.499 267.001C208.737 267.001 209.924 266.509 210.799 265.634C211.674 264.759 212.166 263.572 212.166 262.334C212.166 261.096 211.674 259.909 210.799 259.034C209.924 258.159 208.737 257.667 207.499 257.667C206.261 257.667 205.074 258.159 204.199 259.034C203.324 259.909 202.832 261.096 202.832 262.334C202.832 263.572 203.324 264.759 204.199 265.634C205.074 266.509 206.261 267.001 207.499 267.001Z" stroke="white" stroke-width="3.5001" stroke-linecap="round" stroke-linejoin="round"></path></g></g><defs><linearGradient id="paint0_linear_364_2177" x1="415.522" y1="0" x2="415.522" y2="490.207" gradientUnits="userSpaceOnUse"><stop stop-color="#0D253C"></stop><stop offset="1" stop-color="#0D253C" stop-opacity="0"></stop></linearGradient><linearGradient id="paint1_linear_364_2177" x1="415.522" y1="0" x2="415.522" y2="490.207" gradientUnits="userSpaceOnUse"><stop stop-color="#0D253C"></stop><stop offset="1" stop-color="#0D253C" stop-opacity="0"></stop></linearGradient><linearGradient id="paint2_linear_364_2177" x1="415.522" y1="0" x2="415.522" y2="490.207" gradientUnits="userSpaceOnUse"><stop stop-color="#0D253C"></stop><stop offset="1" stop-color="#0D253C" stop-opacity="0"></stop></linearGradient><linearGradient id="paint3_linear_364_2177" x1="415.522" y1="0" x2="415.522" y2="490.207" gradientUnits="userSpaceOnUse"><stop stop-color="#0D253C"></stop><stop offset="1" stop-color="#0D253C" stop-opacity="0"></stop></linearGradient><clipPath id="clip0_364_2177"><rect width="482" height="855" fill="white"></rect></clipPath><clipPath id="clip1_364_2177"><rect width="810.675" height="798.454" rx="399.227" transform="matrix(-1 -8.74228e-08 -8.74228e-08 1 391.719 29)" fill="white"></rect></clipPath></defs></svg>