<svg xmlns="http://www.w3.org/2000/svg" width="167" height="49" viewBox="0 0 167 49" fill="none"><rect x="0.210938" width="166.788" height="49" rx="24.5" fill="white"></rect><circle cx="24.7115" cy="24.5" r="16.9615" fill="#0D253C"></circle><path d="M33.0356 28.9903V28.9816L28.8365 27.1907C28.4623 27.3659 28.1281 27.616 27.8544 27.9255C27.5807 28.2351 27.3735 28.5975 27.2455 28.9903C25.5819 28.5004 24.0675 27.6017 22.8405 26.3762C21.6135 25.1507 20.7129 23.6374 20.2209 21.9744C20.614 21.8472 20.977 21.6414 21.2879 21.3693C21.5988 21.0973 21.851 20.7648 22.0292 20.3921L20.2296 16.1756C20.2296 16.1733 20.2287 16.1711 20.2271 16.1695C20.2254 16.1679 20.2232 16.1669 20.2209 16.1669C19.7631 16.0191 19.2767 15.9815 18.8016 16.0574C18.3264 16.1333 17.876 16.3204 17.4869 16.6035C17.0978 16.8866 16.7812 17.2577 16.5629 17.6864C16.3445 18.1152 16.2306 18.5895 16.2305 19.0707C16.2294 22.6951 17.6439 26.1766 20.1724 28.7733C22.7009 31.3701 26.1436 32.8766 29.7667 32.9721C29.8884 32.9808 30.0188 32.9808 30.1406 32.9808C30.2623 32.9808 30.3927 32.9808 30.5144 32.9721C31.2536 32.8827 31.9344 32.5255 32.4278 31.9679C32.9213 31.4103 33.1932 30.6912 33.1921 29.9466C33.1945 29.6213 33.1416 29.2979 33.0356 28.9903Z" fill="white"></path><path d="M59.4806 32.8086L58.1566 30.8055C57.868 30.8225 57.5285 30.8395 57.206 30.8395C55.7462 30.8395 54.4901 30.6358 53.4037 30.1775C51.214 29.2948 49.9748 27.4955 49.9748 24.5758V24.491C49.9748 23.133 50.2973 21.9787 50.9084 21.0281C52.1645 19.11 54.3882 18.0915 57.189 18.0915C58.5979 18.0915 59.8031 18.3461 60.9235 18.8384C63.1302 19.8229 64.4542 21.7241 64.4542 24.474V24.5928C64.4542 27.3936 63.1472 29.2099 61.0083 30.1435L62.9774 32.8086H59.4806ZM57.189 28.2593C58.1057 28.2593 58.8526 28.1575 59.4976 27.9029C60.7877 27.4446 61.5176 26.3921 61.5176 24.5758V24.5589C61.5176 23.6083 61.3478 22.8614 60.9914 22.2673C60.2784 21.13 59.0053 20.6547 57.206 20.6547C54.507 20.6547 52.9114 21.775 52.9114 24.5419V24.5589C52.9114 27.1051 54.507 28.2593 57.189 28.2593ZM74.3889 28.2933C73.7439 29.838 72.335 30.8225 70.1452 30.8225C67.1237 30.8225 65.4942 29.0062 65.4942 26.0866V20.7565H68.4138V25.5094C68.4138 27.4446 69.1947 28.463 71.3335 28.463C73.2007 28.463 74.1852 27.2748 74.1852 25.3397V20.7565H77.1218V30.5H74.6435L74.3889 28.2933ZM80.0508 19.2628C78.7267 19.2628 78.1835 18.8384 78.1835 17.5144C78.1835 16.2413 78.8625 15.7999 80.0508 15.7999C81.256 15.7999 81.918 16.2413 81.918 17.5144C81.918 18.7365 81.3069 19.2628 80.0508 19.2628ZM78.5061 30.5V20.7565H81.4766V30.5H78.5061ZM95.4577 26.2054C95.3898 27.122 95.1012 27.9368 94.6089 28.6158C93.6074 30.0077 91.7402 30.8225 88.8206 30.8225C87.2759 30.8225 86.0367 30.6188 85.0861 30.1945C83.2189 29.3797 82.4381 27.818 82.4381 25.6962C82.4381 24.6098 82.7097 23.6762 83.2359 22.8784C84.3053 21.2827 86.2913 20.4001 88.9054 20.4001C92.8436 20.4001 95.1012 22.0296 95.4577 24.9153H92.3513C92.0967 23.4555 91.0952 22.7256 88.9394 22.7256C86.546 22.7256 85.3747 23.6932 85.3747 25.6962C85.3747 27.5464 86.4271 28.463 88.9054 28.463C91.1801 28.463 92.1306 27.6652 92.3513 26.2054H95.4577ZM101.906 25.9847L99.0545 28.2254V30.5H96.2367V17.5992H99.0545V25.5434L104.843 20.7565H108.747L104.113 24.5419L108.9 30.5H105.454L101.906 25.9847ZM126.449 25.3567C126.262 26.494 125.905 27.4615 125.311 28.2763C124.157 29.9059 122.137 30.8395 119.048 30.8395C117.622 30.8395 116.383 30.6188 115.313 30.1945C113.174 29.3287 111.952 27.5294 111.952 24.5758V24.491C111.952 23.133 112.258 21.9787 112.903 21.0281C114.176 19.11 116.451 18.0915 119.336 18.0915C120.592 18.0915 121.662 18.2782 122.646 18.6347C124.632 19.3816 125.922 20.8584 126.381 23.1839H123.308C123.02 21.5713 121.713 20.6547 119.353 20.6547C116.552 20.6547 114.889 21.7411 114.889 24.5079V24.5419C114.889 27.139 116.468 28.2593 119.234 28.2593C121.933 28.2593 123.071 27.2239 123.342 25.3567H126.449ZM136.372 28.1914C135.574 29.7361 133.774 30.8225 130.957 30.8225C128.275 30.8225 126.798 29.9229 126.798 28.0556V28.0387C126.798 26.9014 127.273 26.0526 128.343 25.5604C128.665 25.4076 129.022 25.2888 129.412 25.1699C130.21 24.9663 131.364 24.8305 133.452 24.7116C134.182 24.6607 134.742 24.6268 135.132 24.5589C135.93 24.44 136.202 24.2194 136.202 23.795V23.778C136.202 23.5574 136.134 23.3537 135.947 23.15C135.625 22.7595 134.861 22.4879 133.452 22.4879C132.603 22.4879 131.958 22.5389 131.483 22.6747C130.498 22.8953 130.091 23.3706 130.006 24.1515H127.035C127.358 21.5543 129.446 20.417 133.197 20.417C134.47 20.417 135.506 20.5359 136.372 20.7565C138.086 21.2318 138.969 22.3182 138.969 24.44V30.5H136.626L136.372 28.1914ZM131.822 28.7856C132.688 28.7856 133.435 28.6328 134.097 28.3442C135.438 27.7671 136.236 26.8165 136.236 25.832V25.7641C135.981 26.1036 135.302 26.3412 133.707 26.4261C131.839 26.5109 130.991 26.6467 130.464 26.9014C130.057 27.1051 129.853 27.3936 129.853 27.7841V27.801C129.853 28.4461 130.396 28.7856 131.822 28.7856ZM140.351 30.5V17.5992H143.254V30.5H140.351ZM144.707 30.5V17.5992H147.61V30.5H144.707Z" fill="#0F2A44"></path></svg>