<svg xmlns="http://www.w3.org/2000/svg" width="48" height="428" viewBox="0 0 48 428" fill="none"><rect x="23" y="35" width="2" height="392" fill="#B6D0EE"></rect><circle cx="23.6426" cy="23.6426" r="23.6426" fill="#D3E8FF"></circle><path d="M24.9736 26.9444L24.9736 16.8875L22.8754 16.8875L22.8754 26.9444L18.3715 22.4405L16.888 23.924L23.9245 30.9604L30.9609 23.924L29.4775 22.4405L24.9736 26.9444Z" fill="#0F2A44"></path><circle cx="23.6426" cy="213.928" r="23.6426" fill="#D3E8FF"></circle><path d="M24.9736 217.23L24.9736 207.173L22.8754 207.173L22.8754 217.23L18.3715 212.726L16.888 214.21L23.9245 221.246L30.9609 214.21L29.4775 212.726L24.9736 217.23Z" fill="#0F2A44"></path><circle cx="23.6426" cy="404.213" r="23.6426" fill="#D3E8FF"></circle><path d="M24.9736 407.515L24.9736 397.458L22.8754 397.458L22.8754 407.515L18.3715 403.011L16.888 404.494L23.9245 411.531L30.9609 404.494L29.4775 403.011L24.9736 407.515Z" fill="#0F2A44"></path></svg>