<svg xmlns="http://www.w3.org/2000/svg" width="76" height="431" viewBox="0 0 76 431" fill="none"><rect x="37.1016" y="41.1499" width="2.7" height="353.7" fill="#B6D0EE"></rect><circle cx="37.8" cy="37.8" r="37.8" fill="#D3E8FF"></circle><path d="M39.9274 43.0791L39.9274 27.0001L36.5727 27.0001L36.5727 43.0791L29.3718 35.8783L27.0001 38.25L38.25 49.5L49.5 38.25L47.1282 35.8783L39.9274 43.0791Z" fill="#0F2A44"></path><circle cx="37.8" cy="215.1" r="37.8" fill="#D3E8FF"></circle><path d="M39.9274 220.379L39.9274 204.3L36.5727 204.3L36.5727 220.379L29.3718 213.178L27.0001 215.55L38.25 226.8L49.5 215.55L47.1282 213.178L39.9274 220.379Z" fill="#0F2A44"></path><circle cx="37.8" cy="392.4" r="37.8" fill="#D3E8FF"></circle><path d="M39.9274 397.679L39.9274 381.6L36.5727 381.6L36.5727 397.679L29.3718 390.478L27.0001 392.85L38.25 404.1L49.5 392.85L47.1282 390.478L39.9274 397.679Z" fill="#0F2A44"></path></svg>